<svg width="2000" height="6331" viewBox="0 0 2000 6331" fill="none" xmlns="http://www.w3.org/2000/svg">
<g clip-path="url(#clip0_45_7601)">
<circle cx="251.707" cy="343.707" r="251.707" fill="#60F3F0"/>
<circle cx="1399.55" cy="1108.38" r="300.545" fill="#BD66E9"/>
<ellipse cx="1049.8" cy="199.715" rx="107.715" ry="107.715" fill="#8646F4"/>
<circle cx="1041.69" cy="1836.75" r="251.707" fill="#60F3F0"/>
<circle cx="395.43" cy="2513.57" r="286.864" fill="#BD66E9"/>
<ellipse cx="1592.35" cy="2226.76" rx="107.715" ry="107.715" fill="#8646F4"/>
<circle cx="981.666" cy="4109.1" r="251.707" fill="#60F3F0"/>
<ellipse cx="1546.5" cy="3403.5" rx="153.5" ry="151.5" fill="#BD66E9"/>
<circle cx="535.035" cy="3433.03" r="122.035" fill="#8646F4"/>
<circle cx="1448.59" cy="5602.11" r="251.707" fill="#60F3F0"/>
<ellipse cx="397" cy="5211.5" rx="187" ry="195.5" fill="#BD66E9"/>
<path d="M1699.07 4693.03C1699.07 4760.43 1644.43 4815.07 1577.03 4815.07C1509.64 4815.07 1455 4760.43 1455 4693.03C1455 4625.64 1509.64 4571 1577.03 4571C1644.43 4571 1699.07 4625.64 1699.07 4693.03Z" fill="#8646F4"/>
</g>
<rect x="0.5" y="0.5" width="1999" height="6330" rx="4.5" stroke="#9747FF" stroke-dasharray="10 5"/>
<defs>
<clipPath id="clip0_45_7601">
<rect width="2000" height="6331" rx="5" fill="white"/>
</clipPath>
</defs>
</svg>
