<svg width="50" height="50" viewBox="0 0 50 50" fill="none" xmlns="http://www.w3.org/2000/svg">
<path opacity="0.4" d="M7.10628 42.3609C5.56982 42.4911 4.19899 41.7818 3.22607 40.7172L3.23337 40.7411C4.14795 42.038 5.54795 42.7109 7.2917 42.7109H35.4167C33.1157 42.7109 30.2084 41.6693 30.2084 36.4609V34.3776C30.2084 33.8026 29.7417 33.3359 29.1667 33.3359H11.7188V37.1703C11.7188 41.8182 7.91878 42.2797 7.10628 42.3609Z" fill="#118BEF"/>
<path opacity="0.3" d="M6.92078 42.0109C5.45619 42.1922 4.04578 41.5995 3.07703 40.4682L3.09994 40.5484C4.00723 41.9755 5.46244 42.7109 7.29161 42.7109H35.4166C33.1156 42.7109 30.2083 41.6693 30.2083 36.4609V34.3776C30.2083 33.8026 29.7416 33.3359 29.1666 33.3359H10.9374V37.5016C10.9374 41.1453 7.97078 41.8474 6.92078 42.0109Z" fill="#118BEF"/>
<path opacity="0.2" d="M6.73545 41.662C5.34274 41.8953 3.8917 41.4182 2.9292 40.2203L2.96357 40.3505C3.85524 41.9182 5.37399 42.7109 7.2917 42.7109H35.4167C33.1157 42.7109 30.2084 41.6693 30.2084 36.4609V34.3776C30.2084 33.8026 29.7417 33.3359 29.1667 33.3359H10.1563V37.8318C10.1563 40.4724 8.02295 41.4161 6.73545 41.662Z" fill="#118BEF"/>
<path opacity="0.1" d="M6.54998 41.312C5.23019 41.5953 3.74373 41.237 2.7854 39.9766C3.64061 41.787 5.23228 42.7109 7.29165 42.7109H35.4166C33.1156 42.7109 30.2083 41.6693 30.2083 36.4609V34.3776C30.2083 33.8026 29.7416 33.3359 29.1666 33.3359H9.37498V38.162C9.37498 39.7995 8.07498 40.9839 6.54998 41.312Z" fill="#118BEF"/>
<path d="M16.0813 6.25H44.325C45.8875 6.25 47.9167 7.42292 47.9167 10.2875V12.4094C47.9167 12.7469 47.6428 13.0208 47.3053 13.0208H20.273C19.9355 13.0208 19.6615 12.7469 19.6615 12.4094V10.5469C19.6615 6.96563 17.6625 6.25 16.0813 6.25Z" fill="#0576E5"/>
<path d="M16.0812 6.25C14.1031 6.25 12.5 7.85312 12.5 9.83125V36.8385C12.5 42.4875 7.86767 42.7083 7.29163 42.7083H35.4166C38.2927 42.7083 40.625 40.376 40.625 37.5V10.2865C40.625 6.40208 43.9802 6.25 44.376 6.25H16.0812Z" fill="url(#paint0_linear_2400_42721)"/>
<path d="M18.75 16.6667C18.75 16.0917 19.2167 15.625 19.7917 15.625H33.3333C33.9083 15.625 34.375 16.0917 34.375 16.6667C34.375 17.2417 33.9094 17.7083 33.3333 17.7083H19.7917C19.2167 17.7083 18.75 17.2417 18.75 16.6667ZM29.1667 26.0417H19.7917C19.2167 26.0417 18.75 26.5083 18.75 27.0833C18.75 27.6583 19.2167 28.125 19.7917 28.125H29.1667C29.7417 28.125 30.2083 27.6583 30.2083 27.0833C30.2083 26.5083 29.7427 26.0417 29.1667 26.0417ZM33.3333 20.8333H19.7917C19.2167 20.8333 18.75 21.3 18.75 21.875C18.75 22.45 19.2167 22.9167 19.7917 22.9167H33.3333C33.9083 22.9167 34.375 22.45 34.375 21.875C34.375 21.3 33.9094 20.8333 33.3333 20.8333Z" fill="#20AFFD"/>
<path opacity="0.4" d="M12.5 36.8349C12.5 42.4849 7.86767 42.7057 7.29163 42.7057H35.4166C33.2666 42.7057 30.625 41.3568 30.625 36.4557V34.3724C30.625 33.5672 29.9718 32.9141 29.1666 32.9141H12.5V36.8349Z" fill="#24A1FF"/>
<path opacity="0.3" d="M12.5 36.8375C12.5 42.4875 7.86767 42.7083 7.29163 42.7083H35.4166C33.4177 42.7083 31.0416 41.0521 31.0416 36.4583V34.375C31.0416 33.3406 30.201 32.5 29.1666 32.5H12.5V36.8375Z" fill="#24A1FF"/>
<path opacity="0.2" d="M12.5 36.8401C12.5 42.4901 7.86767 42.7109 7.29163 42.7109H35.4166C33.5687 42.7109 31.4583 40.7474 31.4583 36.4609V34.3776C31.4583 33.113 30.4302 32.0859 29.1666 32.0859H12.5V36.8401Z" fill="#24A1FF"/>
<path opacity="0.1" d="M12.5 36.8349C12.5 42.4849 7.86767 42.7057 7.29163 42.7057H35.4166C33.7208 42.7057 31.875 40.4349 31.875 36.4557V34.3724C31.875 32.8786 30.6604 31.6641 29.1666 31.6641H12.5V36.8349Z" fill="#24A1FF"/>
<path opacity="0.05" d="M12.5 36.8375C12.5 42.4875 7.86767 42.7083 7.29163 42.7083H35.4166C33.8718 42.7083 32.2916 40.1292 32.2916 36.4583V34.375C32.2916 32.6521 30.8895 31.25 29.1666 31.25H12.5V36.8375Z" fill="#24A1FF"/>
<path d="M35.4167 42.7109H7.29171C4.16671 42.7109 2.08337 40.6276 2.08337 36.4609V34.3776C2.08337 33.8026 2.55004 33.3359 3.12504 33.3359H29.1667C29.7417 33.3359 30.2084 33.8026 30.2084 34.3776V36.4609C30.2084 41.6693 33.1157 42.7109 35.4167 42.7109Z" fill="url(#paint1_linear_2400_42721)"/>
<path d="M29.1667 33.8568C29.4542 33.8568 29.6875 34.0901 29.6875 34.3776V36.4609C29.6875 39.5495 30.674 41.2609 31.9219 42.1901H7.29171C4.26879 42.1901 2.60421 40.1557 2.60421 36.4609V34.3776C2.60421 34.0901 2.83754 33.8568 3.12504 33.8568H29.1667ZM29.1667 33.3359H3.12504C2.55004 33.3359 2.08337 33.8026 2.08337 34.3776V36.4609C2.08337 40.6276 4.16671 42.7109 7.29171 42.7109H35.4167C33.1157 42.7109 30.2084 41.6693 30.2084 36.4609V34.3776C30.2084 33.8026 29.7417 33.3359 29.1667 33.3359Z" fill="url(#paint2_linear_2400_42721)"/>
<path opacity="0.4" d="M7.87318 23.8645L8.73238 23.0053C9.38498 22.3527 10.4429 22.3521 11.0955 23.0053L15.1867 27.0965L15.1053 27.1543L15.75 30.9708L11.9802 30.334L7.87318 26.227C7.22118 25.5756 7.22118 24.5171 7.87318 23.8645Z" fill="#FF8A3B"/>
<path opacity="0.3" d="M7.55052 23.5448L8.40911 22.6862C9.23975 21.8549 10.5857 21.8543 11.4169 22.6862L15.5628 26.8321L15.1047 27.1578L15.7494 30.9744L11.9328 30.3297L11.6812 30.6839L7.54991 26.5532C6.72109 25.7231 6.72109 24.3748 7.55052 23.5448Z" fill="#FF8A3B"/>
<path opacity="0.2" d="M7.22846 23.2255L8.08706 22.3669C9.09574 21.3576 10.7297 21.3564 11.7396 22.3663L15.9396 26.5663L15.1047 27.1599L15.7494 30.9765L11.9328 30.3318L11.4133 31.0628L7.22786 26.8774C6.22161 25.8711 6.22161 24.2335 7.22846 23.2255Z" fill="#FF8A3B"/>
<path opacity="0.1" d="M6.90639 22.8979L7.76437 22.0399C8.95109 20.852 10.8731 20.8508 12.0616 22.0393L16.3163 26.294L15.1047 27.1556L15.7494 30.9722L11.9328 30.3275L11.1453 31.4352L6.90456 27.1951C5.7221 26.0102 5.7221 24.0834 6.90639 22.8979Z" fill="#FF8A3B"/>
<path d="M26.2408 42.2374L27.1 41.3781C27.5746 40.9036 27.5746 40.1343 27.1 39.6597L10.7728 23.3325C10.2982 22.8579 9.52892 22.8579 9.05435 23.3325L8.19515 24.1917C7.72058 24.6663 7.72058 25.4355 8.19515 25.9101L24.5224 42.2374C24.997 42.7119 25.7662 42.7119 26.2408 42.2374Z" fill="url(#paint3_linear_2400_42721)"/>
<path opacity="0.4" d="M8.19517 24.1917L9.05437 23.3325C9.52893 22.8579 10.2982 22.8579 10.7728 23.3325L15.5038 28.0636L16.0173 31.1024C16.0313 31.1856 15.959 31.2579 15.8757 31.2439L13.0514 30.7669L8.19456 25.9101C7.7206 25.4355 7.7206 24.6663 8.19517 24.1917Z" fill="#FF8C3E"/>
<path opacity="0.3" d="M8.19515 24.1917L9.05435 23.3325C9.52892 22.8579 10.2982 22.8579 10.7728 23.3325L15.8004 28.3601L16.3138 31.3995C16.3278 31.4827 16.2555 31.5551 16.1722 31.5411L13.3479 31.0641L8.19454 25.9107C7.72058 25.4355 7.72058 24.6663 8.19515 24.1917Z" fill="#FF8C3E"/>
<path opacity="0.2" d="M8.19513 24.1917L9.05433 23.3325C9.5289 22.8579 10.2982 22.8579 10.7727 23.3325L16.0969 28.6566L16.6103 31.696C16.6243 31.7793 16.552 31.8516 16.4687 31.8376L13.6444 31.3606L8.19452 25.9107C7.72056 25.4355 7.72056 24.6663 8.19513 24.1917Z" fill="#FF8C3E"/>
<path opacity="0.1" d="M8.19523 24.1917L9.05444 23.3325C9.529 22.8579 10.2983 22.8579 10.7728 23.3325L16.3935 28.9531L16.907 31.9926C16.9209 32.0758 16.8486 32.1481 16.7654 32.1341L13.9417 31.6571L8.19523 25.9107C7.72067 25.4355 7.72067 24.6663 8.19523 24.1917Z" fill="#FF8C3E"/>
<path opacity="0.05" d="M8.19521 24.1917L9.05441 23.3325C9.52898 22.8579 10.2983 22.8579 10.7728 23.3325L16.69 29.2497L17.2035 32.2891C17.2174 32.3723 17.1451 32.4446 17.0619 32.4307L14.2382 31.9537L8.19521 25.9107C7.72065 25.4355 7.72065 24.6663 8.19521 24.1917Z" fill="#FF8C3E"/>
<path d="M5.1649 39.0172L3.03817 39.9286L5.1649 40.8401L6.07636 42.9668L6.98782 40.8401L9.11456 39.9286L6.98782 39.0172L6.07636 36.8905L5.1649 39.0172ZM11.5451 34.4599L12.092 35.7359L13.368 36.2828L12.092 36.8297L11.5451 38.1057L10.9982 36.8297L9.7222 36.2828L10.9982 35.7359L11.5451 34.4599ZM3.6294 30.9733L4.27411 27.1567L1.11925 24.9133L4.27411 22.6705L3.6294 18.8539L7.44659 19.4986L9.68938 16.3438L11.9328 19.4986L15.7494 18.8539L15.1047 22.6705L18.2595 24.9133L15.1047 27.1567L15.7494 30.9733L11.9328 30.3286L9.68938 33.4834L7.44659 30.3286L3.6294 30.9733Z" fill="url(#paint4_linear_2400_42721)"/>
<path d="M9.68938 16.8681L7.6939 19.6748C7.63617 19.7556 7.54381 19.8024 7.44659 19.8024C7.42958 19.8024 7.41256 19.8012 7.39616 19.7982L4.00067 19.2246L4.57428 22.6201C4.59372 22.7349 4.54572 22.851 4.45093 22.9184L1.64425 24.9139L4.45093 26.9094C4.54572 26.9768 4.59372 27.0929 4.57428 27.2077L4.00067 30.6032L7.39616 30.0296C7.41317 30.0266 7.43018 30.0253 7.44659 30.0253C7.54381 30.0253 7.63678 30.0721 7.6939 30.153L9.68938 32.9596L11.6849 30.153C11.7426 30.0721 11.835 30.0253 11.9322 30.0253C11.9492 30.0253 11.9662 30.0266 11.9826 30.0296L15.3781 30.6032L14.8045 27.2077C14.785 27.0929 14.833 26.9768 14.9278 26.9094L17.7345 24.9139L14.9278 22.9184C14.833 22.851 14.785 22.7349 14.8045 22.6201L15.3781 19.2246L11.9826 19.7982C11.9656 19.8012 11.9486 19.8024 11.9322 19.8024C11.835 19.8024 11.742 19.7556 11.6849 19.6748L9.68938 16.8681ZM9.68938 16.3438L11.9328 19.4986L15.7494 18.8539L15.1047 22.6705L18.2595 24.9133L15.1047 27.1567L15.7494 30.9733L11.9328 30.3286L9.68938 33.4834L7.44659 30.3286L3.6294 30.9733L4.27411 27.1567L1.11925 24.9133L4.27411 22.6705L3.6294 18.8539L7.44659 19.4986L9.68938 16.3438Z" fill="url(#paint5_linear_2400_42721)"/>
<defs>
<linearGradient id="paint0_linear_2400_42721" x1="25.8333" y1="38.4479" x2="25.8333" y2="-2.1125" gradientUnits="userSpaceOnUse">
<stop stop-color="#97F8FF"/>
<stop offset="0.115" stop-color="#84EDFF"/>
<stop offset="0.725" stop-color="#26B3FD"/>
<stop offset="1" stop-color="#009CFC"/>
</linearGradient>
<linearGradient id="paint1_linear_2400_42721" x1="6.15942" y1="38.0234" x2="39.4927" y2="38.0234" gradientUnits="userSpaceOnUse">
<stop stop-color="#DAA6FF" stop-opacity="0.6"/>
<stop offset="1" stop-color="#DCA6FF" stop-opacity="0.4"/>
</linearGradient>
<linearGradient id="paint2_linear_2400_42721" x1="24.1844" y1="35.0776" x2="8.64379" y2="44.1339" gradientUnits="userSpaceOnUse">
<stop stop-color="#F5EBFF" stop-opacity="0.2"/>
<stop offset="1" stop-color="#DAA6FF" stop-opacity="0.4"/>
</linearGradient>
<linearGradient id="paint3_linear_2400_42721" x1="27.8481" y1="42.984" x2="12.3408" y2="27.4772" gradientUnits="userSpaceOnUse">
<stop stop-color="#FF6201"/>
<stop offset="0.689" stop-color="#FDBD19"/>
<stop offset="1" stop-color="#FCE724"/>
</linearGradient>
<linearGradient id="paint4_linear_2400_42721" x1="9.68938" y1="54.6068" x2="9.68938" y2="28.4898" gradientUnits="userSpaceOnUse">
<stop stop-color="#FFCFAE" stop-opacity="0.2"/>
<stop offset="1" stop-color="#F4805D" stop-opacity="0.4"/>
</linearGradient>
<linearGradient id="paint5_linear_2400_42721" x1="18.2595" y1="24.9139" x2="1.11925" y2="24.9139" gradientUnits="userSpaceOnUse">
<stop stop-color="#FFFFF0" stop-opacity="0.3"/>
<stop offset="1" stop-color="#FF9A83" stop-opacity="0.4"/>
</linearGradient>
</defs>
</svg>
