<svg width="27" height="28" viewBox="0 0 27 28" fill="none" xmlns="http://www.w3.org/2000/svg">
<g clip-path="url(#clip0_2565_7680)">
<path opacity="0.4" d="M11.7444 15.6888C12.4037 16.3481 13.4719 16.3481 14.1311 15.6888L16.9723 12.8476C16.5302 11.7665 15.6668 10.9036 14.5856 10.4609L11.7444 13.3021C11.0852 13.9614 11.0852 15.0301 11.7444 15.6888Z" fill="#118BEF"/>
<path opacity="0.3" d="M11.7444 15.6874C12.4037 16.3467 13.4719 16.3467 14.1311 15.6874L17.2912 12.5273C16.812 11.4704 15.9615 10.6199 14.9046 10.1406L11.7444 13.3008C11.0852 13.96 11.0852 15.0287 11.7444 15.6874Z" fill="#118BEF"/>
<path opacity="0.2" d="M11.7444 15.6827C12.4037 16.3419 13.4719 16.3419 14.1311 15.6827L17.6068 12.207C17.0983 11.1703 16.2568 10.3294 15.2201 9.82031L11.7444 13.296C11.0852 13.9553 11.0852 15.024 11.7444 15.6827Z" fill="#118BEF"/>
<path opacity="0.1" d="M11.7444 15.6858C12.4037 16.345 13.4719 16.345 14.1311 15.6858L17.9224 11.8945C17.3891 10.8758 16.5544 10.0411 15.5357 9.50781L11.7444 13.2991C11.0852 13.9583 11.0852 15.0271 11.7444 15.6858Z" fill="#118BEF"/>
<path opacity="0.4" d="M16.6438 6.39069L17.3126 7.72831L16.4626 8.57825C17.4425 9.16438 18.2632 9.9845 18.8493 10.9649L19.6993 10.115L21.0369 10.7838C21.1882 10.8598 21.371 10.8299 21.4908 10.7101L22.8031 9.39781C21.7451 7.35369 20.0739 5.6825 18.0303 4.625L16.7175 5.93619C16.5982 6.056 16.5684 6.23881 16.6438 6.39069Z" fill="#118BEF"/>
<path opacity="0.3" d="M16.6438 6.39319L17.3126 7.73081L16.1555 8.88788C17.1466 9.45881 17.9713 10.2834 18.5422 11.2746L19.6993 10.1175L21.0369 10.7863C21.1882 10.8623 21.371 10.8324 21.4908 10.7126L23.1181 9.08531C22.0381 7.05862 20.372 5.3925 18.3453 4.3125L16.7175 5.93869C16.5982 6.0585 16.5684 6.24131 16.6438 6.39319Z" fill="#118BEF"/>
<path opacity="0.2" d="M16.6438 6.39288L17.3126 7.7305L15.8484 9.19469C16.8519 9.74819 17.6816 10.5779 18.2351 11.5814L19.6993 10.1172L21.0369 10.786C21.1882 10.8619 21.371 10.8321 21.4908 10.7123L23.4303 8.77281C22.3301 6.76131 20.6685 5.10025 18.6575 4L16.7175 5.93837C16.5982 6.05819 16.5684 6.241 16.6438 6.39288Z" fill="#118BEF"/>
<path opacity="0.1" d="M16.6438 6.397L17.3127 7.73462L15.5352 9.51213C16.5538 10.0454 17.3886 10.8801 17.9218 11.8988L19.6993 10.1213L21.037 10.7901C21.1883 10.8661 21.3711 10.8363 21.4909 10.7164L23.7392 8.46813C22.6198 6.47069 20.9638 4.81412 18.9664 3.69531L16.7175 5.9425C16.5983 6.06231 16.5685 6.24513 16.6438 6.397Z" fill="#118BEF"/>
<path d="M12.9375 3.80469C7.03519 3.80469 2.25 8.58988 2.25 14.4922C2.25 20.3945 7.03519 25.1797 12.9375 25.1797C18.8398 25.1797 23.625 20.3945 23.625 14.4922C23.625 8.58988 18.8398 3.80469 12.9375 3.80469ZM12.9375 21.8047C8.89875 21.8047 5.625 18.5309 5.625 14.4922C5.625 10.4534 8.89875 7.17969 12.9375 7.17969C16.9762 7.17969 20.25 10.4534 20.25 14.4922C20.25 18.5309 16.9762 21.8047 12.9375 21.8047ZM16.875 14.4922C16.875 16.6668 15.1121 18.4297 12.9375 18.4297C10.7629 18.4297 9 16.6668 9 14.4922C9 12.3176 10.7629 10.5547 12.9375 10.5547C15.1121 10.5547 16.875 12.3176 16.875 14.4922Z" fill="url(#paint0_linear_2565_7680)"/>
<path opacity="0.05" d="M10.9485 16.4806C12.0476 17.5798 13.8262 17.5809 14.9259 16.4806L16.8727 14.5338C16.8727 14.5197 16.875 14.5062 16.875 14.4922C16.875 12.3176 15.1121 10.5547 12.9375 10.5547C12.9234 10.5547 12.9099 10.5569 12.8958 10.5569L10.9496 12.5032C9.85047 13.6012 9.84822 15.3809 10.9485 16.4806Z" fill="#009CFC"/>
<path opacity="0.05" d="M16.6021 4.46094L15.922 5.141C15.4591 5.60338 15.3449 6.30819 15.6374 6.89375L15.9434 7.50631L15.7206 7.72906C17.5195 8.47044 18.9567 9.90763 19.6981 11.7065L19.9214 11.4832L20.5328 11.7886C21.1178 12.0828 21.8226 11.9681 22.2861 11.5046L22.9662 10.8245C21.8873 7.87475 19.5518 5.53925 16.6021 4.46094Z" fill="#009CFC"/>
<path opacity="0.1" d="M16.8351 4.54688L16.0814 5.30062C15.6871 5.69437 15.5898 6.29513 15.8389 6.7935L16.2175 7.55119L15.9408 7.82794C17.563 8.56031 18.8674 9.86531 19.5998 11.487L19.8771 11.2097L20.6337 11.5877C21.1315 11.8386 21.7328 11.7407 22.1271 11.3458L22.8814 10.5921C21.7964 7.82906 19.5987 5.63137 16.8351 4.54688Z" fill="#009CFC"/>
<path opacity="0.1" d="M11.1076 16.3163C12.1185 17.3271 13.7553 17.3282 14.7667 16.3163L16.8615 14.2216C16.7304 12.259 15.165 10.6936 13.2024 10.5625L11.1082 12.6567C10.1851 13.5797 10.0254 15.2346 11.1076 16.3163Z" fill="#009CFC"/>
<path opacity="0.2" d="M11.2668 16.158C12.1898 17.0811 13.6844 17.0816 14.608 16.158L16.8316 13.9344C16.5875 12.2036 15.2211 10.8373 13.4909 10.5938L11.2673 12.8173C10.5192 13.5643 10.2025 15.0938 11.2668 16.158Z" fill="#009CFC"/>
<path opacity="0.2" d="M17.0685 4.63281L16.2405 5.46081C15.9148 5.7865 15.8344 6.28206 16.0403 6.69438L16.4914 7.59663L16.1556 7.93244C17.6063 8.64569 18.783 9.82244 19.4963 11.2737L19.8326 10.9373L20.7343 11.3879C21.1455 11.5949 21.6422 11.5139 21.9679 11.1882L22.7959 10.3602C21.7136 7.78 19.6481 5.71506 17.0685 4.63281Z" fill="#009CFC"/>
<path opacity="0.3" d="M11.426 16.0013C12.2608 16.836 13.6136 16.8366 14.4489 16.0013L16.7866 13.6635C16.4638 12.1526 15.2746 10.9635 13.7638 10.6406L11.426 12.9784C10.854 13.5504 10.3798 14.955 11.426 16.0013Z" fill="#009CFC"/>
<path opacity="0.3" d="M17.2851 4.73438L16.3991 5.62031C16.1421 5.87738 16.0785 6.26888 16.2411 6.594L16.7648 7.64137L16.3699 8.03625C17.6535 8.72025 18.7088 9.7755 19.3928 11.0591L19.7882 10.6637L20.835 11.1868C21.1596 11.3499 21.5516 11.2864 21.8087 11.0288L22.6946 10.1428C21.6214 7.73925 19.6898 5.80763 17.2851 4.73438Z" fill="#009CFC"/>
<path opacity="0.4" d="M17.4999 4.83594L16.5583 5.77756C16.3698 5.966 16.3231 6.25288 16.4424 6.49138L17.0386 7.68388L16.5718 8.15075C17.6962 8.7965 18.6305 9.73138 19.2763 10.8553L19.7431 10.3884L20.9351 10.9846C21.173 11.1039 21.4605 11.0572 21.6489 10.8688L22.5905 9.92713C21.5341 7.69513 19.7319 5.89287 17.4999 4.83594Z" fill="#009CFC"/>
<path opacity="0.4" d="M11.5853 15.8393C12.3323 16.5863 13.5428 16.5863 14.2898 15.8393L16.7215 13.4076C16.3497 12.1021 15.3225 11.0749 14.017 10.7031L11.5853 13.1348C11.1887 13.5314 10.557 14.8116 11.5853 15.8393Z" fill="#009CFC"/>
<path d="M17.7147 4.94531L16.7174 5.94206C16.5976 6.06187 16.5678 6.24469 16.6437 6.396L17.3125 7.73362L16.7697 8.27644C17.7395 8.8755 18.5568 9.69281 19.1564 10.6631L19.6992 10.1203L21.0368 10.7891C21.1881 10.8651 21.371 10.8353 21.4908 10.7154L22.4881 9.71812C21.4542 7.656 19.7768 5.97863 17.7147 4.94531Z" fill="#009CFC"/>
<path d="M11.7444 15.6884C12.4037 16.3477 13.4719 16.3477 14.1311 15.6884L16.6438 13.1758C16.2478 12.0642 15.3686 11.1851 14.2571 10.7891L11.7444 13.3018C11.0852 13.961 11.0852 15.0298 11.7444 15.6884Z" fill="#009CFC"/>
<path d="M25.1775 6.28974L22.4837 4.94311L21.1365 2.24874C21.0167 2.00855 20.6961 1.9568 20.5065 2.14636L16.7175 5.93536C16.5977 6.05518 16.5679 6.23799 16.6438 6.3893L17.3127 7.72693L11.7445 13.2951C11.5234 13.5162 10.7342 14.6716 11.7445 15.6818C12.4037 16.3411 13.4719 16.3411 14.1312 15.6818L19.6993 10.1136L21.037 10.7824C21.1883 10.8584 21.3711 10.8286 21.4909 10.7087L25.2799 6.91974C25.4695 6.72961 25.4177 6.40955 25.1775 6.28974Z" fill="url(#paint1_linear_2565_7680)"/>
<path d="M20.7838 2.3125C20.8002 2.3125 20.8558 2.317 20.8851 2.37437L22.2323 5.06819C22.2593 5.12275 22.3037 5.16663 22.3583 5.19419L25.0521 6.54137C25.0965 6.56387 25.1089 6.60269 25.1128 6.6235C25.1168 6.64431 25.1168 6.68537 25.0813 6.72081L21.2923 10.5098C21.271 10.5312 21.2428 10.5424 21.213 10.5424C21.1956 10.5424 21.1787 10.5385 21.163 10.5306L19.8253 9.86181C19.7854 9.84156 19.7421 9.832 19.6999 9.832C19.6268 9.832 19.5548 9.86013 19.5008 9.91412L13.9326 15.4829C13.6665 15.7484 13.3133 15.8946 12.9375 15.8946C12.5618 15.8946 12.2085 15.7484 11.943 15.4829C11.007 14.5469 11.9329 13.504 11.943 13.4939L17.5112 7.92569C17.5967 7.84019 17.6181 7.70912 17.5641 7.60112L16.8953 6.2635C16.8739 6.22019 16.8823 6.16844 16.9161 6.13412L20.7051 2.34512C20.7327 2.31812 20.763 2.3125 20.7838 2.3125ZM20.7838 2.03125C20.6848 2.03125 20.5847 2.06837 20.5065 2.14656L16.7175 5.935C16.5977 6.05481 16.5679 6.23762 16.6438 6.38894L17.3127 7.72656L11.7445 13.2948C11.5234 13.5158 10.7342 14.6712 11.7445 15.6814C12.0735 16.0111 12.5055 16.1759 12.9375 16.1759C13.3695 16.1759 13.8015 16.0111 14.1306 15.6814L19.6988 10.1127L21.0364 10.7815C21.0921 10.8096 21.1523 10.8231 21.2125 10.8231C21.3143 10.8231 21.415 10.7832 21.4909 10.7078L25.2799 6.91881C25.47 6.72869 25.4177 6.40863 25.1775 6.28881L22.4837 4.94162L21.1365 2.24837C21.0657 2.10719 20.9262 2.03125 20.7838 2.03125Z" fill="url(#paint2_linear_2565_7680)"/>
</g>
<defs>
<linearGradient id="paint0_linear_2565_7680" x1="4.2345" y1="23.1012" x2="23.076" y2="4.46281" gradientUnits="userSpaceOnUse">
<stop stop-color="#009CFC"/>
<stop offset="0.12" stop-color="#18ABFC"/>
<stop offset="0.416" stop-color="#4ECCFE"/>
<stop offset="0.672" stop-color="#76E4FE"/>
<stop offset="0.875" stop-color="#8EF3FF"/>
<stop offset="1" stop-color="#97F8FF"/>
</linearGradient>
<linearGradient id="paint1_linear_2565_7680" x1="15.9379" y1="11.4884" x2="25.9453" y2="1.48093" gradientUnits="userSpaceOnUse">
<stop stop-color="#DAA6FF" stop-opacity="0.6"/>
<stop offset="1" stop-color="#DCA6FF" stop-opacity="0.4"/>
</linearGradient>
<linearGradient id="paint2_linear_2565_7680" x1="21.4313" y1="5.99462" x2="11.4238" y2="16.0021" gradientUnits="userSpaceOnUse">
<stop stop-color="#DAA6FF" stop-opacity="0.4"/>
<stop offset="1" stop-color="#FEFDFF" stop-opacity="0.2"/>
</linearGradient>
<clipPath id="clip0_2565_7680">
<rect width="27" height="27" fill="white" transform="translate(0 0.429688)"/>
</clipPath>
</defs>
</svg>
