<svg width="80" height="80" viewBox="0 0 80 80" fill="none" xmlns="http://www.w3.org/2000/svg">
<g clip-path="url(#clip0_3321_3444)">
<path opacity="0.1" d="M11.2826 44.0966L37.4795 74.0946C37.619 74.3018 37.7647 74.5069 37.9411 74.6936L39.5698 76.4146C39.9206 76.7859 40.3288 77.0669 40.7554 77.2946L47.297 71.8156C47.0939 71.1838 46.7636 70.5828 46.2775 70.0679C46.7801 70.5992 47.3852 70.9664 48.0293 71.2023L54.1647 66.0618C54.0129 65.2105 53.6252 64.392 52.9852 63.7171C53.6518 64.4228 54.4908 64.8638 55.3729 65.0484L60.9298 60.3941C60.899 59.3048 60.5011 58.2218 59.6929 57.3684C60.5483 58.2731 61.6867 58.7469 62.8395 58.7941L67.5903 54.8125C67.777 53.4772 67.3995 52.0761 66.4006 51.0197L65.0283 49.5695L65.0734 49.5264L40.8847 24.4987C38.1647 22.8802 34.4908 21.5387 31.7093 20.6484L5.6416 42.4843L11.2826 44.0966Z" fill="#D631FF"/>
<path opacity="0.2" d="M11.2821 44.0967L37.479 74.0946C37.6185 74.3018 37.7641 74.5069 37.9405 74.6936L39.4975 76.3387L46.5559 70.4269C46.4636 70.3059 46.3836 70.1787 46.277 70.0659C46.3857 70.1808 46.5088 70.2669 46.6257 70.3675L53.5918 64.5316C53.4216 64.2444 53.2246 63.9695 52.9846 63.7152C53.2288 63.9716 53.4975 64.1849 53.7805 64.3736L60.5539 58.6998C60.3467 58.2218 60.0698 57.7664 59.6923 57.3664C60.08 57.7767 60.5313 58.0844 61.0093 58.3182L67.4605 52.9131C67.2657 52.2259 66.9272 51.5716 66.4021 51.0177L65.0298 49.5675L65.0749 49.5244L40.8841 24.4987C38.6954 23.1962 35.8872 22.0721 33.4257 21.2188L7.42773 42.9952L11.2821 44.0967Z" fill="#D631FF"/>
<path opacity="0.3" d="M11.2825 44.0989L37.4795 74.0968C37.6189 74.304 37.7646 74.5091 37.941 74.6958L38.4395 75.2209L59.7154 57.3994C59.7072 57.3912 59.701 57.3789 59.6928 57.3707C59.701 57.3789 59.7113 57.385 59.7215 57.3953L66.7656 51.4938C66.6487 51.3338 66.542 51.1697 66.4025 51.022L65.0302 49.5717L65.0754 49.5286L40.8846 24.5009C39.1779 23.4856 37.0979 22.583 35.0979 21.8281L9.21484 43.5081L11.2825 44.0989Z" fill="#D631FF"/>
<path opacity="0.4" d="M11.282 44.0995L37.4399 74.0523L65.7517 50.3354L65.0276 49.5723L65.0728 49.5293L40.884 24.5016C39.6389 23.7611 38.1948 23.078 36.7261 22.4688L11.001 44.0195L11.282 44.0995Z" fill="#D631FF"/>
<path d="M80.6707 7.90083L46.0841 18.3254L43.68 18.6536L11.3271 45.7531L35.0359 74.0588L70.3569 44.4711L81.8277 40.4362C82.5764 40.1736 83.0769 39.468 83.0769 38.6742V9.68955C83.0769 8.43826 81.8687 7.5398 80.6707 7.90083Z" fill="url(#paint0_linear_3321_3444)"/>
<path opacity="0.4" d="M65.3068 48.6992L40.8801 23.3125L34.7734 29.7289L57.9632 54.851L65.3068 48.6992Z" fill="#161FF4"/>
<path opacity="0.3" d="M65.9366 48.1701L40.8781 22.125L33.6494 29.7209L57.3335 55.3783L65.9366 48.1701Z" fill="#161FF4"/>
<path opacity="0.2" d="M66.5686 47.6489L40.8742 20.9453L32.5234 29.7186L56.704 55.9115L66.5686 47.6489Z" fill="#161FF4"/>
<path opacity="0.1" d="M67.1974 47.1219L40.8692 19.7578L31.3984 29.7106L56.0733 56.4388L67.1974 47.1219Z" fill="#161FF4"/>
<path opacity="0.05" d="M67.8282 46.5908L40.8682 18.5703L30.2754 29.6985L55.4446 56.9642L67.8282 46.5908Z" fill="#1661F4"/>
<path d="M41.6475 20.3516L12.1357 45.0716L36.427 72.889L64.7347 49.1762L40.8845 24.4972C41.1901 22.971 41.4383 21.5905 41.6475 20.3516Z" fill="#A413FD"/>
<path d="M66.4007 51.0191L65.0284 49.5688L65.0736 49.5257L40.8848 24.4981C42.1772 18.0345 42.5382 13.9401 42.5382 13.9401C42.5382 13.9401 30.4602 8.89806 21.2951 12.7606L-0.793096 7.69601C-1.96027 7.42934 -3.07617 8.31755 -3.07617 9.5155V38.5842C-3.07617 39.417 -2.52438 40.1493 -1.72233 40.3791L11.2828 44.096L37.4797 74.094C37.6192 74.3011 37.7648 74.5063 37.9413 74.6929L39.57 76.4119C41.3115 78.2519 44.2161 78.3319 46.0561 76.5904L46.0992 76.5493C47.9392 74.8078 48.0192 71.9032 46.2777 70.0632C48.0192 71.9032 50.9238 71.9832 52.7638 70.2416L52.8069 70.2006C54.6469 68.4591 54.7269 65.5545 52.9854 63.7145C54.7269 65.5545 57.6315 65.6345 59.4715 63.8929L59.5146 63.8519C61.3546 62.1104 61.4346 59.2058 59.693 57.3658C61.4346 59.2058 64.3392 59.2857 66.1792 57.5442L66.2223 57.5032C68.0623 55.7616 68.1423 52.8591 66.4007 51.0191Z" fill="url(#paint1_linear_3321_3444)" fill-opacity="0.7"/>
<path d="M-1.21361 8.67408C-1.15002 8.67408 -1.08643 8.68228 -1.02079 8.69664L21.0674 13.7592C21.1433 13.7756 21.2192 13.7859 21.2972 13.7859C21.4325 13.7859 21.5679 13.7592 21.6951 13.7059C23.8613 12.7931 26.4069 12.3315 29.2623 12.3315C34.6079 12.3315 39.6315 13.9623 41.4387 14.6187C41.2725 16.0854 40.8274 19.5623 39.8818 24.2987C39.8161 24.629 39.9166 24.9695 40.1505 25.2115L64.0951 49.9869C64.1402 50.0915 64.2059 50.1879 64.2879 50.2761L65.6602 51.7264C66.3146 52.4177 66.6592 53.3223 66.6325 54.272C66.6059 55.2238 66.212 56.1059 65.4756 56.8033C64.811 57.431 63.9413 57.7777 63.0284 57.7777C62.0397 57.7777 61.1207 57.3818 60.4418 56.6638C60.2407 56.4505 59.9679 56.3438 59.6972 56.3438C59.4448 56.3438 59.1905 56.4361 58.9915 56.6248C58.5792 57.0146 58.5628 57.6628 58.9525 58.0751C59.6069 58.7664 59.9515 59.671 59.9269 60.6207C59.9023 61.5705 59.5064 62.4566 58.77 63.152C58.1054 63.7797 57.2356 64.1264 56.3228 64.1264C55.3341 64.1264 54.4151 63.7305 53.7341 63.0125C53.533 62.7992 53.2602 62.6925 52.9895 62.6925C52.7372 62.6925 52.4828 62.7848 52.2838 62.9736C51.8715 63.3633 51.8551 64.0115 52.2448 64.4238C53.5946 65.8495 53.533 68.11 52.0623 69.5007C51.3977 70.1305 50.5279 70.4751 49.6151 70.4751C48.6264 70.4751 47.7074 70.0792 47.0264 69.3613C46.8254 69.1479 46.5525 69.0413 46.2818 69.0413C46.0295 69.0413 45.7751 69.1336 45.5761 69.3223C45.1638 69.712 45.1474 70.3602 45.5372 70.7725C46.1915 71.4638 46.5361 72.3684 46.5115 73.3182C46.4848 74.27 46.091 75.1541 45.3546 75.8495C44.69 76.4771 43.8202 76.8238 42.9074 76.8238C41.9187 76.8238 40.9997 76.4279 40.3187 75.71L38.69 73.991C38.5525 73.8454 38.4418 73.6854 38.3331 73.5233C38.3084 73.4884 38.2838 73.4536 38.2551 73.4228L12.0561 43.4207C11.9269 43.271 11.7546 43.1643 11.5659 43.1089L-1.43925 39.3941C-1.80027 39.2915 -2.05053 38.9592 -2.05053 38.5859V9.5151C-2.05053 9.05151 -1.67515 8.67408 -1.21361 8.67408ZM-1.21361 7.64844C-2.21463 7.64844 -3.07617 8.4628 -3.07617 9.5151V38.5838C-3.07617 39.4166 -2.52438 40.1489 -1.72233 40.3787L11.2828 44.0956L37.4797 74.0936C37.6192 74.3007 37.7648 74.5059 37.9413 74.6925L39.57 76.4136C40.4725 77.3674 41.6869 77.8474 42.9033 77.8474C44.0356 77.8474 45.1679 77.431 46.0561 76.592L46.0992 76.551C47.9392 74.8094 48.0192 71.9048 46.2777 70.0648C47.1802 71.0187 48.3946 71.4987 49.611 71.4987C50.7433 71.4987 51.8777 71.0823 52.7638 70.2433L52.8069 70.2023C54.6469 68.4607 54.7269 65.5561 52.9854 63.7161C53.8879 64.67 55.1023 65.15 56.3187 65.15C57.451 65.15 58.5854 64.7336 59.4715 63.8946L59.5146 63.8536C61.3546 62.112 61.4346 59.2074 59.693 57.3674C60.5956 58.3213 61.81 58.8013 63.0264 58.8013C64.1587 58.8013 65.2931 58.3848 66.1792 57.5459L66.2223 57.5048C68.0623 55.7633 68.1423 52.8607 66.4007 51.0207L65.0284 49.5705L65.0736 49.5274L40.8848 24.4977C42.1772 18.0341 42.5382 13.9397 42.5382 13.9397C42.5382 13.9397 36.2223 11.3038 29.2602 11.3038C26.5936 11.3038 23.8325 11.6895 21.2951 12.7602L-0.793096 7.69562C-0.934634 7.6628 -1.07412 7.64844 -1.21361 7.64844Z" fill="url(#paint2_linear_3321_3444)"/>
<path opacity="0.05" d="M40.8841 24.5031C42.1764 18.0395 42.5374 13.9452 42.5374 13.9452C42.5374 13.9452 39.8748 12.8457 36.1087 12.0703L17.5938 21.898C4.64613 28.4949 16.0964 46.3431 33.6451 37.4877L43.4215 32.5503C46.6523 35.2457 50.1764 37.0406 53.8502 37.9185L40.8841 24.5031Z" fill="#1689F4"/>
<path opacity="0.1" d="M40.8841 24.5058C42.1765 18.0422 42.5375 13.9479 42.5375 13.9479C42.5375 13.9479 40.437 13.0822 37.3334 12.3438L17.9713 22.6289C5.97133 28.7355 16.7734 45.0843 33.2739 36.7581C33.2739 36.7581 41.9159 32.393 43.557 31.5643C46.4841 34.1161 49.5918 35.833 52.7611 36.793L40.8841 24.5058Z" fill="#1689F4"/>
<path opacity="0.2" d="M40.8842 24.5052C42.1765 18.0416 42.5375 13.9473 42.5375 13.9473C42.5375 13.9473 40.9519 13.295 38.5088 12.6406L18.3509 23.3586C7.30062 28.975 17.4524 43.8263 32.9047 36.0273C32.9047 36.0273 40.4104 32.2365 43.6924 30.5791C46.2257 32.8786 48.8555 34.4704 51.4955 35.4899L40.8842 24.5052Z" fill="#1689F4"/>
<path opacity="0.3" d="M40.8844 24.4998C42.1768 18.0362 42.5378 13.9418 42.5378 13.9418C42.5378 13.9418 41.428 13.4844 39.6414 12.9531L18.7306 24.0813C8.62804 29.2054 18.1316 42.5593 32.5357 35.2895C32.5357 35.2895 38.907 32.0711 43.8301 29.5849C45.8588 31.4967 47.9265 32.8977 49.9839 33.9172L40.8844 24.4998Z" fill="#1689F4"/>
<path opacity="0.4" d="M40.8845 24.5051C42.1768 18.0415 42.5378 13.9471 42.5378 13.9471C42.5378 13.9471 41.865 13.6702 40.7306 13.2969L19.108 24.8128C9.95522 29.4466 18.8086 41.303 32.1645 34.5605C32.1645 34.5605 37.4014 31.9164 43.9655 28.6015C45.2947 29.8979 46.6342 30.9584 47.9655 31.8343L40.8845 24.5051Z" fill="#1689F4"/>
<path d="M19.4874 25.5389L42.7202 13.1553C42.7202 13.1553 53.0299 9.52862 61.5735 12.3655C65.871 13.7912 68.7182 17.8896 68.7182 22.4189V24.345C68.7182 29.865 64.2853 34.503 58.7653 34.4414C54.4946 34.3943 49.2987 32.8414 44.1028 27.6107C35.8976 31.7543 31.7951 33.8261 31.7951 33.8261C19.4874 40.0394 11.2823 29.6825 19.4874 25.5389Z" fill="url(#paint3_linear_3321_3444)"/>
<path opacity="0.05" d="M17.76 40.3672L11.3271 45.7559L35.0359 74.0615L41.6984 68.482C41.4605 66.9374 40.8348 65.4297 39.7456 64.1395C38.7733 62.9908 37.5487 62.1313 36.1764 61.6164C35.9261 61.5221 35.7477 61.3149 35.6964 61.0523C35.4174 59.639 34.7815 58.2728 33.7825 57.0892C32.8102 55.9405 31.5856 55.081 30.2133 54.5662C29.963 54.4718 29.7866 54.2646 29.7333 54.0021C29.4523 52.5887 28.8184 51.2226 27.8174 50.0369C26.8451 48.8882 25.6205 48.0287 24.2482 47.5139C23.9979 47.4195 23.8236 47.2144 23.7723 46.9538C23.4543 45.3415 22.6728 43.7908 21.4133 42.5005C20.3713 41.4359 19.1056 40.7549 17.76 40.3672Z" fill="#2496FF"/>
<path opacity="0.1" d="M22.7734 47.8763C22.6811 46.2537 22.1785 44.5122 20.878 43.1358C19.7683 41.9727 18.4206 41.2917 17.0155 40.9922L11.3252 45.7594L35.036 74.063L40.956 69.103C40.8185 67.5276 40.2236 65.9747 39.1201 64.6722C37.9324 63.2753 36.439 62.7932 35.1057 62.4547C34.8842 62.3994 34.7119 62.2024 34.7016 61.9768C34.636 60.5101 34.2544 58.9204 33.1631 57.6281C31.9754 56.223 30.478 55.743 29.1426 55.4045C28.9211 55.3491 28.7488 55.1522 28.7385 54.9265C28.6708 53.4599 28.2913 51.8701 27.2001 50.5778C26.0103 49.1727 24.5149 48.6906 23.1796 48.3522C22.958 48.2968 22.7878 48.1019 22.7734 47.8763Z" fill="#2496FF"/>
<path opacity="0.2" d="M21.7785 48.7997C21.9365 47.1279 21.6883 45.2366 20.3488 43.772C19.1385 42.4674 17.6698 41.8479 16.1929 41.6797L11.3252 45.7576L35.036 74.0633L40.1437 69.7843C40.1437 68.1658 39.6247 66.5371 38.4944 65.2038C37.0934 63.5587 35.3519 63.4458 34.0349 63.294C33.8462 63.2715 33.6842 63.0889 33.7047 62.9023C33.8749 61.3433 33.7252 59.5689 32.5437 58.1699C31.1406 56.5063 29.3908 56.3976 28.0719 56.2438C27.8852 56.2212 27.7211 56.0387 27.7416 55.852C27.9119 54.293 27.7621 52.5187 26.5785 51.1176C25.1714 49.4561 23.4257 49.3433 22.1067 49.1915C21.9201 49.1689 21.7601 48.9864 21.7785 48.7997Z" fill="#2496FF"/>
<path opacity="0.3" d="M21.036 50.0285C20.8842 50.0346 20.7426 49.8685 20.7816 49.7228C21.2411 47.9854 21.196 45.9587 19.8175 44.41C18.4698 42.9146 16.837 42.4059 15.2985 42.4305L11.3252 45.7577L35.036 74.0634L39.2944 70.4962C39.4831 68.8367 39.0339 67.1054 37.8708 65.7351C36.2544 63.8418 34.2811 64.0736 32.9662 64.1311C32.8144 64.1372 32.6708 63.971 32.7119 63.8234C33.1775 62.1557 33.2001 60.2131 31.9262 58.7054C30.3057 56.7854 28.3221 57.0193 27.0031 57.0787C26.8513 57.0849 26.7078 56.9187 26.7488 56.771C27.2124 55.1034 27.237 53.1608 25.9631 51.6531C24.3365 49.7372 22.3549 49.969 21.036 50.0285Z" fill="#2496FF"/>
<path opacity="0.4" d="M19.9672 50.8619C19.8503 50.8906 19.7355 50.7491 19.7867 50.6424C20.6462 48.8701 20.7057 46.6793 19.2883 45.0424C17.6944 43.2188 15.7642 43.0137 14.1888 43.3563L11.3252 45.7542L35.036 74.0598L38.2955 71.3296C38.796 69.6229 38.476 67.705 37.2452 66.2629C35.4154 64.1234 33.2062 64.6424 31.8955 64.9645C31.7785 64.9932 31.6616 64.8516 31.7149 64.7429C32.5724 63.0034 32.6708 60.8557 31.3047 59.2414C29.4688 57.065 27.2472 57.5901 25.9303 57.9142C25.8134 57.9429 25.6965 57.8014 25.7498 57.6927C26.6072 55.9532 26.7057 53.8055 25.3396 52.1911C23.5016 50.0147 21.2821 50.5378 19.9672 50.8619Z" fill="#2496FF"/>
<path d="M36.6525 66.8291L36.6135 66.7819C34.9766 64.8475 32.0822 64.6055 30.1479 66.2424C32.0822 64.6055 32.3243 61.7111 30.6873 59.7768L30.6484 59.7296C29.0114 57.7952 26.1171 57.5532 24.1827 59.1901C26.1171 57.5532 26.3591 54.6588 24.7222 52.7245L24.6832 52.6773C23.0463 50.7429 20.152 50.5009 18.2176 52.1378C20.152 50.5009 20.394 47.6065 18.7571 45.6722L18.7181 45.625C17.0812 43.6906 14.1868 43.4486 12.2525 45.0855L10.4453 46.6198C8.51093 48.2568 8.26888 51.1511 9.9058 53.0855L9.94478 53.1327C11.5817 55.067 14.4761 55.3091 16.4104 53.6722C14.4761 55.3091 14.234 58.2034 15.8709 60.1378L15.9099 60.185C17.5468 62.1193 20.4412 62.3614 22.3755 60.7245C20.4412 62.3614 20.1991 65.2557 21.8361 67.1901L21.875 67.2373C23.512 69.1716 26.4063 69.4137 28.3407 67.7768C26.4063 69.4137 26.1643 72.308 27.8012 74.2424L27.8402 74.2896C29.4771 76.2239 32.3714 76.466 34.3058 74.8291L36.115 73.2988C38.0473 71.6578 38.2873 68.7634 36.6525 66.8291Z" fill="#20BAFC"/>
<path d="M36.6525 66.8291L36.6135 66.7819C34.9766 64.8475 32.0822 64.6055 30.1479 66.2424C32.0822 64.6055 32.3243 61.7111 30.6873 59.7768L30.6484 59.7296C29.0114 57.7952 26.1171 57.5532 24.1827 59.1901C26.1171 57.5532 26.3591 54.6588 24.7222 52.7245L24.6832 52.6773C23.0463 50.7429 20.152 50.5009 18.2176 52.1378C20.152 50.5009 20.394 47.6065 18.7571 45.6722L18.7181 45.625C17.0812 43.6906 14.1868 43.4486 12.2525 45.0855L10.4453 46.6198C8.51093 48.2568 8.26888 51.1511 9.9058 53.0855L9.94478 53.1327C11.5817 55.067 14.4761 55.3091 16.4104 53.6722C14.4761 55.3091 14.234 58.2034 15.8709 60.1378L15.9099 60.185C17.5468 62.1193 20.4412 62.3614 22.3755 60.7245C20.4412 62.3614 20.1991 65.2557 21.8361 67.1901L21.875 67.2373C23.512 69.1716 26.4063 69.4137 28.3407 67.7768C26.4063 69.4137 26.1643 72.308 27.8012 74.2424L27.8402 74.2896C29.4771 76.2239 32.3714 76.466 34.3058 74.8291L36.115 73.2988C38.0473 71.6578 38.2873 68.7634 36.6525 66.8291Z" fill="url(#paint4_linear_3321_3444)"/>
</g>
<defs>
<linearGradient id="paint0_linear_3321_3444" x1="23.6938" y1="93.7969" x2="171.82" y2="30.819" gradientUnits="userSpaceOnUse">
<stop stop-color="#2494FC"/>
<stop offset="0.311" stop-color="#19C6FD"/>
<stop offset="1" stop-color="#0176FF"/>
</linearGradient>
<linearGradient id="paint1_linear_3321_3444" x1="34.5348" y1="56.1107" x2="-5.92776" y2="5.77241" gradientUnits="userSpaceOnUse">
<stop stop-color="#DAA6FF" stop-opacity="0.6"/>
<stop offset="1" stop-color="#F4E9FF" stop-opacity="0.5"/>
</linearGradient>
<linearGradient id="paint2_linear_3321_3444" x1="-3.07617" y1="42.7479" x2="67.6561" y2="42.7479" gradientUnits="userSpaceOnUse">
<stop stop-color="#FF9A83" stop-opacity="0.4"/>
<stop offset="1" stop-color="#FFFFF0" stop-opacity="0.2"/>
</linearGradient>
<linearGradient id="paint3_linear_3321_3444" x1="25.2392" y1="43.0589" x2="100.156" y2="-20.0386" gradientUnits="userSpaceOnUse">
<stop stop-color="#2494FC"/>
<stop offset="0.311" stop-color="#19C6FD"/>
<stop offset="1" stop-color="#0176FF"/>
</linearGradient>
<linearGradient id="paint4_linear_3321_3444" x1="13.8044" y1="85.4247" x2="76.38" y2="63.1703" gradientUnits="userSpaceOnUse">
<stop stop-color="#2494FC"/>
<stop offset="0.311" stop-color="#19C6FD"/>
<stop offset="1" stop-color="#0176FF"/>
</linearGradient>
<clipPath id="clip0_3321_3444">
<rect width="80" height="80" fill="white"/>
</clipPath>
</defs>
</svg>
