<svg width="27" height="28" viewBox="0 0 27 28" fill="none" xmlns="http://www.w3.org/2000/svg">
<g clip-path="url(#clip0_2565_7713)">
<path d="M22.6164 25.1797H6.63356C6.07669 25.1797 5.625 24.728 5.625 24.1711V4.81325C5.625 4.25638 6.07669 3.80469 6.63356 3.80469H22.6159C23.1733 3.80469 23.625 4.25638 23.625 4.81325V24.1706C23.625 24.728 23.1733 25.1797 22.6164 25.1797Z" fill="url(#paint0_linear_2565_7713)"/>
<path opacity="0.05" d="M5.625 9.99219H7.3125C8.55338 9.99219 9.5625 8.98306 9.5625 7.74219C9.5625 6.50131 8.55338 5.49219 7.3125 5.49219H5.625V9.99219Z" fill="#AA57FF"/>
<path opacity="0.1" d="M5.625 9.76875H7.3125C8.42906 9.76875 9.3375 8.86031 9.3375 7.74375C9.3375 6.62719 8.42906 5.71875 7.3125 5.71875H5.625V9.76875Z" fill="#AA57FF"/>
<path opacity="0.2" d="M5.625 9.54531H7.3125C8.30475 9.54531 9.1125 8.73756 9.1125 7.74531C9.1125 6.75306 8.30475 5.94531 7.3125 5.94531H5.625V9.54531Z" fill="#AA57FF"/>
<path opacity="0.3" d="M5.625 9.31406H7.3125C8.17988 9.31406 8.8875 8.60644 8.8875 7.73906C8.8875 6.87169 8.17988 6.16406 7.3125 6.16406H5.625V9.31406Z" fill="#AA57FF"/>
<path opacity="0.4" d="M5.625 9.09062H7.3125C8.05556 9.09062 8.6625 8.48369 8.6625 7.74062C8.6625 6.99756 8.05556 6.39062 7.3125 6.39062H5.625V9.09062Z" fill="#AA57FF"/>
<path opacity="0.4" d="M7.3125 8.86719C7.93125 8.86719 8.4375 8.36094 8.4375 7.74219C8.4375 7.12344 7.93125 6.61719 7.3125 6.61719H5.20312V8.86719H7.3125Z" fill="#B26AFF"/>
<path opacity="0.3" d="M7.3125 8.86719C7.93125 8.86719 8.4375 8.36094 8.4375 7.74219C8.4375 7.12344 7.93125 6.61719 7.3125 6.61719H4.78125V8.86719H7.3125Z" fill="#B26AFF"/>
<path opacity="0.2" d="M7.3125 8.86719C7.93125 8.86719 8.4375 8.36094 8.4375 7.74219C8.4375 7.12344 7.93125 6.61719 7.3125 6.61719H4.35938V8.86719H7.3125Z" fill="#B26AFF"/>
<path opacity="0.1" d="M7.3125 8.86719C7.93125 8.86719 8.4375 8.36094 8.4375 7.74219C8.4375 7.12344 7.93125 6.61719 7.3125 6.61719H3.9375V8.86719H7.3125Z" fill="#B26AFF"/>
<path d="M5.625 8.86719H7.3125C7.93125 8.86719 8.4375 8.36094 8.4375 7.74219C8.4375 7.12344 7.93125 6.61719 7.3125 6.61719H5.625V8.86719Z" fill="#B26AFF"/>
<path d="M2.8125 7.74219C2.8125 8.36094 3.31875 8.86719 3.9375 8.86719H7.3125C7.93125 8.86719 8.4375 8.36094 8.4375 7.74219C8.4375 7.12344 7.93125 6.61719 7.3125 6.61719H3.9375C3.31875 6.61719 2.8125 7.12344 2.8125 7.74219Z" fill="url(#paint1_linear_2565_7713)"/>
<path d="M2.8125 7.74219C2.8125 8.36094 3.31875 8.86719 3.9375 8.86719H7.3125C7.93125 8.86719 8.4375 8.36094 8.4375 7.74219C8.4375 7.12344 7.93125 6.61719 7.3125 6.61719H3.9375C3.31875 6.61719 2.8125 7.12344 2.8125 7.74219ZM7.3125 6.89844C7.77769 6.89844 8.15625 7.277 8.15625 7.74219C8.15625 8.20738 7.77769 8.58594 7.3125 8.58594H3.9375C3.47231 8.58594 3.09375 8.20738 3.09375 7.74219C3.09375 7.277 3.47231 6.89844 3.9375 6.89844H7.3125Z" fill="url(#paint2_linear_2565_7713)"/>
<path opacity="0.05" d="M5.625 14.4922H7.3125C8.55338 14.4922 9.5625 13.4831 9.5625 12.2422C9.5625 11.0013 8.55338 9.99219 7.3125 9.99219H5.625V14.4922Z" fill="#AA57FF"/>
<path opacity="0.1" d="M5.625 14.2688H7.3125C8.42906 14.2688 9.3375 13.3603 9.3375 12.2438C9.3375 11.1272 8.42906 10.2188 7.3125 10.2188H5.625V14.2688Z" fill="#AA57FF"/>
<path opacity="0.2" d="M5.625 14.0453H7.3125C8.30475 14.0453 9.1125 13.2376 9.1125 12.2453C9.1125 11.2531 8.30475 10.4453 7.3125 10.4453H5.625V14.0453Z" fill="#AA57FF"/>
<path opacity="0.3" d="M5.625 13.8141H7.3125C8.17988 13.8141 8.8875 13.1064 8.8875 12.2391C8.8875 11.3717 8.17988 10.6641 7.3125 10.6641H5.625V13.8141Z" fill="#AA57FF"/>
<path opacity="0.4" d="M5.625 13.5906H7.3125C8.05556 13.5906 8.6625 12.9837 8.6625 12.2406C8.6625 11.4976 8.05556 10.8906 7.3125 10.8906H5.625V13.5906Z" fill="#AA57FF"/>
<path opacity="0.4" d="M7.3125 13.3672C7.93125 13.3672 8.4375 12.8609 8.4375 12.2422C8.4375 11.6234 7.93125 11.1172 7.3125 11.1172H5.20312V13.3672H7.3125Z" fill="#B26AFF"/>
<path opacity="0.3" d="M7.3125 13.3672C7.93125 13.3672 8.4375 12.8609 8.4375 12.2422C8.4375 11.6234 7.93125 11.1172 7.3125 11.1172H4.78125V13.3672H7.3125Z" fill="#B26AFF"/>
<path opacity="0.2" d="M7.3125 13.3672C7.93125 13.3672 8.4375 12.8609 8.4375 12.2422C8.4375 11.6234 7.93125 11.1172 7.3125 11.1172H4.35938V13.3672H7.3125Z" fill="#B26AFF"/>
<path opacity="0.1" d="M7.3125 13.3672C7.93125 13.3672 8.4375 12.8609 8.4375 12.2422C8.4375 11.6234 7.93125 11.1172 7.3125 11.1172H3.9375V13.3672H7.3125Z" fill="#B26AFF"/>
<path d="M5.625 13.3672H7.3125C7.93125 13.3672 8.4375 12.8609 8.4375 12.2422C8.4375 11.6234 7.93125 11.1172 7.3125 11.1172H5.625V13.3672Z" fill="#B26AFF"/>
<path d="M2.8125 12.2422C2.8125 12.8609 3.31875 13.3672 3.9375 13.3672H7.3125C7.93125 13.3672 8.4375 12.8609 8.4375 12.2422C8.4375 11.6234 7.93125 11.1172 7.3125 11.1172H3.9375C3.31875 11.1172 2.8125 11.6234 2.8125 12.2422Z" fill="url(#paint3_linear_2565_7713)"/>
<path d="M2.8125 12.2422C2.8125 12.8609 3.31875 13.3672 3.9375 13.3672H7.3125C7.93125 13.3672 8.4375 12.8609 8.4375 12.2422C8.4375 11.6234 7.93125 11.1172 7.3125 11.1172H3.9375C3.31875 11.1172 2.8125 11.6234 2.8125 12.2422ZM7.3125 11.3984C7.77769 11.3984 8.15625 11.777 8.15625 12.2422C8.15625 12.7074 7.77769 13.0859 7.3125 13.0859H3.9375C3.47231 13.0859 3.09375 12.7074 3.09375 12.2422C3.09375 11.777 3.47231 11.3984 3.9375 11.3984H7.3125Z" fill="url(#paint4_linear_2565_7713)"/>
<path opacity="0.05" d="M5.625 18.9922H7.3125C8.55338 18.9922 9.5625 17.9831 9.5625 16.7422C9.5625 15.5013 8.55338 14.4922 7.3125 14.4922H5.625V18.9922Z" fill="#AA57FF"/>
<path opacity="0.1" d="M5.625 18.7687H7.3125C8.42906 18.7687 9.3375 17.8603 9.3375 16.7438C9.3375 15.6272 8.42906 14.7188 7.3125 14.7188H5.625V18.7687Z" fill="#AA57FF"/>
<path opacity="0.2" d="M5.625 18.5453H7.3125C8.30475 18.5453 9.1125 17.7376 9.1125 16.7453C9.1125 15.7531 8.30475 14.9453 7.3125 14.9453H5.625V18.5453Z" fill="#AA57FF"/>
<path opacity="0.3" d="M5.625 18.3141H7.3125C8.17988 18.3141 8.8875 17.6064 8.8875 16.7391C8.8875 15.8717 8.17988 15.1641 7.3125 15.1641H5.625V18.3141Z" fill="#AA57FF"/>
<path opacity="0.4" d="M5.625 18.0906H7.3125C8.05556 18.0906 8.6625 17.4837 8.6625 16.7406C8.6625 15.9976 8.05556 15.3906 7.3125 15.3906H5.625V18.0906Z" fill="#AA57FF"/>
<path opacity="0.4" d="M7.3125 17.8672C7.93125 17.8672 8.4375 17.3609 8.4375 16.7422C8.4375 16.1234 7.93125 15.6172 7.3125 15.6172H5.20312V17.8672H7.3125Z" fill="#B26AFF"/>
<path opacity="0.3" d="M7.3125 17.8672C7.93125 17.8672 8.4375 17.3609 8.4375 16.7422C8.4375 16.1234 7.93125 15.6172 7.3125 15.6172H4.78125V17.8672H7.3125Z" fill="#B26AFF"/>
<path opacity="0.2" d="M7.3125 17.8672C7.93125 17.8672 8.4375 17.3609 8.4375 16.7422C8.4375 16.1234 7.93125 15.6172 7.3125 15.6172H4.35938V17.8672H7.3125Z" fill="#B26AFF"/>
<path opacity="0.1" d="M7.3125 17.8672C7.93125 17.8672 8.4375 17.3609 8.4375 16.7422C8.4375 16.1234 7.93125 15.6172 7.3125 15.6172H3.9375V17.8672H7.3125Z" fill="#B26AFF"/>
<path d="M5.625 17.8672H7.3125C7.93125 17.8672 8.4375 17.3609 8.4375 16.7422C8.4375 16.1234 7.93125 15.6172 7.3125 15.6172H5.625V17.8672Z" fill="#B26AFF"/>
<path d="M2.8125 16.7422C2.8125 17.3609 3.31875 17.8672 3.9375 17.8672H7.3125C7.93125 17.8672 8.4375 17.3609 8.4375 16.7422C8.4375 16.1234 7.93125 15.6172 7.3125 15.6172H3.9375C3.31875 15.6172 2.8125 16.1234 2.8125 16.7422Z" fill="url(#paint5_linear_2565_7713)"/>
<path d="M2.8125 16.7422C2.8125 17.3609 3.31875 17.8672 3.9375 17.8672H7.3125C7.93125 17.8672 8.4375 17.3609 8.4375 16.7422C8.4375 16.1234 7.93125 15.6172 7.3125 15.6172H3.9375C3.31875 15.6172 2.8125 16.1234 2.8125 16.7422ZM7.3125 15.8984C7.77769 15.8984 8.15625 16.277 8.15625 16.7422C8.15625 17.2074 7.77769 17.5859 7.3125 17.5859H3.9375C3.47231 17.5859 3.09375 17.2074 3.09375 16.7422C3.09375 16.277 3.47231 15.8984 3.9375 15.8984H7.3125Z" fill="url(#paint6_linear_2565_7713)"/>
<path opacity="0.05" d="M5.625 23.4922H7.3125C8.55338 23.4922 9.5625 22.4831 9.5625 21.2422C9.5625 20.0013 8.55338 18.9922 7.3125 18.9922H5.625V23.4922Z" fill="#AA57FF"/>
<path opacity="0.1" d="M5.625 23.2687H7.3125C8.42906 23.2687 9.3375 22.3603 9.3375 21.2437C9.3375 20.1272 8.42906 19.2188 7.3125 19.2188H5.625V23.2687Z" fill="#AA57FF"/>
<path opacity="0.2" d="M5.625 23.0453H7.3125C8.30475 23.0453 9.1125 22.2376 9.1125 21.2453C9.1125 20.2531 8.30475 19.4453 7.3125 19.4453H5.625V23.0453Z" fill="#AA57FF"/>
<path opacity="0.3" d="M5.625 22.8141H7.3125C8.17988 22.8141 8.8875 22.1064 8.8875 21.2391C8.8875 20.3717 8.17988 19.6641 7.3125 19.6641H5.625V22.8141Z" fill="#AA57FF"/>
<path opacity="0.4" d="M5.625 22.5906H7.3125C8.05556 22.5906 8.6625 21.9837 8.6625 21.2406C8.6625 20.4976 8.05556 19.8906 7.3125 19.8906H5.625V22.5906Z" fill="#AA57FF"/>
<path opacity="0.4" d="M7.3125 22.3672C7.93125 22.3672 8.4375 21.8609 8.4375 21.2422C8.4375 20.6234 7.93125 20.1172 7.3125 20.1172H5.20312V22.3672H7.3125Z" fill="#B26AFF"/>
<path opacity="0.3" d="M7.3125 22.3672C7.93125 22.3672 8.4375 21.8609 8.4375 21.2422C8.4375 20.6234 7.93125 20.1172 7.3125 20.1172H4.78125V22.3672H7.3125Z" fill="#B26AFF"/>
<path opacity="0.2" d="M7.3125 22.3672C7.93125 22.3672 8.4375 21.8609 8.4375 21.2422C8.4375 20.6234 7.93125 20.1172 7.3125 20.1172H4.35938V22.3672H7.3125Z" fill="#B26AFF"/>
<path opacity="0.1" d="M7.3125 22.3672C7.93125 22.3672 8.4375 21.8609 8.4375 21.2422C8.4375 20.6234 7.93125 20.1172 7.3125 20.1172H3.9375V22.3672H7.3125Z" fill="#B26AFF"/>
<path d="M5.625 22.3672H7.3125C7.93125 22.3672 8.4375 21.8609 8.4375 21.2422C8.4375 20.6234 7.93125 20.1172 7.3125 20.1172H5.625V22.3672Z" fill="#B26AFF"/>
<path d="M2.8125 21.2422C2.8125 21.8609 3.31875 22.3672 3.9375 22.3672H7.3125C7.93125 22.3672 8.4375 21.8609 8.4375 21.2422C8.4375 20.6234 7.93125 20.1172 7.3125 20.1172H3.9375C3.31875 20.1172 2.8125 20.6234 2.8125 21.2422Z" fill="url(#paint7_linear_2565_7713)"/>
<path d="M2.8125 21.2422C2.8125 21.8609 3.31875 22.3672 3.9375 22.3672H7.3125C7.93125 22.3672 8.4375 21.8609 8.4375 21.2422C8.4375 20.6234 7.93125 20.1172 7.3125 20.1172H3.9375C3.31875 20.1172 2.8125 20.6234 2.8125 21.2422ZM7.3125 20.3984C7.77769 20.3984 8.15625 20.777 8.15625 21.2422C8.15625 21.7074 7.77769 22.0859 7.3125 22.0859H3.9375C3.47231 22.0859 3.09375 21.7074 3.09375 21.2422C3.09375 20.777 3.47231 20.3984 3.9375 20.3984H7.3125Z" fill="url(#paint8_linear_2565_7713)"/>
<path d="M19.0789 16.7422H11.2961C10.9598 16.7422 10.6875 16.4699 10.6875 16.1336V10.6002C10.6875 10.2644 10.9598 9.99219 11.2961 9.99219H19.0794C19.4152 9.99219 19.6875 10.2644 19.6875 10.6008V16.1341C19.6875 16.4699 19.4152 16.7422 19.0789 16.7422Z" fill="#BB7FFF"/>
</g>
<defs>
<linearGradient id="paint0_linear_2565_7713" x1="22.7813" y1="14.4922" x2="0.233438" y2="14.4922" gradientUnits="userSpaceOnUse">
<stop stop-color="#962AFF"/>
<stop offset="0.781" stop-color="#BE85FF"/>
<stop offset="1" stop-color="#C99FFF"/>
</linearGradient>
<linearGradient id="paint1_linear_2565_7713" x1="7.92619" y1="7.74219" x2="2.35912" y2="7.74219" gradientUnits="userSpaceOnUse">
<stop stop-color="#4EAEFE" stop-opacity="0.2"/>
<stop offset="1" stop-color="#41A2FE" stop-opacity="0.4"/>
</linearGradient>
<linearGradient id="paint2_linear_2565_7713" x1="2.87381" y1="7.74219" x2="11.1999" y2="7.74219" gradientUnits="userSpaceOnUse">
<stop stop-color="#71B5FF" stop-opacity="0.4"/>
<stop offset="1" stop-color="white" stop-opacity="0.2"/>
</linearGradient>
<linearGradient id="paint3_linear_2565_7713" x1="7.92619" y1="12.2422" x2="2.35912" y2="12.2422" gradientUnits="userSpaceOnUse">
<stop stop-color="#4EAEFE" stop-opacity="0.2"/>
<stop offset="1" stop-color="#41A2FE" stop-opacity="0.4"/>
</linearGradient>
<linearGradient id="paint4_linear_2565_7713" x1="2.87381" y1="12.2422" x2="11.1999" y2="12.2422" gradientUnits="userSpaceOnUse">
<stop stop-color="#71B5FF" stop-opacity="0.4"/>
<stop offset="1" stop-color="white" stop-opacity="0.2"/>
</linearGradient>
<linearGradient id="paint5_linear_2565_7713" x1="7.92619" y1="16.7422" x2="2.35912" y2="16.7422" gradientUnits="userSpaceOnUse">
<stop stop-color="#4EAEFE" stop-opacity="0.2"/>
<stop offset="1" stop-color="#41A2FE" stop-opacity="0.4"/>
</linearGradient>
<linearGradient id="paint6_linear_2565_7713" x1="2.87381" y1="16.7422" x2="11.1999" y2="16.7422" gradientUnits="userSpaceOnUse">
<stop stop-color="#71B5FF" stop-opacity="0.4"/>
<stop offset="1" stop-color="white" stop-opacity="0.2"/>
</linearGradient>
<linearGradient id="paint7_linear_2565_7713" x1="7.92619" y1="21.2422" x2="2.35912" y2="21.2422" gradientUnits="userSpaceOnUse">
<stop stop-color="#4EAEFE" stop-opacity="0.2"/>
<stop offset="1" stop-color="#41A2FE" stop-opacity="0.4"/>
</linearGradient>
<linearGradient id="paint8_linear_2565_7713" x1="2.87381" y1="21.2422" x2="11.1999" y2="21.2422" gradientUnits="userSpaceOnUse">
<stop stop-color="#71B5FF" stop-opacity="0.4"/>
<stop offset="1" stop-color="white" stop-opacity="0.2"/>
</linearGradient>
<clipPath id="clip0_2565_7713">
<rect width="27" height="27" fill="white" transform="translate(0 0.429688)"/>
</clipPath>
</defs>
</svg>
