<svg width="50" height="50" viewBox="0 0 50 50" fill="none" xmlns="http://www.w3.org/2000/svg">
<path opacity="0.1" d="M22.8813 30.474C22.7501 30.6052 22.6563 30.7688 22.6105 30.9479L21.048 36.9375C20.847 37.7073 21.549 38.4094 22.3188 38.2083L28.3084 36.6458C28.4876 36.599 28.6511 36.5052 28.7824 36.375L38.5428 26.6146V14.8125L22.8813 30.474Z" fill="#2E8EFE"/>
<path opacity="0.2" d="M22.8813 30.474C22.7501 30.6052 22.6563 30.7688 22.6105 30.9479L21.048 36.9375C20.847 37.7073 21.549 38.4094 22.3188 38.2083L28.3084 36.6458C28.4876 36.599 28.6511 36.5052 28.7824 36.375L37.7615 27.3958V15.5938L22.8813 30.474Z" fill="#2E8EFE"/>
<path opacity="0.3" d="M22.8813 30.474C22.7501 30.6052 22.6563 30.7688 22.6105 30.9479L21.048 36.9375C20.847 37.7073 21.549 38.4094 22.3188 38.2083L28.3084 36.6458C28.4876 36.599 28.6511 36.5052 28.7824 36.375L36.9803 28.1771V16.375L22.8813 30.474Z" fill="#2E8EFE"/>
<path opacity="0.4" d="M22.8813 30.474C22.7501 30.6052 22.6563 30.7688 22.6105 30.9479L21.048 36.9375C20.847 37.7073 21.549 38.4094 22.3188 38.2083L28.3084 36.6458C28.4876 36.599 28.6511 36.5052 28.7824 36.375L36.199 28.9583V17.1562L22.8813 30.474Z" fill="#2E8EFE"/>
<path d="M33.3334 44.7891H6.25008C5.09904 44.7891 4.16675 43.8568 4.16675 42.7057V9.3724C4.16675 8.22135 5.09904 7.28906 6.25008 7.28906H33.3334C34.4845 7.28906 35.4167 8.22135 35.4167 9.3724V42.7057C35.4167 43.8568 34.4845 44.7891 33.3334 44.7891Z" fill="url(#paint0_linear_2400_43142)"/>
<path d="M17.1874 38.5391H9.89575C9.03325 38.5391 8.33325 37.8391 8.33325 36.9766C8.33325 36.1141 9.03325 35.4141 9.89575 35.4141H17.1874C18.0499 35.4141 18.7499 36.1141 18.7499 36.9766C18.7499 37.8391 18.0499 38.5391 17.1874 38.5391ZM31.2499 29.6849C31.2499 28.8224 30.5499 28.1224 29.6874 28.1224H9.89575C9.03325 28.1224 8.33325 28.8224 8.33325 29.6849C8.33325 30.5474 9.03325 31.2474 9.89575 31.2474H29.6874C30.5499 31.2474 31.2499 30.5474 31.2499 29.6849ZM31.2499 22.3932C31.2499 21.5307 30.5499 20.8307 29.6874 20.8307H9.89575C9.03325 20.8307 8.33325 21.5307 8.33325 22.3932C8.33325 23.2557 9.03325 23.9557 9.89575 23.9557H29.6874C30.5499 23.9557 31.2499 23.2557 31.2499 22.3932ZM31.2499 15.1016C31.2499 14.2391 30.5499 13.5391 29.6874 13.5391H9.89575C9.03325 13.5391 8.33325 14.2391 8.33325 15.1016C8.33325 15.9641 9.03325 16.6641 9.89575 16.6641H29.6874C30.5499 16.6641 31.2499 15.9641 31.2499 15.1016Z" fill="url(#paint1_linear_2400_43142)"/>
<g opacity="0.5">
<path d="M29.6875 23.962C30.55 23.962 31.25 23.262 31.25 22.3995C31.25 22.3078 31.2386 22.2193 31.223 22.1328L29.3938 23.962H29.6875Z" fill="#0A75CC"/>
<path d="M31.2501 29.6875C31.2501 28.825 30.5501 28.125 29.6876 28.125H25.2271L22.8813 30.4708C22.7501 30.6021 22.6563 30.7656 22.6105 30.9448L22.5303 31.25H29.6876C30.5501 31.25 31.2501 30.55 31.2501 29.6875Z" fill="#0A75CC"/>
</g>
<path opacity="0.05" d="M35.4166 14.9922L21.4082 29.0005C21.0155 29.3922 20.7353 29.8839 20.5936 30.4214L19.0311 36.412C18.4291 38.7318 20.5416 40.8224 22.8436 40.2245L28.8353 38.6609C29.3728 38.5203 29.8634 38.2401 30.2551 37.8474L35.4166 32.6849V14.9922Z" fill="#2E8EFE"/>
<path opacity="0.1" d="M35.4166 15.5781L21.7031 29.2927C21.3625 29.6323 21.1197 30.0583 20.9968 30.524L19.4343 36.5146C18.9125 38.525 20.7427 40.3375 22.7385 39.8188L28.7302 38.2552C29.1958 38.1333 29.6218 37.8906 29.9614 37.55L35.4166 32.0937V15.5781Z" fill="#2E8EFE"/>
<path opacity="0.15" d="M35.4167 16.1641L21.9969 29.5839C21.7094 29.8714 21.5031 30.2318 21.4 30.6255L19.8375 36.6161C19.3958 38.3161 20.9438 39.8505 22.6333 39.412L28.624 37.8484C29.0177 37.7453 29.3781 37.5391 29.6656 37.2516L35.4167 31.5005V16.1641Z" fill="#2E8EFE"/>
<path opacity="0.2" d="M35.4167 16.7578L22.2917 29.8828C22.0563 30.1182 21.8876 30.413 21.8032 30.7359L20.2407 36.7266C19.8792 38.1161 21.1449 39.3734 22.5282 39.0141L28.5188 37.4516C28.8407 37.3672 29.1355 37.1984 29.3709 36.963L35.4167 30.9161V16.7578Z" fill="#2E8EFE"/>
<path opacity="0.25" d="M35.4168 17.3438L22.5865 30.174C22.4032 30.3573 22.272 30.5865 22.2063 30.8375L20.6438 36.8271C20.3626 37.9073 21.347 38.8865 22.423 38.6062L28.4136 37.0437C28.6647 36.9781 28.8938 36.8469 29.0761 36.6635L35.4168 30.324V17.3438Z" fill="#2E8EFE"/>
<path opacity="0.5" d="M35.4167 17.9375L22.8813 30.474C22.7501 30.6052 22.6563 30.7688 22.6105 30.9479L21.048 36.9375C20.847 37.7073 21.549 38.4094 22.3188 38.2083L28.3084 36.6458C28.4876 36.599 28.6511 36.5052 28.7824 36.375L35.4178 29.7396L35.4167 17.9375Z" fill="#2E8EFE"/>
<path d="M49.2103 15.9398L28.7812 36.3701C28.6499 36.5013 28.4864 36.5951 28.3072 36.6419L22.3176 38.2044C21.5478 38.4055 20.8457 37.7034 21.0468 36.9336L22.6093 30.944C22.6562 30.7648 22.7499 30.6013 22.8801 30.4701L43.3093 10.0398C44.1228 9.2263 45.4416 9.2263 46.2551 10.0398L49.2093 12.994C50.0239 13.8076 50.0239 15.1263 49.2103 15.9398Z" fill="url(#paint2_linear_2400_43142)"/>
<path d="M44.7833 9.95052C45.2011 9.95052 45.5927 10.113 45.8886 10.4078L48.8427 13.362C49.1375 13.6568 49.3 14.0495 49.3 14.4672C49.3 14.8849 49.1375 15.2766 48.8427 15.5724L28.4136 36.0016C28.3479 36.0672 28.2667 36.1141 28.1771 36.137L22.1875 37.6995C22.1417 37.7109 22.0958 37.7172 22.0511 37.7172C21.8917 37.7172 21.7427 37.6422 21.6417 37.512C21.5844 37.437 21.4948 37.2797 21.5511 37.0641L23.1136 31.0745C23.1365 30.9849 23.1833 30.9026 23.249 30.838L43.6781 10.4089C43.9729 10.113 44.3656 9.95052 44.7833 9.95052ZM44.7823 9.42969C44.249 9.42969 43.7156 9.63281 43.3094 10.0401L22.8813 30.4693C22.75 30.6005 22.6563 30.7641 22.6104 30.9432L21.0479 36.9328C20.8708 37.612 21.3958 38.238 22.0511 38.238C22.1386 38.238 22.2281 38.2266 22.3188 38.2036L28.3083 36.6411C28.4875 36.5943 28.6511 36.5005 28.7823 36.3693L49.2115 15.9401C50.025 15.1266 50.025 13.8078 49.2115 12.9943L46.2563 10.0401C45.849 9.63281 45.3156 9.42969 44.7823 9.42969Z" fill="url(#paint3_linear_2400_43142)"/>
<defs>
<linearGradient id="paint0_linear_2400_43142" x1="19.7917" y1="44.8297" x2="19.7917" y2="9.65677" gradientUnits="userSpaceOnUse">
<stop stop-color="#009CFC"/>
<stop offset="0.12" stop-color="#18ABFC"/>
<stop offset="0.416" stop-color="#4ECCFE"/>
<stop offset="0.672" stop-color="#76E4FE"/>
<stop offset="0.875" stop-color="#8EF3FF"/>
<stop offset="1" stop-color="#97F8FF"/>
</linearGradient>
<linearGradient id="paint1_linear_2400_43142" x1="19.7916" y1="41.3922" x2="19.7916" y2="-14.4547" gradientUnits="userSpaceOnUse">
<stop stop-color="#009CFC"/>
<stop offset="0.12" stop-color="#18ABFC"/>
<stop offset="0.416" stop-color="#4ECCFE"/>
<stop offset="0.672" stop-color="#76E4FE"/>
<stop offset="0.875" stop-color="#8EF3FF"/>
<stop offset="1" stop-color="#97F8FF"/>
</linearGradient>
<linearGradient id="paint2_linear_2400_43142" x1="45.6062" y1="13.6451" x2="25.2353" y2="34.0159" gradientUnits="userSpaceOnUse">
<stop stop-color="#DAA6FF" stop-opacity="0.6"/>
<stop offset="1" stop-color="#F4E9FF" stop-opacity="0.5"/>
</linearGradient>
<linearGradient id="paint3_linear_2400_43142" x1="21.3188" y1="37.9328" x2="47.7333" y2="11.5172" gradientUnits="userSpaceOnUse">
<stop stop-color="#F7EEFF" stop-opacity="0.2"/>
<stop offset="1" stop-color="#DAA6FF" stop-opacity="0.6"/>
</linearGradient>
</defs>
</svg>
