<svg width="50" height="50" viewBox="0 0 50 50" fill="none" xmlns="http://www.w3.org/2000/svg">
<path opacity="0.1" d="M19.7916 13.5391H11.4583V36.4557H19.7916V13.5391Z" fill="#146CED"/>
<path opacity="0.2" d="M20.5728 13.5391H12.2395V36.4557H20.5728V13.5391Z" fill="#146CED"/>
<path opacity="0.3" d="M21.3541 13.5391H13.0208V36.4557H21.3541V13.5391Z" fill="#146CED"/>
<path opacity="0.4" d="M22.1353 13.5391H13.802V36.4557H22.1353V13.5391Z" fill="#146CED"/>
<path d="M43.9655 43.75H16.451C15.4197 43.75 14.5833 42.9135 14.5833 41.8823V8.11771C14.5833 7.08646 15.4197 6.25 16.451 6.25H43.9645C44.9968 6.25 45.8333 7.08646 45.8333 8.11771V41.8812C45.8333 42.9135 44.9968 43.75 43.9655 43.75Z" fill="url(#paint0_linear_2400_42594)"/>
<path opacity="0.3" d="M45.8333 14.5859H14.5833V16.6693H45.8333V14.5859Z" fill="#118BEF"/>
<path opacity="0.3" d="M45.8333 23.9609H14.5833V26.0443H45.8333V23.9609Z" fill="#118BEF"/>
<path opacity="0.3" d="M45.8333 33.3359H14.5833V35.4193H45.8333V33.3359Z" fill="#118BEF"/>
<path d="M24.1155 13.5391H14.5833V36.4557H24.1155C25.1791 36.4557 26.0416 35.5932 26.0416 34.5297V15.4651C26.0416 14.4016 25.1791 13.5391 24.1155 13.5391Z" fill="#118BEF"/>
<path opacity="0.05" d="M24.1155 11.4609H14.5833V38.5443H24.1155C26.326 38.5443 28.1249 36.7453 28.1249 34.5349V15.4703C28.1249 13.2599 26.326 11.4609 24.1155 11.4609Z" fill="#118BEF"/>
<path opacity="0.1" d="M24.1155 11.875H14.5833V38.125H24.1155C26.0968 38.125 27.7083 36.5135 27.7083 34.5323V15.4677C27.7083 13.4865 26.0968 11.875 24.1155 11.875Z" fill="#118BEF"/>
<path opacity="0.2" d="M24.1155 12.2891H14.5833V37.7057H24.1155C25.8676 37.7057 27.2916 36.2818 27.2916 34.5297V15.4651C27.2916 13.713 25.8676 12.2891 24.1155 12.2891Z" fill="#118BEF"/>
<path opacity="0.3" d="M24.1155 12.7109H14.5833V37.2943H24.1155C25.6385 37.2943 26.8749 36.0568 26.8749 34.5349V15.4703C26.8749 13.9484 25.6374 12.7109 24.1155 12.7109Z" fill="#118BEF"/>
<path opacity="0.4" d="M24.1155 13.125H14.5833V36.875H24.1155C25.4083 36.875 26.4583 35.825 26.4583 34.5323V15.4677C26.4583 14.175 25.4083 13.125 24.1155 13.125Z" fill="#118BEF"/>
<path d="M24.1156 36.4557H5.05104C3.9875 36.4557 3.125 35.5932 3.125 34.5297V15.4651C3.125 14.4016 3.9875 13.5391 5.05104 13.5391H24.1156C25.1792 13.5391 26.0417 14.4016 26.0417 15.4651V34.5297C26.0417 35.5932 25.1792 36.4557 24.1156 36.4557Z" fill="url(#paint1_linear_2400_42594)"/>
<path d="M24.1156 14.0599C24.8906 14.0599 25.5208 14.6901 25.5208 15.4651V34.5297C25.5208 35.3047 24.8906 35.9349 24.1156 35.9349H5.05104C4.27604 35.9349 3.64583 35.3047 3.64583 34.5297V15.4651C3.64583 14.6901 4.27604 14.0599 5.05104 14.0599H24.1156ZM24.1156 13.5391H5.05104C3.9875 13.5391 3.125 14.4016 3.125 15.4651V34.5297C3.125 35.5932 3.9875 36.4557 5.05104 36.4557H24.1156C25.1792 36.4557 26.0417 35.5932 26.0417 34.5297V15.4651C26.0417 14.4016 25.1792 13.5391 24.1156 13.5391Z" fill="url(#paint2_linear_2400_42594)"/>
<path opacity="0.05" d="M20.9896 18.75H19.3094C18.7396 18.75 18.2396 19.1552 18.1209 19.7125L17.5074 22.599L16.8188 19.6823C16.6876 19.1333 16.2021 18.75 15.6386 18.75H13.6344C13.0678 18.75 12.5813 19.1354 12.4521 19.6854L11.7094 22.8323L11.0459 19.7115C10.9271 19.1552 10.4271 18.75 9.85736 18.75H8.17715C7.41048 18.75 6.81361 19.4646 6.99486 20.2427L9.35527 30.3125C9.48444 30.8646 9.96986 31.25 10.5376 31.25H12.7126C13.2792 31.25 13.7782 30.8479 13.898 30.3L14.6355 26.9875L15.374 30.301C15.499 30.8594 15.9865 31.25 16.5594 31.25H18.6292C19.1959 31.25 19.6824 30.8646 19.8115 30.3135L22.1719 20.2417C22.3521 19.4667 21.7594 18.75 20.9896 18.75Z" fill="#9F5CFF"/>
<path opacity="0.1" d="M18.325 19.7589L17.5178 23.5536L16.6167 19.7339C16.5073 19.2797 16.1053 18.962 15.6386 18.962H13.6344C13.1646 18.962 12.7615 19.2818 12.6553 19.737L11.699 23.788L10.8417 19.7589C10.7438 19.2974 10.3292 18.962 9.85734 18.962H8.17713C7.54172 18.962 7.04797 19.5536 7.19797 20.1984L9.55838 30.2682C9.66567 30.7255 10.0678 31.0453 10.5375 31.0453H12.7125C13.1823 31.0453 13.5948 30.713 13.6948 30.2578L14.6365 26.0328L15.5782 30.2578C15.6813 30.7203 16.0855 31.0443 16.5605 31.0443H18.6303C19.1 31.0443 19.5021 30.7245 19.6094 30.2682L21.9698 20.1964C22.1198 19.5557 21.6292 18.9609 20.9907 18.9609H19.3105C18.8375 18.962 18.423 19.2974 18.325 19.7589Z" fill="#9F5CFF"/>
<path opacity="0.2" d="M18.5293 19.7974L17.5282 24.5005L16.4137 19.7776C16.3272 19.4172 16.0085 19.1651 15.6376 19.1651H13.6335C13.2616 19.1651 12.9418 19.4182 12.8574 19.7797L11.6887 24.7349L10.6387 19.7964C10.5616 19.4297 10.2324 19.1641 9.85846 19.1641H8.17721C7.672 19.1641 7.28138 19.6339 7.40117 20.1443L9.76158 30.2151C9.84596 30.5776 10.1658 30.8307 10.5376 30.8307H12.7126C13.0845 30.8307 13.4126 30.5672 13.4908 30.2068L14.6355 25.0693L15.7803 30.2068C15.8626 30.5734 16.1824 30.8307 16.5585 30.8307H18.6283C19.0001 30.8307 19.3199 30.5776 19.4043 30.2151L21.7647 20.1432C21.8835 19.6349 21.4949 19.1641 20.9887 19.1641H19.3085C18.9345 19.1651 18.6064 19.4307 18.5293 19.7974Z" fill="#9F5CFF"/>
<path opacity="0.3" d="M18.7334 19.8427L17.5386 25.4552L16.2115 19.8281C16.148 19.5625 15.9115 19.376 15.6386 19.376H13.6345C13.3595 19.376 13.123 19.5635 13.0605 19.8302L11.6782 25.6896L10.4345 19.8427C10.3761 19.5719 10.1345 19.376 9.85737 19.376H8.17717C7.80321 19.376 7.51571 19.724 7.60321 20.1L9.96362 30.1708C10.0261 30.4385 10.2626 30.626 10.5376 30.626H12.7126C12.9876 30.626 13.2292 30.4312 13.2876 30.1646L14.6355 24.1156L15.9845 30.1656C16.0449 30.4365 16.2824 30.626 16.5595 30.626H18.6292C18.9042 30.626 19.1407 30.4385 19.2032 30.1708L21.5636 20.099C21.6511 19.724 21.3647 19.375 20.9897 19.375H19.3095C19.0324 19.376 18.7907 19.5719 18.7334 19.8427Z" fill="#9F5CFF"/>
<path opacity="0.4" d="M18.9365 19.888L17.549 26.4089L16.0094 19.8786C15.9688 19.7068 15.8157 19.5859 15.6386 19.5859H13.6344C13.4574 19.5859 13.3042 19.7068 13.2636 19.8797L11.6667 26.6432L10.2303 19.888C10.1928 19.713 10.0365 19.5859 9.85736 19.5859H8.17715C7.93444 19.5859 7.75007 19.812 7.80632 20.0536L10.1667 30.1245C10.2074 30.2974 10.3605 30.4182 10.5376 30.4182H12.7126C12.8907 30.4182 13.0469 30.2932 13.0844 30.1203L14.6355 23.1589L16.1876 30.1214C16.2271 30.2964 16.3803 30.4193 16.5594 30.4193H18.6292C18.8063 30.4193 18.9594 30.2984 19.0001 30.1255L21.3605 20.0536C21.4167 19.812 21.2324 19.5859 20.9896 19.5859H19.3094C19.1303 19.5859 18.974 19.713 18.9365 19.888Z" fill="#9F5CFF"/>
<path d="M19.1699 19.7891L17.5595 27.3557L15.7751 19.7891H13.497L11.6563 27.5901L9.99697 19.7891H7.95947L10.4011 30.2057H12.8511L14.6355 22.1964L16.4209 30.2057H18.7657L21.2074 19.7891H19.1699Z" fill="white"/>
<defs>
<linearGradient id="paint0_linear_2400_42594" x1="17.9322" y1="2.26458" x2="44.8572" y2="52.1292" gradientUnits="userSpaceOnUse">
<stop stop-color="#97F8FF"/>
<stop offset="0.115" stop-color="#84EDFF"/>
<stop offset="0.725" stop-color="#26B3FD"/>
<stop offset="1" stop-color="#009CFC"/>
</linearGradient>
<linearGradient id="paint1_linear_2400_42594" x1="27.8875" y1="34.4516" x2="9.20625" y2="21.1766" gradientUnits="userSpaceOnUse">
<stop stop-color="#DAA6FF" stop-opacity="0.6"/>
<stop offset="1" stop-color="#DCA6FF" stop-opacity="0.4"/>
</linearGradient>
<linearGradient id="paint2_linear_2400_42594" x1="-10.9375" y1="24.9974" x2="26.6948" y2="24.9974" gradientUnits="userSpaceOnUse">
<stop stop-color="#DAA6FF" stop-opacity="0.4"/>
<stop offset="1" stop-color="#F5EBFF" stop-opacity="0.2"/>
</linearGradient>
</defs>
</svg>
