<svg width="27" height="28" viewBox="0 0 27 28" fill="none" xmlns="http://www.w3.org/2000/svg">
<g clip-path="url(#clip0_2565_7640)">
<path opacity="0.4" d="M3.83726 23.3032C3.00757 23.3735 2.26732 22.9904 1.74194 22.4156L1.74588 22.4285C2.23976 23.1288 2.99576 23.4922 3.93738 23.4922H19.1249C17.8823 23.4922 16.3124 22.9297 16.3124 20.1172V18.9922C16.3124 18.6817 16.0604 18.4297 15.7499 18.4297H6.32801V20.5002C6.32801 23.0101 4.27601 23.2593 3.83726 23.3032Z" fill="#118BEF"/>
<path opacity="0.3" d="M3.73725 23.1142C2.94637 23.2121 2.18475 22.892 1.66162 22.2811L1.674 22.3244C2.16393 23.0951 2.94975 23.4922 3.9375 23.4922H19.125C17.8824 23.4922 16.3125 22.9297 16.3125 20.1172V18.9922C16.3125 18.6817 16.0605 18.4297 15.75 18.4297H5.90625V20.6791C5.90625 22.6468 4.30425 23.0259 3.73725 23.1142Z" fill="#118BEF"/>
<path opacity="0.2" d="M3.63716 22.9257C2.8851 23.0518 2.10154 22.7941 1.58179 22.1473L1.60035 22.2176C2.08185 23.0641 2.90197 23.4922 3.93754 23.4922H19.125C17.8825 23.4922 16.3125 22.9297 16.3125 20.1172V18.9922C16.3125 18.6817 16.0605 18.4297 15.75 18.4297H5.48441V20.8574C5.48441 22.2834 4.33241 22.793 3.63716 22.9257Z" fill="#118BEF"/>
<path opacity="0.1" d="M3.53703 22.7368C2.82434 22.8898 2.02165 22.6962 1.50415 22.0156C1.96596 22.9932 2.82546 23.4922 3.93753 23.4922H19.125C17.8825 23.4922 16.3125 22.9297 16.3125 20.1172V18.9922C16.3125 18.6817 16.0605 18.4297 15.75 18.4297H5.06253V21.0357C5.06253 21.92 4.36053 22.5596 3.53703 22.7368Z" fill="#118BEF"/>
<path d="M8.68384 3.80469H23.9355C24.7792 3.80469 25.875 4.43806 25.875 5.98494V7.13075C25.875 7.313 25.727 7.46094 25.5448 7.46094H10.9473C10.7651 7.46094 10.6172 7.313 10.6172 7.13075V6.125C10.6172 4.19113 9.53771 3.80469 8.68384 3.80469Z" fill="#0576E5"/>
<path d="M8.68388 3.80469C7.61569 3.80469 6.75 4.67037 6.75 5.73856V20.3225C6.75 23.3729 4.24856 23.4922 3.9375 23.4922H19.125C20.6781 23.4922 21.9375 22.2327 21.9375 20.6797V5.98438C21.9375 3.88681 23.7493 3.80469 23.9631 3.80469H8.68388Z" fill="url(#paint0_linear_2565_7640)"/>
<path d="M10.125 9.42969C10.125 9.11919 10.377 8.86719 10.6875 8.86719H18C18.3105 8.86719 18.5625 9.11919 18.5625 9.42969C18.5625 9.74019 18.3111 9.99219 18 9.99219H10.6875C10.377 9.99219 10.125 9.74019 10.125 9.42969ZM15.75 14.4922H10.6875C10.377 14.4922 10.125 14.7442 10.125 15.0547C10.125 15.3652 10.377 15.6172 10.6875 15.6172H15.75C16.0605 15.6172 16.3125 15.3652 16.3125 15.0547C16.3125 14.7442 16.0611 14.4922 15.75 14.4922ZM18 11.6797H10.6875C10.377 11.6797 10.125 11.9317 10.125 12.2422C10.125 12.5527 10.377 12.8047 10.6875 12.8047H18C18.3105 12.8047 18.5625 12.5527 18.5625 12.2422C18.5625 11.9317 18.3111 11.6797 18 11.6797Z" fill="#20AFFD"/>
<path opacity="0.4" d="M6.75 20.3204C6.75 23.3714 4.24856 23.4906 3.9375 23.4906H19.125C17.964 23.4906 16.5375 22.7622 16.5375 20.1156V18.9906C16.5375 18.5558 16.1848 18.2031 15.75 18.2031H6.75V20.3204Z" fill="#24A1FF"/>
<path opacity="0.3" d="M6.75 20.3188C6.75 23.3698 4.24856 23.4891 3.9375 23.4891H19.125C18.0456 23.4891 16.7625 22.5947 16.7625 20.1141V18.9891C16.7625 18.4305 16.3086 17.9766 15.75 17.9766H6.75V20.3188Z" fill="#24A1FF"/>
<path opacity="0.2" d="M6.75 20.3251C6.75 23.3761 4.24856 23.4953 3.9375 23.4953H19.125C18.1271 23.4953 16.9875 22.435 16.9875 20.1203V18.9953C16.9875 18.3124 16.4323 17.7578 15.75 17.7578H6.75V20.3251Z" fill="#24A1FF"/>
<path opacity="0.1" d="M6.75 20.3235C6.75 23.3745 4.24856 23.4938 3.9375 23.4938H19.125C18.2093 23.4938 17.2125 22.2675 17.2125 20.1188V18.9938C17.2125 18.1871 16.5566 17.5312 15.75 17.5312H6.75V20.3235Z" fill="#24A1FF"/>
<path opacity="0.05" d="M6.75 20.3219C6.75 23.3729 4.24856 23.4922 3.9375 23.4922H19.125C18.2908 23.4922 17.4375 22.0994 17.4375 20.1172V18.9922C17.4375 18.0618 16.6804 17.3047 15.75 17.3047H6.75V20.3219Z" fill="#24A1FF"/>
<path d="M19.125 23.4922H3.9375C2.25 23.4922 1.125 22.3672 1.125 20.1172V18.9922C1.125 18.6817 1.377 18.4297 1.6875 18.4297H15.75C16.0605 18.4297 16.3125 18.6817 16.3125 18.9922V20.1172C16.3125 22.9297 17.8824 23.4922 19.125 23.4922Z" fill="url(#paint1_linear_2565_7640)"/>
<path d="M15.75 18.7109C15.9052 18.7109 16.0312 18.8369 16.0312 18.9922V20.1172C16.0312 21.785 16.5639 22.7092 17.2378 23.2109H3.9375C2.30512 23.2109 1.40625 22.1124 1.40625 20.1172V18.9922C1.40625 18.8369 1.53225 18.7109 1.6875 18.7109H15.75ZM15.75 18.4297H1.6875C1.377 18.4297 1.125 18.6817 1.125 18.9922V20.1172C1.125 22.3672 2.25 23.4922 3.9375 23.4922H19.125C17.8824 23.4922 16.3125 22.9297 16.3125 20.1172V18.9922C16.3125 18.6817 16.0605 18.4297 15.75 18.4297Z" fill="url(#paint2_linear_2565_7640)"/>
</g>
<defs>
<linearGradient id="paint0_linear_2565_7640" x1="13.95" y1="21.1916" x2="13.95" y2="-0.711062" gradientUnits="userSpaceOnUse">
<stop stop-color="#97F8FF"/>
<stop offset="0.115" stop-color="#84EDFF"/>
<stop offset="0.725" stop-color="#26B3FD"/>
<stop offset="1" stop-color="#009CFC"/>
</linearGradient>
<linearGradient id="paint1_linear_2565_7640" x1="3.32606" y1="20.9609" x2="21.3261" y2="20.9609" gradientUnits="userSpaceOnUse">
<stop stop-color="#DAA6FF" stop-opacity="0.6"/>
<stop offset="1" stop-color="#DCA6FF" stop-opacity="0.4"/>
</linearGradient>
<linearGradient id="paint2_linear_2565_7640" x1="13.0596" y1="19.3702" x2="4.66763" y2="24.2606" gradientUnits="userSpaceOnUse">
<stop stop-color="#F5EBFF" stop-opacity="0.2"/>
<stop offset="1" stop-color="#DAA6FF" stop-opacity="0.4"/>
</linearGradient>
<clipPath id="clip0_2565_7640">
<rect width="27" height="27" fill="white" transform="translate(0 0.429688)"/>
</clipPath>
</defs>
</svg>
