<svg width="27" height="28" viewBox="0 0 27 28" fill="none" xmlns="http://www.w3.org/2000/svg">
<path d="M6.71006 3.26562H21.069C20.25 3.26562 19.6875 3.89788 19.6875 4.67638V22.6072C19.6875 23.4869 18.7228 24.0264 17.9736 23.5657L12.9645 20.486C12.6034 20.2638 12.1472 20.2638 11.7861 20.486L6.777 23.5657C6.02719 24.0264 5.0625 23.4875 5.0625 22.6072V4.91319C5.0625 4.00306 5.8005 3.26562 6.71006 3.26562Z" fill="url(#paint0_linear_2565_7659)"/>
<path opacity="0.1" d="M18.5625 10.5714V3.26562H21.375C21.375 3.82756 21.375 4.24831 21.375 4.67637V10.5714H18.5625Z" fill="#01D1FF" fill-opacity="0.27"/>
<path opacity="0.2" d="M18 10.5714V3.26562H21.2698C21.0156 3.7145 20.9531 4.24831 20.9531 4.67637V10.5714H18Z" fill="#01D1FF" fill-opacity="0.27"/>
<path opacity="0.3" d="M17.4375 10.5714V3.26562H21.1646C20.6556 3.60144 20.5312 4.24775 20.5312 4.67637V10.5714H17.4375Z" fill="#01D1FF" fill-opacity="0.27"/>
<path opacity="0.4" d="M16.875 10.5714V3.26562H21.06C20.2967 3.48837 20.1094 4.24831 20.1094 4.67637V10.5714H16.875Z" fill="#01D1FF" fill-opacity="0.27"/>
<path opacity="0.5" d="M16.3125 10.5714V3.26562H20.9548C19.9367 3.37531 19.6875 4.24775 19.6875 4.67637V10.5714H16.3125Z" fill="#01D1FF" fill-opacity="0.27"/>
<path opacity="0.05" d="M6.75002 3.26562H21.069C20.25 3.26562 19.6875 3.89787 19.6875 4.67637V12.2572H9.56252C8.01171 12.2572 6.75002 10.9966 6.75002 9.4475C6.75002 9.4475 6.74833 4.90756 6.75002 4.91206V3.26562Z" fill="#00BEE8" fill-opacity="0.4"/>
<path opacity="0.1" d="M6.75 3.26562H21.069C20.25 3.26562 19.6875 3.89787 19.6875 4.67637V11.9759H9.5625C8.16694 11.9759 7.03125 10.8414 7.03125 9.44694C7.03125 9.44694 7.02956 4.91431 7.03125 4.91825C7.03125 4.745 6.90131 3.26562 6.75 3.26562Z" fill="#00BEE8" fill-opacity="0.4"/>
<path opacity="0.2" d="M6.75 3.26562H21.069C20.25 3.26562 19.6875 3.89787 19.6875 4.67637V11.6952H9.5625C8.32219 11.6952 7.3125 10.6861 7.3125 9.4475C7.3125 9.4475 7.31138 4.92219 7.3125 4.92556C7.3125 4.5785 7.05319 3.26562 6.75 3.26562Z" fill="#00BEE8" fill-opacity="0.4"/>
<path opacity="0.3" d="M6.75 3.26562H21.069C20.25 3.26562 19.6875 3.89787 19.6875 4.67637V11.414H9.5625C8.478 11.414 7.59375 10.5309 7.59375 9.44694C7.59375 9.44694 7.59263 4.92894 7.59375 4.93119C7.59375 4.41144 7.2045 3.26562 6.75 3.26562Z" fill="#00BEE8" fill-opacity="0.4"/>
<path opacity="0.4" d="M6.75 3.26562H21.069C20.25 3.26562 19.6875 3.89787 19.6875 4.67637V11.1333H9.5625C8.63325 11.1333 7.875 10.3756 7.875 9.4475C7.875 9.4475 7.87444 4.93681 7.875 4.9385C7.875 4.24494 7.35637 3.26562 6.75 3.26562Z" fill="#00BEE8" fill-opacity="0.4"/>
<path opacity="0.5" d="M6.75 3.26562H21.069C20.25 3.26562 19.6875 3.89787 19.6875 4.67637V10.8521H9.5625C8.7885 10.8521 8.15625 10.2204 8.15625 9.44694C8.15625 9.44694 8.15569 4.94356 8.15625 4.94469C8.15625 4.07788 7.50769 3.26562 6.75 3.26562Z" fill="#00BEE8" fill-opacity="0.4"/>
<path d="M9.5625 10.5714C8.94375 10.5714 8.4375 10.0657 8.4375 9.4475V4.95144C8.4375 3.91138 7.65956 3.26563 6.75 3.26563H21.069C20.25 3.26562 19.6875 3.89787 19.6875 4.67637V10.5714H9.5625Z" fill="#00BEE8" fill-opacity="0.4"/>
<path d="M9.5625 10.5547H21.9375C22.5562 10.5547 23.0625 10.0484 23.0625 9.42969V4.60175C23.0625 3.85081 22.4539 3.24219 21.7029 3.24219H6.75C7.65956 3.24219 8.4375 3.8885 8.4375 4.92969V9.42969C8.4375 10.0484 8.94375 10.5547 9.5625 10.5547Z" fill="url(#paint1_linear_2565_7659)"/>
<path d="M21.9375 10.2734H9.5625C9.09731 10.2734 8.71875 9.89488 8.71875 9.42969V4.92969C8.71875 4.36269 8.514 3.87275 8.16806 3.52344H21.7029C22.2975 3.52344 22.7812 4.00719 22.7812 4.60175V9.42969C22.7812 9.89488 22.4027 10.2734 21.9375 10.2734ZM21.9375 10.5547C22.5562 10.5547 23.0625 10.0484 23.0625 9.42969V4.60175C23.0625 3.85081 22.4539 3.24219 21.7029 3.24219H6.75C7.65956 3.24219 8.4375 3.8885 8.4375 4.92969V9.42969C8.4375 10.0484 8.94375 10.5547 9.5625 10.5547H21.9375Z" fill="url(#paint2_linear_2565_7659)"/>
<defs>
<linearGradient id="paint0_linear_2565_7659" x1="13" y1="26.9326" x2="13.0657" y2="5.81375" gradientUnits="userSpaceOnUse">
<stop stop-color="#EDA4FF"/>
<stop offset="0.447" stop-color="#CB5DFF"/>
<stop offset="1" stop-color="#8F01FF"/>
</linearGradient>
<linearGradient id="paint1_linear_2565_7659" x1="4.19175" y1="11.6915" x2="17.6726" y2="5.40331" gradientUnits="userSpaceOnUse">
<stop stop-color="white" stop-opacity="0.4"/>
<stop offset="1" stop-color="#21B0FD" stop-opacity="0.6"/>
</linearGradient>
<linearGradient id="paint2_linear_2565_7659" x1="12.4043" y1="9.57031" x2="17.208" y2="3.74675" gradientUnits="userSpaceOnUse">
<stop stop-color="white" stop-opacity="0.2"/>
<stop offset="1" stop-color="#9F02FF" stop-opacity="0.4"/>
</linearGradient>
</defs>
</svg>
