<svg width="27" height="28" viewBox="0 0 27 28" fill="none" xmlns="http://www.w3.org/2000/svg">
<path opacity="0.1" d="M16.875 4.36719H10.125V14.4922H16.875V4.36719Z" fill="#8646F4"/>
<path opacity="0.2" d="M16.4531 4.36719H10.5469V14.4922H16.4531V4.36719Z" fill="#8646F4"/>
<path opacity="0.3" d="M16.0312 4.36719H10.9688V14.4922H16.0312V4.36719Z" fill="#8646F4"/>
<path opacity="0.4" d="M15.6094 4.36719H11.3906V14.4922H15.6094V4.36719Z" fill="#8646F4"/>
<path d="M14.625 26.3047H12.375C12.0645 26.3047 11.8125 26.0527 11.8125 25.7422V2.67969C11.8125 2.36919 12.0645 2.11719 12.375 2.11719H14.625C14.9355 2.11719 15.1875 2.36919 15.1875 2.67969V25.7422C15.1875 26.0527 14.9355 26.3047 14.625 26.3047Z" fill="url(#paint0_linear_2565_7820)"/>
<path opacity="0.05" d="M15.1875 3.24219H11.8125V15.6172H15.1875V3.24219Z" fill="#8646F4"/>
<path opacity="0.1" d="M15.1875 3.46875H11.8125V15.3938H15.1875V3.46875Z" fill="#8646F4"/>
<path opacity="0.2" d="M15.1875 3.69531H11.8125V15.1703H15.1875V3.69531Z" fill="#8646F4"/>
<path opacity="0.3" d="M15.1875 3.91406H11.8125V14.9391H15.1875V3.91406Z" fill="#8646F4"/>
<path opacity="0.4" d="M15.1875 4.14062H11.8125V14.7156H15.1875V4.14062Z" fill="#8646F4"/>
<path d="M15.1875 4.36719H11.8125V14.4922H15.1875V4.36719Z" fill="#082FFE" fill-opacity="0.2"/>
<path d="M21.7045 14.4922H1.34763C0.848131 14.4922 0.596131 13.8892 0.947693 13.5343L5.06238 9.37456L0.973006 5.32963C0.615256 4.97638 0.865568 4.36719 1.36844 4.36719H21.7045C21.8536 4.36719 21.997 4.42625 22.1022 4.532L26.6022 9.032C26.8221 9.25194 26.8221 9.608 26.6022 9.82738L22.1022 14.3274C21.9964 14.4331 21.8536 14.4922 21.7045 14.4922Z" fill="url(#paint1_linear_2565_7820)"/>
<path d="M21.7045 4.64844C21.7799 4.64844 21.8502 4.67769 21.9036 4.73056L26.4036 9.23056C26.5133 9.34025 26.5133 9.51856 26.4036 9.62825L21.9036 14.1283C21.8508 14.1811 21.7799 14.2104 21.7045 14.2104H1.34763C1.17382 14.2104 1.10519 14.0782 1.08832 14.0377C1.07144 13.9972 1.02588 13.8549 1.14794 13.7317L5.26263 9.572C5.31494 9.51969 5.34419 9.44769 5.34363 9.37344C5.34307 9.29862 5.31326 9.22719 5.26038 9.17487L1.17101 5.12994C1.04613 5.00675 1.09169 4.86387 1.10857 4.82281C1.12488 4.78175 1.19351 4.64844 1.36844 4.64844H21.7045ZM21.7045 4.36719H1.36844C0.865568 4.36719 0.615256 4.97638 0.973006 5.32963L5.06238 9.37456L0.947693 13.5343C0.596131 13.8892 0.848131 14.4922 1.34763 14.4922H21.7045C21.8536 14.4922 21.997 14.4331 22.1022 14.3274L26.6022 9.82738C26.8221 9.60744 26.8221 9.25138 26.6022 9.032L22.1022 4.532C21.9964 4.42625 21.8536 4.36719 21.7045 4.36719Z" fill="url(#paint2_linear_2565_7820)"/>
<defs>
<linearGradient id="paint0_linear_2565_7820" x1="13.5" y1="3.60894" x2="13.5" y2="22.5978" gradientUnits="userSpaceOnUse">
<stop stop-color="#8DB2FF"/>
<stop offset="0.311" stop-color="#9196FF"/>
<stop offset="1" stop-color="#986ABD"/>
</linearGradient>
<linearGradient id="paint1_linear_2565_7820" x1="11.5058" y1="-5.36913" x2="13.2321" y2="7.59819" gradientUnits="userSpaceOnUse">
<stop stop-color="#E5AEFF" stop-opacity="0.2"/>
<stop offset="1" stop-color="#BC46F4" stop-opacity="0.4"/>
</linearGradient>
<linearGradient id="paint2_linear_2565_7820" x1="9.32388" y1="8.64219" x2="21.3529" y2="12.9492" gradientUnits="userSpaceOnUse">
<stop stop-color="#FFFFF0" stop-opacity="0.1"/>
<stop offset="1" stop-color="#FF9A83" stop-opacity="0.3"/>
</linearGradient>
</defs>
</svg>
