<svg width="50" height="50" viewBox="0 0 50 50" fill="none" xmlns="http://www.w3.org/2000/svg">
<path d="M43.75 44.7891H14.5833C14.0083 44.7891 13.5416 44.3224 13.5416 43.7474V14.5807C13.5416 14.0057 14.0083 13.5391 14.5833 13.5391H43.75C44.325 13.5391 44.7916 14.0057 44.7916 14.5807V43.7474C44.7916 44.3224 44.325 44.7891 43.75 44.7891Z" fill="url(#paint0_linear_2400_42618)"/>
<path opacity="0.05" d="M42.7083 13.5391V39.5807C42.7083 41.3099 41.3125 42.7057 39.5833 42.7057H13.5416V14.5807C13.5416 14.0078 14.0104 13.5391 14.5833 13.5391H42.7083Z" fill="#118BEF"/>
<path opacity="0.1" d="M42.2916 13.5391V39.5807C42.2916 41.0703 41.0729 42.2891 39.5833 42.2891H13.5416V14.5807C13.5416 14.0078 14.0104 13.5391 14.5833 13.5391H42.2916Z" fill="#118BEF"/>
<path opacity="0.2" d="M41.875 13.5391V39.5807C41.875 40.8411 40.8437 41.8724 39.5833 41.8724H13.5416V14.5807C13.5416 14.0078 14.0104 13.5391 14.5833 13.5391H41.875Z" fill="#118BEF"/>
<path opacity="0.3" d="M41.4583 13.5391V39.5807C41.4583 40.612 40.6145 41.4557 39.5833 41.4557H13.5416V14.5807C13.5416 14.0078 14.0104 13.5391 14.5833 13.5391H41.4583Z" fill="#118BEF"/>
<path opacity="0.4" d="M41.0416 13.5391V39.5807C41.0416 40.3828 40.3854 41.0391 39.5833 41.0391H13.5416V14.5807C13.5416 14.0078 14.0104 13.5391 14.5833 13.5391H41.0416Z" fill="#118BEF"/>
<path opacity="0.1" d="M36.4583 6.2474V35.4141C36.4583 35.987 35.9895 36.4557 35.4166 36.4557H6.24996C6.17704 36.4557 6.10413 36.4453 6.04163 36.4349V10.4141C6.04163 7.9974 7.99996 6.03906 10.4166 6.03906H36.4375C36.4479 6.10156 36.4583 6.17448 36.4583 6.2474Z" fill="#118BEF"/>
<path opacity="0.2" d="M36.4583 6.875V35.4167C36.4583 35.9896 35.9896 36.4583 35.4167 36.4583H6.875V10.4167C6.875 8.45833 8.45833 6.875 10.4167 6.875H36.4583Z" fill="#118BEF"/>
<path opacity="0.3" d="M36.4584 7.71094V35.4193C36.4584 35.9922 35.9896 36.4609 35.4167 36.4609H7.70837V10.4193C7.70837 8.92969 8.92712 7.71094 10.4167 7.71094H36.4584Z" fill="#118BEF"/>
<path opacity="0.4" d="M36.4583 8.53906V35.4141C36.4583 35.987 35.9895 36.4557 35.4166 36.4557H8.54163V10.4141C8.54163 9.38281 9.38538 8.53906 10.4166 8.53906H36.4583Z" fill="#118BEF"/>
<path d="M39.5833 40.625H10.4167C9.84167 40.625 9.375 40.1583 9.375 39.5833V10.4167C9.375 9.84167 9.84167 9.375 10.4167 9.375H39.5833C40.1583 9.375 40.625 9.84167 40.625 10.4167V39.5833C40.625 40.1583 40.1583 40.625 39.5833 40.625Z" fill="url(#paint1_linear_2400_42618)"/>
<path opacity="0.05" d="M38.5417 9.375V35.4167C38.5417 37.1458 37.1458 38.5417 35.4167 38.5417H9.375V10.4167C9.375 9.84375 9.84375 9.375 10.4167 9.375H38.5417Z" fill="#118BEF"/>
<path opacity="0.1" d="M38.125 9.375V35.4167C38.125 36.9063 36.9063 38.125 35.4167 38.125H9.375V10.4167C9.375 9.84375 9.84375 9.375 10.4167 9.375H38.125Z" fill="#118BEF"/>
<path opacity="0.2" d="M37.7083 9.375V35.4167C37.7083 36.6771 36.6771 37.7083 35.4167 37.7083H9.375V10.4167C9.375 9.84375 9.84375 9.375 10.4167 9.375H37.7083Z" fill="#118BEF"/>
<path opacity="0.3" d="M37.2917 9.375V35.4167C37.2917 36.4479 36.4479 37.2917 35.4167 37.2917H9.375V10.4167C9.375 9.84375 9.84375 9.375 10.4167 9.375H37.2917Z" fill="#118BEF"/>
<path opacity="0.4" d="M36.875 9.375V35.4167C36.875 36.2187 36.2187 36.875 35.4167 36.875H9.375V10.4167C9.375 9.84375 9.84375 9.375 10.4167 9.375H36.875Z" fill="#118BEF"/>
<path d="M35.4167 36.4609H6.25004C5.67504 36.4609 5.20837 35.9943 5.20837 35.4193V6.2526C5.20837 5.6776 5.67504 5.21094 6.25004 5.21094H35.4167C35.9917 5.21094 36.4584 5.6776 36.4584 6.2526V35.4193C36.4584 35.9943 35.9917 36.4609 35.4167 36.4609Z" fill="url(#paint2_linear_2400_42618)"/>
<path d="M35.4167 5.73177C35.7042 5.73177 35.9375 5.9651 35.9375 6.2526V35.4193C35.9375 35.7068 35.7042 35.9401 35.4167 35.9401H6.25004C5.96254 35.9401 5.72921 35.7068 5.72921 35.4193V6.2526C5.72921 5.9651 5.96254 5.73177 6.25004 5.73177H35.4167ZM35.4167 5.21094H6.25004C5.67504 5.21094 5.20837 5.6776 5.20837 6.2526V35.4193C5.20837 35.9943 5.67504 36.4609 6.25004 36.4609H35.4167C35.9917 36.4609 36.4584 35.9943 36.4584 35.4193V6.2526C36.4584 5.6776 35.9917 5.21094 35.4167 5.21094Z" fill="url(#paint3_linear_2400_42618)"/>
<path opacity="0.3" d="M5.20837 27.0826L13.1105 19.1805C13.924 18.3669 15.2427 18.3669 16.0563 19.1805L21.875 24.9992L26.824 21.2878C27.5886 20.7138 28.6459 20.7346 29.3875 21.3378L36.4584 27.0826V35.4159C36.4584 35.9909 35.9917 36.4576 35.4167 36.4576H6.25004C5.67504 36.4576 5.20837 35.9909 5.20837 35.4159V27.0826Z" fill="white"/>
<path opacity="0.3" d="M30.2083 15.6276C31.3589 15.6276 32.2917 14.6949 32.2917 13.5443C32.2917 12.3937 31.3589 11.4609 30.2083 11.4609C29.0577 11.4609 28.125 12.3937 28.125 13.5443C28.125 14.6949 29.0577 15.6276 30.2083 15.6276Z" fill="white"/>
<path opacity="0.1" d="M15.0931 34.9537C16.5168 34.501 17.7983 33.7312 18.8538 32.7261C19.9093 31.7211 20.7387 30.4809 21.2576 29.0876L20.8742 28.7042C20.0454 27.8753 18.9565 27.4609 17.867 27.4609C16.7775 27.4609 15.6886 27.8753 14.8592 28.7048C14.0298 29.5342 13.6154 30.6231 13.6154 31.7126C13.6154 32.8021 14.0298 33.891 14.8592 34.7204L15.0931 34.9537Z" fill="#FF5F01"/>
<path opacity="0.2" d="M15.2888 29.1283C14.5779 29.8392 14.2224 30.7726 14.2224 31.7065C14.2224 32.6405 14.5779 33.5738 15.2888 34.2847L15.6765 34.6724C16.8729 34.2495 17.9545 33.5774 18.8569 32.7182C19.7592 31.859 20.4817 30.8133 20.9599 29.6436L20.4446 29.1283C19.7337 28.418 18.8004 28.0625 17.867 28.0625C16.9337 28.0625 15.9998 28.4174 15.2888 29.1283Z" fill="#FF5F01"/>
<path opacity="0.3" d="M15.7184 29.5596C15.126 30.1521 14.8295 30.9299 14.8295 31.7082C14.8295 32.4866 15.126 33.2638 15.7184 33.8569L16.2598 34.3983C17.229 34.0051 18.1107 33.4303 18.8599 32.7175C19.6092 32.0048 20.2247 31.1535 20.6622 30.2074L20.0151 29.5602C19.4226 28.9678 18.6448 28.6719 17.8671 28.6719C17.0893 28.6719 16.3115 28.9672 15.7184 29.5596Z" fill="#FF5F01"/>
<path opacity="0.4" d="M16.1479 29.9928C15.6734 30.4674 15.4364 31.089 15.4364 31.7112C15.4364 32.3334 15.6734 32.9556 16.1479 33.4296L16.8431 34.1253C17.585 33.762 18.2668 33.2844 18.8629 32.7174C19.459 32.1505 19.9676 31.4937 20.3644 30.7712L19.5854 29.9922C19.1114 29.5182 18.4892 29.2812 17.867 29.2812C17.2447 29.2812 16.6225 29.5188 16.1479 29.9928Z" fill="#FF5F01"/>
<path opacity="0.5" d="M17.4271 33.8518C17.9417 33.5176 18.4236 33.1385 18.8659 32.7174C19.3083 32.2963 19.7112 31.8345 20.0666 31.3356L19.1558 30.4247C18.7997 30.0687 18.333 29.8906 17.867 29.8906C17.4009 29.8906 16.9337 30.0687 16.5782 30.4247C16.2221 30.7808 16.0441 31.2475 16.0441 31.7135C16.0441 32.1796 16.2221 32.6469 16.5782 33.0023L17.4271 33.8518Z" fill="#FF5F01"/>
<path d="M25.9765 39.8159C25.2644 40.528 24.1105 40.528 23.3983 39.8159L16.5776 32.9951C15.8654 32.283 15.8654 31.1291 16.5776 30.4169C17.2897 29.7048 18.4436 29.7048 19.1558 30.4169L25.9765 37.2377C26.6887 37.9498 26.6887 39.1037 25.9765 39.8159Z" fill="url(#paint4_linear_2400_42618)"/>
<path opacity="0.1" d="M19.1558 30.4169C18.4436 29.7048 17.2897 29.7048 16.5776 30.4169C15.8654 31.1291 15.8654 32.283 16.5776 32.9951L18.7396 35.1571C19.7434 34.4565 20.6244 33.5985 21.3615 32.6227L19.1558 30.4169Z" fill="#FF5F01"/>
<path opacity="0.15" d="M19.1558 30.4169C18.4436 29.7048 17.2897 29.7048 16.5776 30.4169C15.8654 31.1291 15.8654 32.283 16.5776 32.9951L18.4771 34.8946C19.4857 34.2007 20.3698 33.3427 21.1014 32.3632L19.1558 30.4169Z" fill="#FF5F01"/>
<path opacity="0.2" d="M19.1558 30.4169C18.4436 29.7048 17.2897 29.7048 16.5776 30.4169C15.8654 31.1291 15.8654 32.283 16.5776 32.9951L18.2152 34.6327C19.2293 33.9455 20.1152 33.0881 20.842 32.1037L19.1558 30.4169Z" fill="#FF5F01"/>
<path opacity="0.25" d="M19.1558 30.4169C18.4436 29.7048 17.2897 29.7048 16.5776 30.4169C15.8654 31.1291 15.8654 32.283 16.5776 32.9951L17.9533 34.3708C18.9729 33.6903 19.8606 32.8329 20.5825 31.8443L19.1558 30.4169Z" fill="#FF5F01"/>
<path opacity="0.3" d="M19.1558 30.4169C18.4436 29.7048 17.2897 29.7048 16.5776 30.4169C15.8654 31.1291 15.8654 32.283 16.5776 32.9951L17.6914 34.1089C18.7159 33.4351 19.6067 32.5777 20.3237 31.5848L19.1558 30.4169Z" fill="#FF5F01"/>
<path opacity="0.35" d="M19.1558 30.4169C18.4436 29.7048 17.2897 29.7048 16.5776 30.4169C15.8654 31.1291 15.8654 32.283 16.5776 32.9951L17.4289 33.8464C18.4588 33.1786 19.3514 32.3225 20.0636 31.3253L19.1558 30.4169Z" fill="#FF5F01"/>
<path d="M12.1528 35.4132C17.5222 35.4132 21.875 31.0604 21.875 25.691C21.875 20.3215 17.5222 15.9688 12.1528 15.9688C6.78333 15.9688 2.43054 20.3215 2.43054 25.691C2.43054 31.0604 6.78333 35.4132 12.1528 35.4132Z" fill="url(#paint5_linear_2400_42618)"/>
<path d="M12.1528 16.2726C17.3463 16.2726 21.5712 20.4975 21.5712 25.691C21.5712 30.8845 17.3463 35.1094 12.1528 35.1094C6.95927 35.1094 2.73436 30.8845 2.73436 25.691C2.73436 20.4975 6.95927 16.2726 12.1528 16.2726ZM12.1528 15.9688C6.78306 15.9688 2.43054 20.3213 2.43054 25.691C2.43054 31.0607 6.78306 35.4132 12.1528 35.4132C17.5225 35.4132 21.875 31.0607 21.875 25.691C21.875 20.3213 17.5225 15.9688 12.1528 15.9688Z" fill="url(#paint6_linear_2400_42618)"/>
<defs>
<linearGradient id="paint0_linear_2400_42618" x1="29.1666" y1="0.407812" x2="29.1666" y2="60.2682" gradientUnits="userSpaceOnUse">
<stop stop-color="#97F8FF"/>
<stop offset="0.325" stop-color="#69DCFE"/>
<stop offset="1" stop-color="#009CFC"/>
</linearGradient>
<linearGradient id="paint1_linear_2400_42618" x1="25" y1="-3.75625" x2="25" y2="56.1042" gradientUnits="userSpaceOnUse">
<stop stop-color="#97F8FF"/>
<stop offset="0.325" stop-color="#69DCFE"/>
<stop offset="1" stop-color="#009CFC"/>
</linearGradient>
<linearGradient id="paint2_linear_2400_42618" x1="20.8334" y1="8.9849" x2="20.8334" y2="33.5922" gradientUnits="userSpaceOnUse">
<stop stop-color="#DAA6FF" stop-opacity="0.6"/>
<stop offset="1" stop-color="#DCA6FF" stop-opacity="0.4"/>
</linearGradient>
<linearGradient id="paint3_linear_2400_42618" x1="36.2511" y1="39.7714" x2="5.66775" y2="2.2099" gradientUnits="userSpaceOnUse">
<stop stop-color="#F5EBFF" stop-opacity="0.2"/>
<stop offset="1" stop-color="#DAA6FF" stop-opacity="0.4"/>
</linearGradient>
<linearGradient id="paint4_linear_2400_42618" x1="21.3875" y1="26.1497" x2="18.5757" y2="44.6391" gradientUnits="userSpaceOnUse">
<stop stop-color="#FFDA03"/>
<stop offset="0.256" stop-color="#FFBA02"/>
<stop offset="1" stop-color="#FF5F01"/>
</linearGradient>
<linearGradient id="paint5_linear_2400_42618" x1="12.1528" y1="43.9145" x2="12.1528" y2="24.8398" gradientUnits="userSpaceOnUse">
<stop stop-color="#FFCFAE" stop-opacity="0.4"/>
<stop offset="1" stop-color="#F4805D" stop-opacity="0.7"/>
</linearGradient>
<linearGradient id="paint6_linear_2400_42618" x1="8.30337" y1="21.6149" x2="21.6544" y2="35.7516" gradientUnits="userSpaceOnUse">
<stop stop-color="#F4805D" stop-opacity="0.4"/>
<stop offset="1" stop-color="#FFFFF0" stop-opacity="0.2"/>
</linearGradient>
</defs>
</svg>
