<svg width="50" height="50" viewBox="0 0 50 50" fill="none" xmlns="http://www.w3.org/2000/svg">
<g clip-path="url(#clip0_2400_42687)">
<path d="M43.75 44.7891H14.5833C14.0083 44.7891 13.5416 44.3224 13.5416 43.7474V14.5807C13.5416 14.0057 14.0083 13.5391 14.5833 13.5391H43.75C44.325 13.5391 44.7916 14.0057 44.7916 14.5807V43.7474C44.7916 44.3224 44.325 44.7891 43.75 44.7891Z" fill="url(#paint0_linear_2400_42687)"/>
<path opacity="0.05" d="M42.7083 13.5391V39.5807C42.7083 41.3099 41.3125 42.7057 39.5833 42.7057H13.5416V14.5807C13.5416 14.0078 14.0104 13.5391 14.5833 13.5391H42.7083Z" fill="#118BEF"/>
<path opacity="0.1" d="M42.2916 13.5391V39.5807C42.2916 41.0703 41.0729 42.2891 39.5833 42.2891H13.5416V14.5807C13.5416 14.0078 14.0104 13.5391 14.5833 13.5391H42.2916Z" fill="#118BEF"/>
<path opacity="0.2" d="M41.875 13.5391V39.5807C41.875 40.8411 40.8437 41.8724 39.5833 41.8724H13.5416V14.5807C13.5416 14.0078 14.0104 13.5391 14.5833 13.5391H41.875Z" fill="#118BEF"/>
<path opacity="0.3" d="M41.4583 13.5391V39.5807C41.4583 40.612 40.6145 41.4557 39.5833 41.4557H13.5416V14.5807C13.5416 14.0078 14.0104 13.5391 14.5833 13.5391H41.4583Z" fill="#118BEF"/>
<path opacity="0.4" d="M41.0416 13.5391V39.5807C41.0416 40.3828 40.3854 41.0391 39.5833 41.0391H13.5416V14.5807C13.5416 14.0078 14.0104 13.5391 14.5833 13.5391H41.0416Z" fill="#118BEF"/>
<path opacity="0.1" d="M36.4583 6.2474V35.4141C36.4583 35.987 35.9895 36.4557 35.4166 36.4557H6.24996C6.17704 36.4557 6.10413 36.4453 6.04163 36.4349V10.4141C6.04163 7.9974 7.99996 6.03906 10.4166 6.03906H36.4375C36.4479 6.10156 36.4583 6.17448 36.4583 6.2474Z" fill="#118BEF"/>
<path opacity="0.2" d="M36.4583 6.875V35.4167C36.4583 35.9896 35.9896 36.4583 35.4167 36.4583H6.875V10.4167C6.875 8.45833 8.45833 6.875 10.4167 6.875H36.4583Z" fill="#118BEF"/>
<path opacity="0.3" d="M36.4584 7.71094V35.4193C36.4584 35.9922 35.9896 36.4609 35.4167 36.4609H7.70837V10.4193C7.70837 8.92969 8.92712 7.71094 10.4167 7.71094H36.4584Z" fill="#118BEF"/>
<path opacity="0.4" d="M36.4583 8.53906V35.4141C36.4583 35.987 35.9895 36.4557 35.4166 36.4557H8.54163V10.4141C8.54163 9.38281 9.38538 8.53906 10.4166 8.53906H36.4583Z" fill="#118BEF"/>
<path d="M39.5833 40.625H10.4167C9.84167 40.625 9.375 40.1583 9.375 39.5833V10.4167C9.375 9.84167 9.84167 9.375 10.4167 9.375H39.5833C40.1583 9.375 40.625 9.84167 40.625 10.4167V39.5833C40.625 40.1583 40.1583 40.625 39.5833 40.625Z" fill="url(#paint1_linear_2400_42687)"/>
<path opacity="0.05" d="M38.5417 9.375V35.4167C38.5417 37.1458 37.1458 38.5417 35.4167 38.5417H9.375V10.4167C9.375 9.84375 9.84375 9.375 10.4167 9.375H38.5417Z" fill="#118BEF"/>
<path opacity="0.1" d="M38.125 9.375V35.4167C38.125 36.9062 36.9062 38.125 35.4167 38.125H9.375V10.4167C9.375 9.84375 9.84375 9.375 10.4167 9.375H38.125Z" fill="#118BEF"/>
<path opacity="0.2" d="M37.7083 9.375V35.4167C37.7083 36.6771 36.6771 37.7083 35.4167 37.7083H9.375V10.4167C9.375 9.84375 9.84375 9.375 10.4167 9.375H37.7083Z" fill="#118BEF"/>
<path opacity="0.3" d="M37.2917 9.375V35.4167C37.2917 36.4479 36.4479 37.2917 35.4167 37.2917H9.375V10.4167C9.375 9.84375 9.84375 9.375 10.4167 9.375H37.2917Z" fill="#118BEF"/>
<path opacity="0.4" d="M36.875 9.375V35.4167C36.875 36.2187 36.2187 36.875 35.4167 36.875H9.375V10.4167C9.375 9.84375 9.84375 9.375 10.4167 9.375H36.875Z" fill="#118BEF"/>
<path d="M35.4167 36.4609H6.25004C5.67504 36.4609 5.20837 35.9943 5.20837 35.4193V6.2526C5.20837 5.6776 5.67504 5.21094 6.25004 5.21094H35.4167C35.9917 5.21094 36.4584 5.6776 36.4584 6.2526V35.4193C36.4584 35.9943 35.9917 36.4609 35.4167 36.4609Z" fill="url(#paint2_linear_2400_42687)"/>
<path d="M35.4167 5.73177C35.7042 5.73177 35.9375 5.9651 35.9375 6.2526V35.4193C35.9375 35.7068 35.7042 35.9401 35.4167 35.9401H6.25004C5.96254 35.9401 5.72921 35.7068 5.72921 35.4193V6.2526C5.72921 5.9651 5.96254 5.73177 6.25004 5.73177H35.4167ZM35.4167 5.21094H6.25004C5.67504 5.21094 5.20837 5.6776 5.20837 6.2526V35.4193C5.20837 35.9943 5.67504 36.4609 6.25004 36.4609H35.4167C35.9917 36.4609 36.4584 35.9943 36.4584 35.4193V6.2526C36.4584 5.6776 35.9917 5.21094 35.4167 5.21094Z" fill="url(#paint3_linear_2400_42687)"/>
<path opacity="0.3" d="M5.20837 27.0826L13.1105 19.1805C13.924 18.3669 15.2427 18.3669 16.0563 19.1805L21.875 24.9992L26.824 21.2878C27.5886 20.7138 28.6459 20.7346 29.3875 21.3378L36.4584 27.0826V35.4159C36.4584 35.9909 35.9917 36.4576 35.4167 36.4576H6.25004C5.67504 36.4576 5.20837 35.9909 5.20837 35.4159V27.0826Z" fill="white"/>
<path opacity="0.3" d="M30.2083 15.6276C31.3589 15.6276 32.2917 14.6949 32.2917 13.5443C32.2917 12.3937 31.3589 11.4609 30.2083 11.4609C29.0577 11.4609 28.125 12.3937 28.125 13.5443C28.125 14.6949 29.0577 15.6276 30.2083 15.6276Z" fill="white"/>
<path opacity="0.4" d="M6.31068 23.8645L7.16988 23.0053C7.82248 22.3527 8.88038 22.3521 9.53299 23.0053L13.6242 27.0965L13.5428 27.1543L14.1875 30.9708L10.4177 30.334L6.31068 26.227C5.65868 25.5756 5.65868 24.5171 6.31068 23.8645Z" fill="#FF8A3B"/>
<path opacity="0.3" d="M5.98802 23.5448L6.84661 22.6862C7.67725 21.8549 9.02317 21.8543 9.85442 22.6862L14.0003 26.8321L13.5422 27.1578L14.1869 30.9744L10.3703 30.3297L10.1187 30.6839L5.98741 26.5532C5.15859 25.7231 5.15859 24.3748 5.98802 23.5448Z" fill="#FF8A3B"/>
<path opacity="0.2" d="M5.66596 23.2255L6.52456 22.3669C7.53324 21.3576 9.16718 21.3564 10.1771 22.3663L14.3771 26.5663L13.5422 27.1599L14.1869 30.9765L10.3703 30.3318L9.85077 31.0628L5.66536 26.8774C4.65911 25.8711 4.65911 24.2335 5.66596 23.2255Z" fill="#FF8A3B"/>
<path opacity="0.1" d="M5.34389 22.8979L6.20187 22.0399C7.38859 20.852 9.31056 20.8508 10.4991 22.0393L14.7538 26.294L13.5422 27.1556L14.1869 30.9722L10.3703 30.3275L9.58278 31.4352L5.34206 27.1951C4.1596 26.0102 4.1596 24.0834 5.34389 22.8979Z" fill="#FF8A3B"/>
<path d="M24.6783 42.2374L25.5375 41.3781C26.0121 40.9036 26.0121 40.1343 25.5375 39.6597L9.21025 23.3325C8.73569 22.8579 7.96642 22.8579 7.49185 23.3325L6.63265 24.1917C6.15808 24.6663 6.15808 25.4355 6.63265 25.9101L22.9599 42.2374C23.4345 42.7119 24.2037 42.7119 24.6783 42.2374Z" fill="url(#paint4_linear_2400_42687)"/>
<path opacity="0.4" d="M6.63267 24.1917L7.49187 23.3325C7.96643 22.8579 8.73571 22.8579 9.21027 23.3325L13.9413 28.0636L14.4548 31.1024C14.4688 31.1856 14.3965 31.2579 14.3132 31.2439L11.4889 30.7669L6.63206 25.9101C6.1581 25.4355 6.1581 24.6663 6.63267 24.1917Z" fill="#FF8C3E"/>
<path opacity="0.3" d="M6.63265 24.1917L7.49185 23.3325C7.96642 22.8579 8.73569 22.8579 9.21025 23.3325L14.2379 28.3601L14.7513 31.3995C14.7653 31.4827 14.693 31.5551 14.6097 31.5411L11.7854 31.0641L6.63204 25.9107C6.15808 25.4355 6.15808 24.6663 6.63265 24.1917Z" fill="#FF8C3E"/>
<path opacity="0.2" d="M6.63263 24.1917L7.49183 23.3325C7.9664 22.8579 8.73567 22.8579 9.21023 23.3325L14.5344 28.6566L15.0478 31.696C15.0618 31.7793 14.9895 31.8516 14.9062 31.8376L12.0819 31.3606L6.63202 25.9107C6.15806 25.4355 6.15806 24.6663 6.63263 24.1917Z" fill="#FF8C3E"/>
<path opacity="0.1" d="M6.63273 24.1917L7.49194 23.3325C7.9665 22.8579 8.73577 22.8579 9.21034 23.3325L14.831 28.9531L15.3445 31.9926C15.3584 32.0758 15.2861 32.1481 15.2029 32.1341L12.3792 31.6571L6.63273 25.9107C6.15817 25.4355 6.15817 24.6663 6.63273 24.1917Z" fill="#FF8C3E"/>
<path opacity="0.05" d="M6.63271 24.1917L7.49191 23.3325C7.96648 22.8579 8.73575 22.8579 9.21032 23.3325L15.1275 29.2497L15.641 32.2891C15.6549 32.3723 15.5826 32.4446 15.4994 32.4307L12.6757 31.9537L6.63271 25.9107C6.15815 25.4355 6.15815 24.6663 6.63271 24.1917Z" fill="#FF8C3E"/>
<path d="M3.6024 39.0172L1.47567 39.9286L3.6024 40.8401L4.51386 42.9668L5.42532 40.8401L7.55206 39.9286L5.42532 39.0172L4.51386 36.8905L3.6024 39.0172ZM9.98261 34.4599L10.5295 35.7359L11.8055 36.2828L10.5295 36.8297L9.98261 38.1057L9.43574 36.8297L8.1597 36.2828L9.43574 35.7359L9.98261 34.4599ZM2.0669 30.9733L2.71161 27.1567L-0.443254 24.9133L2.71161 22.6705L2.0669 18.8539L5.88409 19.4986L8.12688 16.3438L10.3703 19.4986L14.1869 18.8539L13.5422 22.6705L16.697 24.9133L13.5422 27.1567L14.1869 30.9733L10.3703 30.3286L8.12688 33.4834L5.88409 30.3286L2.0669 30.9733Z" fill="url(#paint5_linear_2400_42687)"/>
<path d="M8.12688 16.8681L6.1314 19.6748C6.07367 19.7556 5.98131 19.8024 5.88409 19.8024C5.86708 19.8024 5.85006 19.8012 5.83366 19.7982L2.43817 19.2246L3.01178 22.6201C3.03122 22.7349 2.98322 22.851 2.88843 22.9184L0.0817471 24.9139L2.88843 26.9094C2.98322 26.9768 3.03122 27.0929 3.01178 27.2077L2.43817 30.6032L5.83366 30.0296C5.85067 30.0266 5.86768 30.0253 5.88409 30.0253C5.98131 30.0253 6.07428 30.0721 6.1314 30.153L8.12688 32.9596L10.1224 30.153C10.1801 30.0721 10.2725 30.0253 10.3697 30.0253C10.3867 30.0253 10.4037 30.0266 10.4201 30.0296L13.8156 30.6032L13.242 27.2077C13.2225 27.0929 13.2705 26.9768 13.3653 26.9094L16.172 24.9139L13.3653 22.9184C13.2705 22.851 13.2225 22.7349 13.242 22.6201L13.8156 19.2246L10.4201 19.7982C10.4031 19.8012 10.3861 19.8024 10.3697 19.8024C10.2725 19.8024 10.1795 19.7556 10.1224 19.6748L8.12688 16.8681ZM8.12688 16.3438L10.3703 19.4986L14.1869 18.8539L13.5422 22.6705L16.697 24.9133L13.5422 27.1567L14.1869 30.9733L10.3703 30.3286L8.12688 33.4834L5.88409 30.3286L2.0669 30.9733L2.71161 27.1567L-0.443254 24.9133L2.71161 22.6705L2.0669 18.8539L5.88409 19.4986L8.12688 16.3438Z" fill="url(#paint6_linear_2400_42687)"/>
</g>
<defs>
<linearGradient id="paint0_linear_2400_42687" x1="29.1666" y1="0.407812" x2="29.1666" y2="60.2682" gradientUnits="userSpaceOnUse">
<stop stop-color="#97F8FF"/>
<stop offset="0.325" stop-color="#69DCFE"/>
<stop offset="1" stop-color="#009CFC"/>
</linearGradient>
<linearGradient id="paint1_linear_2400_42687" x1="25" y1="-3.75625" x2="25" y2="56.1042" gradientUnits="userSpaceOnUse">
<stop stop-color="#97F8FF"/>
<stop offset="0.325" stop-color="#69DCFE"/>
<stop offset="1" stop-color="#009CFC"/>
</linearGradient>
<linearGradient id="paint2_linear_2400_42687" x1="20.8334" y1="8.9849" x2="20.8334" y2="33.5922" gradientUnits="userSpaceOnUse">
<stop stop-color="#DAA6FF" stop-opacity="0.6"/>
<stop offset="1" stop-color="#DCA6FF" stop-opacity="0.4"/>
</linearGradient>
<linearGradient id="paint3_linear_2400_42687" x1="36.2511" y1="39.7714" x2="5.66775" y2="2.2099" gradientUnits="userSpaceOnUse">
<stop stop-color="#F5EBFF" stop-opacity="0.2"/>
<stop offset="1" stop-color="#DAA6FF" stop-opacity="0.4"/>
</linearGradient>
<linearGradient id="paint4_linear_2400_42687" x1="26.2856" y1="42.984" x2="10.7783" y2="27.4772" gradientUnits="userSpaceOnUse">
<stop stop-color="#FF6201"/>
<stop offset="0.689" stop-color="#FDBD19"/>
<stop offset="1" stop-color="#FCE724"/>
</linearGradient>
<linearGradient id="paint5_linear_2400_42687" x1="8.12688" y1="54.6068" x2="8.12688" y2="28.4898" gradientUnits="userSpaceOnUse">
<stop stop-color="#FFCFAE" stop-opacity="0.4"/>
<stop offset="1" stop-color="#F4805D" stop-opacity="0.7"/>
</linearGradient>
<linearGradient id="paint6_linear_2400_42687" x1="16.697" y1="24.9139" x2="-0.443254" y2="24.9139" gradientUnits="userSpaceOnUse">
<stop stop-color="#FFFFF0" stop-opacity="0.3"/>
<stop offset="1" stop-color="#FF9A83" stop-opacity="0.4"/>
</linearGradient>
<clipPath id="clip0_2400_42687">
<rect width="50" height="50" fill="white"/>
</clipPath>
</defs>
</svg>
