<svg width="80" height="80" viewBox="0 0 80 80" fill="none" xmlns="http://www.w3.org/2000/svg">
<g clip-path="url(#clip0_3321_3835)">
<path opacity="0.4" d="M40.0005 34.6966L34.6973 40L40.0007 45.3032L45.3039 39.9998L40.0005 34.6966Z" fill="#0089F9"/>
<path opacity="0.1" d="M47.955 32.0441C47.4675 31.5566 47.4675 30.7641 47.955 30.2766L49.56 28.6716C48.1675 28.0091 46.4563 28.2404 45.3025 29.3929L40 34.6954L45.3038 39.9991L50.6075 34.6954C51.76 33.5429 51.9913 31.8316 51.3288 30.4379L49.7238 32.0429C49.235 32.5316 48.4425 32.5316 47.955 32.0441Z" fill="#0089F9"/>
<path opacity="0.2" d="M47.2925 32.7019C46.4387 31.8482 46.4387 30.4619 47.2925 29.6082L48.555 28.3457C47.4062 28.1607 46.19 28.5007 45.3038 29.3869L40 34.6907L45.3038 39.9944L50.6075 34.6907C51.4925 33.8057 51.8338 32.5882 51.6488 31.4394L50.3862 32.7019C49.5325 33.5557 48.1462 33.5557 47.2925 32.7019Z" fill="#0089F9"/>
<path opacity="0.3" d="M46.6287 33.3738C45.4087 32.1538 45.4087 30.1738 46.6287 28.9538L47.2075 28.375C46.51 28.5162 45.8437 28.855 45.3025 29.395L40 34.6988L45.3037 40.0025L50.6075 34.6988C51.1487 34.1575 51.4862 33.4925 51.6275 32.7937L51.0487 33.3725C49.8287 34.5937 47.8487 34.5938 46.6287 33.3738Z" fill="#0089F9"/>
<path opacity="0.4" d="M45.9663 34.0384C44.7713 32.8434 44.4788 31.0884 45.085 29.6172L40 34.7009L45.3038 40.0047L50.3888 34.9197C48.9163 35.5259 47.1613 35.2334 45.9663 34.0384Z" fill="#0089F9"/>
<path opacity="0.1" d="M32.0383 47.9641C31.5508 47.4766 30.7583 47.4766 30.2708 47.9641L28.6658 49.5691C28.0033 48.1766 28.2345 46.4653 29.387 45.3116L34.6908 40.0078L39.9945 45.3116L34.6908 50.6153C33.5383 51.7678 31.827 51.9991 30.4333 51.3366L32.0383 49.7316C32.5258 49.2453 32.5258 48.4516 32.0383 47.9641Z" fill="#0089F9"/>
<path opacity="0.2" d="M32.6999 47.3003C31.8462 46.4466 30.4599 46.4466 29.6062 47.3003L28.3437 48.5628C28.1587 47.4141 28.4987 46.1978 29.3849 45.3116L34.6887 40.0078L39.9924 45.3116L34.6887 50.6153C33.8037 51.5003 32.5862 51.8416 31.4374 51.6566L32.6999 50.3941C33.5537 49.5403 33.5537 48.1541 32.6999 47.3003Z" fill="#0089F9"/>
<path opacity="0.3" d="M33.363 46.6378C32.143 45.4178 30.163 45.4178 28.943 46.6378L28.3643 47.2166C28.5055 46.5191 28.8443 45.8528 29.3843 45.3116L34.688 40.0078L39.9918 45.3116L34.688 50.6153C34.1468 51.1566 33.4818 51.4941 32.783 51.6353L33.3618 51.0566C34.583 49.8366 34.5843 47.8578 33.363 46.6378Z" fill="#0089F9"/>
<path opacity="0.4" d="M34.0257 45.9741C32.8307 44.7791 31.0757 44.4866 29.6045 45.0928L34.6895 40.0078L39.9932 45.3116L34.9082 50.3966C35.5132 48.9241 35.2207 47.1703 34.0257 45.9741Z" fill="#0089F9"/>
<path d="M43.5357 18.7858L40.0007 22.322C35.1469 27.1758 35.1244 35.0258 39.9232 39.9145L39.9144 39.9233C35.0269 35.1233 27.1769 35.147 22.3219 40.0008L18.7869 43.5358C13.9057 48.417 13.9057 56.332 18.7869 61.2133C23.6682 66.0945 31.5832 66.0945 36.4644 61.2133L40.0007 57.677C44.8594 52.8183 44.8782 44.9583 40.0657 40.072L40.0732 40.0645C44.9607 44.877 52.8207 44.857 57.6782 39.9995L61.2132 36.4645C66.0944 31.5833 66.0944 23.6683 61.2132 18.787C56.3319 13.9045 48.4182 13.9045 43.5357 18.7858ZM34.6969 52.3733L31.1619 55.9083C29.2094 57.8608 26.0432 57.8608 24.0907 55.9083C22.1382 53.9558 22.1382 50.7895 24.0907 48.837L27.6257 45.302C29.5782 43.3495 32.7444 43.3495 34.6969 45.302C36.6494 47.2558 36.6494 50.4208 34.6969 52.3733ZM55.9107 31.1608L52.3757 34.6958C50.4232 36.6483 47.2569 36.6483 45.3044 34.6958C43.3519 32.7433 43.3519 29.577 45.3044 27.6245L48.8394 24.0895C50.7919 22.137 53.9582 22.137 55.9107 24.0895C57.8632 26.042 57.8632 29.2083 55.9107 31.1608Z" fill="url(#paint0_linear_3321_3835)"/>
<path opacity="0.05" d="M45.3037 27.6306L47.0437 25.8906C45.76 26.0781 44.5212 26.6456 43.535 27.6306L36.7725 34.3931C37.32 36.4481 38.3875 38.3931 40 40.0044C41.6125 41.6156 43.5562 42.6844 45.6112 43.2319L52.3737 36.4694C53.36 35.4831 53.9262 34.2456 54.1137 32.9606L52.3737 34.7006C50.4212 36.6531 47.255 36.6531 45.3025 34.7006C43.3512 32.7481 43.3512 29.5831 45.3037 27.6306Z" fill="#0089F9"/>
<path opacity="0.1" d="M45.3041 27.6319L46.3891 26.5469C45.4754 26.8056 44.6079 27.2669 43.8904 27.9844L36.9316 34.9431C37.5154 36.7944 38.5329 38.5381 40.0004 40.0056C41.4679 41.4731 43.2116 42.4906 45.0616 43.0756L52.0204 36.1169C52.7379 35.3994 53.2004 34.5319 53.4579 33.6181L52.3729 34.7031C50.4204 36.6556 47.2541 36.6556 45.3016 34.7031C43.3516 32.7494 43.3516 29.5844 45.3041 27.6319Z" fill="#0089F9"/>
<path opacity="0.2" d="M45.3045 27.6341L45.4933 27.4453C45.047 27.6828 44.6195 27.9666 44.2433 28.3416L37.1133 35.4716C37.7195 37.1241 38.6733 38.6803 40.0008 40.0078C41.3283 41.3353 42.8845 42.2891 44.5383 42.8941L51.6683 35.7641C52.0445 35.3878 52.327 34.9603 52.5645 34.5141L52.3758 34.7028C50.4233 36.6553 47.257 36.6553 45.3045 34.7028C43.352 32.7516 43.352 29.5866 45.3045 27.6341Z" fill="#0089F9"/>
<path opacity="0.3" d="M45.3032 34.6953C43.7194 33.1116 43.4432 30.7378 44.4294 28.8516L37.3057 35.9753C37.9157 37.4378 38.8094 38.8091 39.9994 39.9991C41.1894 41.1891 42.5607 42.0828 44.0232 42.6928L51.1469 35.5691C49.2607 36.5553 46.8869 36.2803 45.3032 34.6953Z" fill="#0089F9"/>
<path opacity="0.4" d="M45.304 34.7C44.029 33.425 43.6028 31.635 43.9928 30L37.5303 36.4625C38.129 37.7425 38.9428 38.9462 40.0003 40.0037C41.0565 41.06 42.2615 41.875 43.5403 42.4738L50.0028 36.0113C48.369 36.4025 46.579 35.9763 45.304 34.7Z" fill="#0089F9"/>
<path opacity="0.05" d="M27.5984 45.3359L25.8584 47.0759C26.0459 45.7922 26.6134 44.5534 27.5984 43.5672L34.3609 36.8047C36.4159 37.3522 38.3609 38.4197 39.9721 40.0322C41.5834 41.6447 42.6521 43.5884 43.1996 45.6434L36.4371 52.4059C35.4509 53.3922 34.2134 53.9584 32.9284 54.1459L34.6684 52.4059C36.6209 50.4534 36.6209 47.2872 34.6684 45.3347C32.7159 43.3822 29.5509 43.3822 27.5984 45.3359Z" fill="#0089F9"/>
<path opacity="0.1" d="M27.5987 45.3412L26.5137 46.4263C26.7724 45.5125 27.2337 44.645 27.9512 43.9275L34.9099 36.9688C36.7612 37.5537 38.5049 38.5713 39.9712 40.0388C41.4387 41.5063 42.4562 43.25 43.0412 45.1L36.0824 52.0588C35.3649 52.7763 34.4974 53.2388 33.5837 53.4963L34.6687 52.4113C36.6212 50.4588 36.6212 47.2925 34.6687 45.34C32.7162 43.3875 29.5512 43.3875 27.5987 45.3412Z" fill="#0089F9"/>
<path opacity="0.2" d="M27.5989 45.3397L27.4102 45.5284C27.6477 45.0822 27.9314 44.6547 28.3064 44.2784L35.4364 37.1484C37.0914 37.7534 38.6464 38.7072 39.9739 40.0347C41.3014 41.3622 42.2552 42.9184 42.8602 44.5722L35.7302 51.7022C35.3539 52.0784 34.9264 52.3609 34.4802 52.5984L34.6689 52.4097C36.6214 50.4572 36.6214 47.2909 34.6689 45.3384C32.7164 43.3859 29.5514 43.3859 27.5989 45.3397Z" fill="#0089F9"/>
<path opacity="0.3" d="M34.668 45.3334C33.0842 43.7497 30.7105 43.4734 28.8242 44.4597L35.948 37.3359C37.4105 37.9459 38.7817 38.8397 39.9717 40.0297C41.1617 41.2197 42.0555 42.5909 42.6655 44.0534L35.5417 51.1772C36.5292 49.2909 36.253 46.9172 34.668 45.3334Z" fill="#0089F9"/>
<path opacity="0.4" d="M34.6688 45.3362C33.3938 44.0612 31.6037 43.635 29.9688 44.025L36.4313 37.5625C37.7113 38.1612 38.915 38.975 39.9712 40.0325C41.0275 41.0887 41.8425 42.2938 42.4412 43.5725L35.9788 50.035C36.3713 48.4 35.945 46.6112 34.6688 45.3362Z" fill="#0089F9"/>
<path d="M50.6055 34.6994L34.6955 50.6094C33.2305 52.0744 30.8567 52.0744 29.3917 50.6094C27.9267 49.1444 27.9267 46.7706 29.3917 45.3056L45.3017 29.3956C46.7667 27.9306 49.1405 27.9306 50.6055 29.3956C52.0705 30.8606 52.0705 33.2356 50.6055 34.6994Z" fill="url(#paint1_linear_3321_3835)"/>
</g>
<defs>
<linearGradient id="paint0_linear_3321_3835" x1="59.4123" y1="59.4002" x2="22.0428" y2="22.032" gradientUnits="userSpaceOnUse">
<stop stop-color="#009CFC"/>
<stop offset="0.12" stop-color="#18ABFC"/>
<stop offset="0.416" stop-color="#4ECCFE"/>
<stop offset="0.672" stop-color="#76E4FE"/>
<stop offset="0.875" stop-color="#8EF3FF"/>
<stop offset="1" stop-color="#97F8FF"/>
</linearGradient>
<linearGradient id="paint1_linear_3321_3835" x1="29.3949" y1="50.5999" x2="50.6068" y2="29.3872" gradientUnits="userSpaceOnUse">
<stop stop-color="#DAA6FF" stop-opacity="0.6"/>
<stop offset="1" stop-color="#DCA6FF" stop-opacity="0.4"/>
</linearGradient>
<clipPath id="clip0_3321_3835">
<rect width="50" height="50" fill="white" transform="translate(15 15)"/>
</clipPath>
</defs>
</svg>
