<svg width="229" height="50" viewBox="0 0 229 50" fill="none" xmlns="http://www.w3.org/2000/svg">
<g id="Logo">
<path id="Vector" d="M12.2735 2.07313C12.456 2.07098 12.6363 2.07098 12.8231 2.06883C13.4178 2.06454 14.0146 2.06454 14.6093 2.06239C15.028 2.06239 15.4466 2.06024 15.8653 2.0581C16.7412 2.05595 17.6171 2.05595 18.4909 2.05595C19.6051 2.05595 20.7194 2.04951 21.8336 2.04307C22.6967 2.03877 23.5619 2.03663 24.4249 2.03663C24.835 2.03663 25.2472 2.03448 25.6572 2.03233C30.0605 1.99798 33.8691 2.76872 37.1689 5.95041C37.3234 6.10928 37.4802 6.26601 37.6412 6.42917C37.843 6.62024 37.843 6.62024 38.047 6.81346C40.7027 9.52928 41.5786 13.3014 41.5721 16.9726C41.5528 17.9451 41.4519 18.8189 41.2093 19.7678C41.0676 20.414 41.0247 20.6996 41.2973 21.3093C41.5185 21.6356 41.7525 21.9534 41.9929 22.2668C44.0282 24.8989 44.5413 28.5207 44.1613 31.7496C43.4958 35.6763 41.5764 38.9954 38.3819 41.4085C35.7068 43.214 32.7634 44.0663 29.5581 44.062C29.3628 44.0642 29.1695 44.0642 28.9677 44.0663C28.3301 44.0706 27.6946 44.0706 27.057 44.0728C26.6083 44.0728 26.1618 44.0749 25.7152 44.0771C24.7792 44.0792 23.8431 44.0792 22.9071 44.0792C21.7155 44.0792 20.5219 44.0857 19.3303 44.0921C18.4072 44.0985 17.4819 44.0985 16.5587 44.0985C16.1186 44.0985 15.6806 44.1007 15.2405 44.1028C12.1275 44.1243 9.31509 44.0213 6.72593 42.0676C6.53057 41.9302 6.53057 41.9302 6.33305 41.7885C4.49961 40.3737 3.45407 38.0894 3.07622 35.8416C2.84435 33.0356 3.43904 30.5323 5.22311 28.3275C5.32616 28.1965 5.42921 28.0634 5.53441 27.9282C6.80966 26.4769 8.90288 25.3991 10.805 25.1071C11.346 25.0857 11.8828 25.0728 12.4238 25.0706C12.5827 25.0685 12.7415 25.0663 12.9068 25.0663C13.2503 25.0621 13.596 25.0599 13.9416 25.0578C14.4891 25.0535 15.0366 25.0492 15.5862 25.0449C17.1448 25.0298 18.7034 25.017 20.2599 25.0041C21.2153 24.9976 22.1707 24.9891 23.126 24.9783C23.4867 24.9762 23.8474 24.974 24.2102 24.9719C28.0532 24.9955 28.0532 24.9955 31.6299 23.7524C31.8553 23.6279 32.0807 23.5056 32.3147 23.3789C32.9438 22.9431 33.3131 22.4901 33.7768 21.8868C31.4775 21.1676 29.2662 21.1569 26.8788 21.1676C26.194 21.1697 25.5112 21.1697 24.8264 21.1676C22.8813 21.1611 20.9362 21.1611 18.9933 21.1654C17.7975 21.1676 16.6038 21.1654 15.408 21.159C14.9571 21.1569 14.5041 21.159 14.0533 21.1611C10.4551 21.1848 7.69204 20.8241 4.9891 18.2371C2.84221 15.9979 2.32051 13.5826 2.37204 10.5748C2.48153 8.10589 3.86842 5.87957 5.62887 4.20284C7.59543 2.68284 9.83249 2.07098 12.2735 2.07313ZM8.87283 8.79075C8.15576 9.70533 7.8187 10.6263 7.79938 11.7964C8.05271 13.0931 8.48424 13.9454 9.51689 14.8021C9.72944 14.9888 9.72944 14.9888 9.94627 15.1778C10.9789 15.8218 12.237 15.693 13.4114 15.6909C13.6067 15.693 13.8042 15.693 14.006 15.693C14.4311 15.6952 14.8562 15.6973 15.2813 15.6973C15.9576 15.6995 16.6317 15.7016 17.308 15.7059C19.2273 15.7166 21.1488 15.7274 23.0702 15.7317C24.2467 15.7338 25.4211 15.7402 26.5976 15.7488C27.0441 15.751 27.4885 15.7531 27.9351 15.751C30.5371 15.7488 32.7999 15.9163 35.2796 16.7343C35.5651 16.8094 35.8507 16.8824 36.1384 16.9489C36.0353 13.9884 35.3032 11.7148 33.1112 9.65595C31.2134 8.07798 29.191 7.47041 26.7521 7.47256C26.5868 7.47041 26.4237 7.47041 26.2562 7.47041C25.7173 7.46827 25.1785 7.46612 24.6396 7.46612C24.2639 7.46612 23.8882 7.46612 23.5125 7.46397C22.7267 7.46397 21.9388 7.46183 21.1531 7.46397C20.1462 7.46397 19.1393 7.45968 18.1324 7.45538C17.3573 7.45324 16.5823 7.45324 15.8073 7.45324C15.4359 7.45324 15.0645 7.45324 14.6931 7.45109C14.1735 7.44894 13.654 7.44894 13.1344 7.45109C12.982 7.44894 12.8317 7.44894 12.6728 7.4468C11.1743 7.45538 10.0429 7.85041 8.87283 8.79075ZM37.6412 25.9659C37.4544 26.1784 37.2698 26.391 37.0766 26.61C34.6763 29.0016 31.1361 30.2897 27.7912 30.294C27.6259 30.294 27.4585 30.2962 27.2867 30.2962C26.9239 30.2983 26.5632 30.3005 26.2004 30.3026C25.6272 30.3048 25.054 30.3091 24.4807 30.3133C22.8534 30.3262 21.2239 30.3391 19.5944 30.3456C18.5961 30.3498 17.5978 30.3584 16.5995 30.367C16.2216 30.3713 15.8416 30.3735 15.4616 30.3735C14.9314 30.3735 14.3989 30.3799 13.8665 30.3842C13.6346 30.3842 13.6346 30.3842 13.3985 30.3821C12.0159 30.4057 10.8501 30.7298 9.77237 31.6144C8.84706 32.7501 8.53362 33.6475 8.583 35.0988C8.74401 36.2366 9.30865 36.9172 10.1073 37.733C11.3976 38.6025 12.7651 38.697 14.2851 38.6927C14.4526 38.6927 14.6201 38.6948 14.7918 38.6948C15.3393 38.697 15.8867 38.697 16.4363 38.697C16.8206 38.6991 17.2049 38.6991 17.5914 38.6991C18.3964 38.7013 19.2015 38.7013 20.0088 38.7013C21.0328 38.6991 22.059 38.7034 23.0831 38.7077C23.8775 38.712 24.674 38.712 25.4683 38.7098C25.8462 38.7098 26.224 38.712 26.6019 38.7141C29.9381 38.7313 33.3581 38.6089 35.9838 36.2624C37.8172 34.3259 38.8241 31.9965 38.7705 29.3301C38.6567 28.175 38.4828 26.8075 37.6412 25.9659Z" fill="#937DEC"/>
<path id="Vector_2" d="M217.712 15.4958C220.516 17.9111 221.937 20.7922 222.274 24.4591C222.366 27.9628 221.25 30.9985 218.858 33.5576C216.235 36.2434 212.948 37.5744 209.219 37.6217C206.116 37.6045 203.452 36.7093 201.02 34.7642C200.949 38.2357 200.878 41.7072 200.805 45.2839C196.726 47.2161 196.726 47.2161 196.297 47.2161C196.277 44.1654 196.262 41.1125 196.251 38.0618C196.247 36.6448 196.241 35.2279 196.232 33.8109C196.221 32.4412 196.217 31.0715 196.215 29.7018C196.213 29.1801 196.211 28.6606 196.206 28.1389C196.166 23.4672 196.541 19.9077 199.873 16.3696C204.695 11.5885 212.405 11.3652 217.712 15.4958ZM202.746 19.7509C201.196 21.5801 200.64 23.4865 200.726 25.8717C200.994 28.3535 202.216 29.8864 204.043 31.5116C205.87 32.9758 207.941 33.4095 210.251 33.2613C212.834 32.9135 214.743 31.6147 216.4 29.6159C217.68 27.7438 217.999 25.5368 217.645 23.332C217.066 21.0219 215.674 19.2786 213.686 18.0184C209.977 16.0003 205.642 16.7045 202.746 19.7509Z" fill="#FAFAFA"/>
<path id="Vector_3" d="M67.6482 15.0805C70.334 17.2488 72.0987 19.9217 72.6354 23.3847C72.6548 23.93 72.6634 24.4753 72.6634 25.0227C72.6634 25.4435 72.6634 25.4435 72.6634 25.875C72.6354 26.605 72.6354 26.605 72.4208 27.2491C65.5486 27.2491 58.6763 27.2491 51.5959 27.2491C53.0794 30.2182 54.17 31.6502 57.1757 32.7773C59.3226 33.4235 61.7035 33.196 63.6743 32.1418C64.2454 31.794 64.7821 31.4398 65.2823 30.9932C65.9006 30.5982 66.2914 30.6111 67.0235 30.6218C67.2639 30.624 67.5022 30.6261 67.7491 30.6283C67.9982 30.6326 68.2472 30.639 68.5027 30.6433C68.756 30.6476 69.0072 30.6497 69.267 30.6519C69.8896 30.6605 70.51 30.6712 71.1326 30.6841C70.0763 33.4085 67.9509 35.2505 65.336 36.4807C61.7421 37.8075 57.9421 38.093 54.331 36.6267C51.2116 35.1367 48.7899 32.8202 47.4545 29.5806C46.3575 26.3001 46.3811 22.8801 47.8324 19.707C49.5327 16.5146 52.2743 14.1509 55.7415 13.0731C59.8163 12.0705 64.211 12.5192 67.6482 15.0805ZM52.5641 20.5121C52.0897 21.2141 52.0897 21.2141 51.5959 22.9553C56.9095 22.9553 62.223 22.9553 67.6976 22.9553C67.3562 20.9007 66.2205 19.5439 64.5502 18.333C60.2457 15.6322 55.8446 16.9762 52.5641 20.5121Z" fill="#FAFAFA"/>
<path id="Vector_4" d="M132.319 14.7956C135.112 16.878 137.126 19.6712 137.686 23.1684C137.699 23.5484 137.706 23.9284 137.699 24.3084C137.697 24.4995 137.695 24.6884 137.695 24.8838C137.691 25.0255 137.688 25.1693 137.686 25.3153C137.469 25.2445 137.253 25.1736 137.029 25.1006C135.653 24.7121 134.509 24.8817 133.178 25.3153C133.159 25.1543 133.141 24.9933 133.122 24.828C132.8 22.4879 132.012 20.3968 130.099 18.9154C127.854 17.3675 125.548 16.8673 122.873 17.3182C120.692 17.8077 118.826 19.0335 117.574 20.9206C117.299 21.4466 117.07 21.9683 116.861 22.5244C116.78 22.7326 116.78 22.7326 116.696 22.943C116.108 24.7593 116.423 26.9534 117.205 28.6623C118.448 30.8006 120.168 31.9814 122.443 32.8295C125.101 33.3104 127.579 32.9905 129.887 31.5177C130.64 30.9058 131.196 30.1759 131.763 29.3901C131.875 29.2484 131.988 29.1089 132.104 28.9651C132.246 28.9651 132.388 28.9651 132.534 28.9651C132.587 29.8281 132.626 30.6912 132.652 31.5542C132.663 31.8483 132.678 32.1403 132.695 32.4344C132.755 33.3877 132.766 34.2614 132.534 35.191C131.907 35.8587 131.237 36.1657 130.387 36.4792C130.144 36.5801 129.902 36.681 129.651 36.7862C129.447 36.8484 129.243 36.9107 129.032 36.9751C128.721 37.0739 128.721 37.0739 128.403 37.1748C124.996 38.1151 121.185 37.6578 118.092 35.9725C114.961 34.094 113.021 31.4082 112.022 27.9195C111.35 24.8409 111.868 21.4853 113.414 18.7802C113.935 17.9687 114.478 17.2151 115.144 16.5131C115.286 16.5131 115.427 16.5131 115.573 16.5131C115.573 16.3714 115.573 16.2297 115.573 16.0837C120.292 12.0754 127.031 11.294 132.319 14.7956Z" fill="#FAFAFA"/>
<path id="Vector_5" d="M173.325 12.6484C174.813 12.6484 176.301 12.6484 177.834 12.6484C177.836 13.1401 177.838 13.6317 177.84 14.1384C177.846 15.7679 177.859 17.3974 177.872 19.0247C177.881 20.0123 177.889 20.9998 177.891 21.9874C177.896 22.9406 177.902 23.8939 177.913 24.8471C177.915 25.2099 177.917 25.5727 177.917 25.9356C177.911 28.8553 177.911 28.8553 179.298 31.3715C180.629 32.5158 182.02 33.2006 183.823 33.1191C185.429 32.8528 186.848 32.1165 187.924 30.897C189.092 29.2074 188.911 27.1679 188.914 25.2078C188.916 24.8449 188.92 24.48 188.924 24.1171C188.933 23.1682 188.937 22.2193 188.942 21.2682C188.946 20.2978 188.954 19.3253 188.963 18.3549C188.978 16.4527 188.989 14.5506 188.997 12.6484C190.485 12.6484 191.973 12.6484 193.506 12.6484C193.525 14.7567 193.54 16.8628 193.551 18.971C193.555 19.9479 193.562 20.9269 193.57 21.9058C193.581 22.8526 193.585 23.7994 193.587 24.7462C193.59 25.1047 193.592 25.4632 193.596 25.8239C193.641 29.3513 193.023 32.1401 190.567 34.8022C188.551 36.7237 186.02 37.5653 183.267 37.6189C180.122 37.5288 177.881 36.3716 175.687 34.1174C174.04 32.3011 173.289 30.1864 173.301 27.7604C173.301 27.5951 173.301 27.4319 173.301 27.2645C173.301 26.7256 173.301 26.1867 173.304 25.6479C173.304 25.2722 173.306 24.8986 173.306 24.525C173.306 23.5396 173.308 22.5563 173.31 21.5731C173.312 20.5683 173.314 19.5636 173.314 18.5588C173.316 16.588 173.321 14.6193 173.325 12.6484Z" fill="#FAFAFA"/>
<path id="Vector_6" d="M92.2687 13.6222C93.6813 14.6613 94.7848 15.8421 95.1777 17.5918C95.1777 18.1586 95.1777 18.7253 95.1777 19.3093C93.7608 19.3093 92.3438 19.3093 90.8839 19.3093C90.2399 18.0212 90.2399 18.0212 90.0252 17.3771C89.2738 17.0593 88.4644 17.0916 87.6636 17.1624C87.0732 17.5467 86.6911 17.8172 86.3755 18.4505C86.266 19.2599 86.3175 19.6442 86.7469 20.3484C87.7881 21.5378 89.4885 21.9908 90.9097 22.579C92.9578 23.4678 94.9867 24.6679 95.8926 26.8148C96.6097 28.9918 96.629 30.8853 95.8218 33.0494C94.7505 35.1512 93.1017 36.5682 90.8839 37.3432C88.9861 37.9314 86.6782 37.6931 84.8726 36.9138C82.7537 35.6793 81.2401 34.1465 80.5789 31.7613C80.5789 31.1236 80.5789 30.486 80.5789 29.8291C81.9958 29.8291 83.4128 29.8291 84.8726 29.8291C85.156 30.4667 85.4394 31.1043 85.7314 31.7613C86.5601 32.6866 87.26 33.0086 88.4708 33.0773C89.5572 33.0129 90.2699 32.5664 91.0729 31.8686C91.805 31.0056 91.82 30.2906 91.7427 29.185C91.1716 27.7208 89.6216 26.8964 88.2476 26.2888C87.6421 26.0291 87.0324 25.7757 86.4227 25.5267C84.2951 24.6143 82.7494 23.412 81.867 21.2415C81.2981 19.5347 81.5493 17.7335 82.2599 16.1147C82.5239 15.636 82.7966 15.2152 83.1551 14.8008C83.2968 14.8008 83.4385 14.8008 83.5845 14.8008C83.5845 14.6591 83.5845 14.5174 83.5845 14.3714C86.1522 12.4714 89.4455 11.881 92.2687 13.6222Z" fill="#FAFAFA"/>
<path id="Vector_7" d="M100.974 5.78125C102.423 6.2643 102.423 6.2643 103.093 6.58204C103.22 6.64215 103.349 6.70227 103.48 6.76238C103.636 6.83752 103.791 6.91266 103.954 6.9878C104.459 7.22826 104.963 7.46656 105.483 7.71345C105.483 9.41379 105.483 11.1141 105.483 12.866C106.616 12.866 107.75 12.866 108.918 12.866C108.918 14.2121 108.918 15.5582 108.918 16.9451C107.784 16.9451 106.651 16.9451 105.483 16.9451C105.491 18.624 105.504 20.3007 105.521 21.9796C105.53 22.7589 105.539 23.5361 105.541 24.3154C105.545 25.0689 105.551 25.8225 105.562 26.5761C105.566 27.0011 105.566 27.4241 105.566 27.8492C105.594 29.5087 105.689 30.8269 106.87 32.0957C108.003 33.1391 109.607 33.109 111.065 33.2615C111.065 34.6784 111.065 36.0954 111.065 37.5553C108.089 37.624 105.652 37.2762 103.389 35.1808C101.754 33.4504 100.944 31.4667 100.951 29.1072C100.951 28.8367 100.951 28.5662 100.951 28.2871C100.951 27.993 100.953 27.701 100.953 27.4069C100.953 27.1063 100.955 26.8036 100.955 26.5009C100.955 25.7109 100.957 24.9186 100.959 24.1264C100.961 23.3171 100.964 22.5098 100.964 21.7005C100.966 20.1161 100.97 18.5295 100.974 16.9451C99.9115 16.9451 98.8488 16.9451 97.7539 16.9451C97.7539 15.599 97.7539 14.2529 97.7539 12.866C98.8166 12.866 99.8793 12.866 100.974 12.866C100.974 10.528 100.974 8.19006 100.974 5.78125Z" fill="#FAFAFA"/>
<path id="Vector_8" d="M160.443 5.78125C161.893 6.2643 161.893 6.2643 162.562 6.58204C162.689 6.64215 162.818 6.70227 162.949 6.76238C163.106 6.83752 163.26 6.91266 163.423 6.9878C163.928 7.22826 164.432 7.46656 164.952 7.71345C164.952 9.41379 164.952 11.1141 164.952 12.866C166.086 12.866 167.219 12.866 168.387 12.866C168.387 14.2121 168.387 15.5582 168.387 16.9451C167.253 16.9451 166.12 16.9451 164.952 16.9451C164.961 18.624 164.973 20.3007 164.991 21.9796C164.999 22.7589 165.008 23.5361 165.01 24.3154C165.014 25.0689 165.021 25.8225 165.031 26.5761C165.036 27.0011 165.036 27.4241 165.036 27.8492C165.064 29.5087 165.158 30.8269 166.339 32.0957C167.472 33.1391 169.076 33.109 170.534 33.2615C170.534 34.6784 170.534 36.0954 170.534 37.5553C167.543 37.624 165.096 37.2783 162.846 35.14C160.641 32.7935 160.377 30.4576 160.401 27.3446C160.403 27.0441 160.403 26.7435 160.403 26.4408C160.405 25.655 160.409 24.8693 160.413 24.0835C160.418 23.2784 160.42 22.4733 160.422 21.6683C160.426 20.0946 160.435 18.5188 160.443 16.9451C159.381 16.9451 158.318 16.9451 157.223 16.9451C157.223 15.599 157.223 14.2529 157.223 12.866C158.286 12.866 159.349 12.866 160.443 12.866C160.443 10.528 160.443 8.19006 160.443 5.78125Z" fill="#FAFAFA"/>
<path id="Vector_9" d="M154.647 12.6484C154.647 14.0654 154.647 15.4823 154.647 16.9422C153.917 17.0624 153.917 17.0624 153.17 17.1827C150.987 17.5927 149.155 18.5953 147.777 20.3773C146.39 22.6315 146.208 24.7247 146.186 27.3203C146.182 27.6166 146.178 27.9128 146.173 28.2091C146.162 28.982 146.154 29.757 146.145 30.5299C146.137 31.3221 146.126 32.1122 146.115 32.9044C146.094 34.4544 146.077 36.0023 146.059 37.5524C145.546 37.8358 145.031 38.117 144.516 38.3983C144.372 38.4777 144.228 38.5571 144.078 38.6409C143.318 39.0531 142.644 39.4073 141.766 39.4846C141.379 39.0982 141.521 38.5185 141.519 37.9989C141.519 37.7263 141.517 37.4536 141.517 37.1724C141.514 36.8718 141.514 36.5713 141.514 36.2707C141.514 35.9615 141.514 35.6524 141.512 35.3432C141.512 34.6906 141.51 34.0401 141.51 33.3896C141.51 32.563 141.508 31.7386 141.504 30.9142C141.502 30.2723 141.502 29.6325 141.502 28.9906C141.502 28.6879 141.502 28.3852 141.499 28.0803C141.478 23.9669 141.785 20.388 144.557 17.1569C144.683 16.9852 144.812 16.8113 144.943 16.6331C145.512 15.9718 146.128 15.4974 146.837 14.9971C146.972 14.9027 147.105 14.8082 147.242 14.7116C149.557 13.1208 151.856 12.6484 154.647 12.6484Z" fill="#FAFAFA"/>
<path id="Vector_10" d="M137.686 30.8984C137.686 33.5198 137.686 36.1411 137.686 38.8419C136.237 38.3589 136.237 38.3589 135.567 38.0411C135.441 37.981 135.312 37.9209 135.181 37.8608C135.024 37.7857 134.87 37.7105 134.707 37.6354C134.202 37.3949 133.698 37.1566 133.178 36.9097C133.178 34.9969 133.178 33.084 133.178 31.1131C134.453 31.3257 134.453 31.3257 135.754 31.5425C136.227 31.403 137.186 30.8984 137.686 30.8984Z" fill="#FAFAFA"/>
<path id="Vector_11" d="M35.9238 14.3672C37.7659 14.3672 39.6079 14.3672 41.5057 14.3672C41.5057 15.2174 41.5057 16.0675 41.5057 16.9435C39.8763 16.9435 38.2468 16.9435 36.5679 16.9435C36.497 17.0852 36.4262 17.2268 36.3532 17.3728C35.9818 16.2371 35.9238 15.6467 35.9238 14.3672Z" fill="#629EF0"/>
<path id="Vector_12" d="M136.183 26.1758C136.774 26.5623 137.156 26.8306 137.472 27.464C137.551 28.312 137.547 28.8229 137.15 29.5851C136.43 30.1948 135.829 30.3215 134.895 30.2549C134.118 29.9179 133.867 29.6774 133.392 28.9668C133.246 27.4382 133.246 27.4382 133.796 26.7254C134.616 26.1221 135.162 26.0899 136.183 26.1758Z" fill="#49E1ED"/>
<path id="Vector_13" d="M225.28 14.58C225.872 15.0481 226.233 15.4109 226.568 16.0829C226.649 17.1563 226.587 17.7982 225.924 18.6591C225.061 19.2345 224.361 19.2388 223.347 19.0885C222.731 18.7042 222.383 18.4487 222.059 17.8004C221.939 16.8064 221.922 16.0872 222.463 15.2241C223.302 14.434 224.165 14.404 225.28 14.58ZM223.777 15.2241C223.777 15.295 223.777 15.3658 223.777 15.4388C224.131 15.4388 224.485 15.4388 224.85 15.4388C224.85 15.3679 224.85 15.2971 224.85 15.2241C224.496 15.2241 224.142 15.2241 223.777 15.2241ZM224.85 15.4388C224.891 15.6771 224.93 15.9176 224.97 16.1644C225.065 16.9416 225.065 16.9416 224.85 17.371C225.063 17.5835 225.275 17.7961 225.494 18.0151C225.999 17.3946 225.999 17.3946 225.898 16.6067C225.791 15.8531 225.791 15.8531 225.267 15.559C225.129 15.5204 224.992 15.4796 224.85 15.4388ZM223.133 15.6535C222.639 16.0571 222.639 16.0571 222.637 16.714C222.641 17.444 222.641 17.444 223.347 18.0151C223.347 17.2357 223.347 16.4564 223.347 15.6535C223.277 15.6535 223.206 15.6535 223.133 15.6535ZM223.991 16.0829C223.991 16.2954 223.991 16.5079 223.991 16.7269C224.275 16.6561 224.558 16.5852 224.85 16.5122C224.85 16.3705 224.85 16.2289 224.85 16.0829C224.567 16.0829 224.283 16.0829 223.991 16.0829ZM223.991 17.1563C223.921 17.5814 223.85 18.0065 223.777 18.4444C224.131 18.4444 224.485 18.4444 224.85 18.4444C224.638 18.0194 224.425 17.5943 224.206 17.1563C224.135 17.1563 224.064 17.1563 223.991 17.1563Z" fill="#FAFAFA"/>
<path id="Vector_14" d="M35.2795 12.4375C37.1924 12.4375 39.1053 12.4375 41.0762 12.4375C41.147 13.0751 41.2178 13.7128 41.2908 14.3697C39.4488 14.3697 37.6068 14.3697 35.7089 14.3697C35.5672 13.7321 35.4255 13.0944 35.2795 12.4375Z" fill="#7D5CF3"/>
<path id="Vector_15" d="M33.777 22.1016C35.1081 22.1853 35.896 23.1256 36.7827 24.0338C37.1777 24.5211 37.5148 25.0085 37.8561 25.5366C37.5577 26.2837 37.2915 26.4984 36.568 26.8247C36.4091 26.4598 36.4091 26.4598 36.246 26.0862C35.5547 24.6929 34.4447 23.6151 33.3477 22.5309C33.4894 22.3892 33.631 22.2476 33.777 22.1016Z" fill="#BA2EE9"/>
<path id="Vector_16" d="M35.7095 13.5078C37.5515 13.5078 39.3935 13.5078 41.2914 13.5078C41.2914 13.7912 41.2914 14.0746 41.2914 14.3666C39.4494 14.3666 37.6073 14.3666 35.7095 14.3666C35.7095 14.0832 35.7095 13.7998 35.7095 13.5078Z" fill="#6E7FF1"/>
<path id="Vector_17" d="M36.1384 16.0859C37.9096 16.0859 39.6808 16.0859 41.5057 16.0859C41.5057 16.3693 41.5057 16.6527 41.5057 16.9447C39.8762 16.9447 38.2467 16.9447 36.5678 16.9447C36.497 17.0864 36.4261 17.2281 36.3531 17.3741C36.2823 17.3032 36.2114 17.2324 36.1384 17.1594C36.1384 16.8051 36.1384 16.4509 36.1384 16.0859Z" fill="#48DCED"/>
<path id="Vector_18" d="M35.9238 15.2266C37.7659 15.2266 39.6079 15.2266 41.5057 15.2266C41.5057 15.51 41.5057 15.7933 41.5057 16.0853C39.7346 16.0853 37.9634 16.0853 36.1385 16.0853C36.0677 15.8019 35.9968 15.5185 35.9238 15.2266Z" fill="#55BDEF"/>
<path id="Vector_19" d="M135.969 26.3906C136.828 26.6053 136.828 26.6053 137.204 26.9531C137.584 27.6745 137.571 28.164 137.472 28.9669C137.083 29.5981 137.083 29.5981 136.613 30.0403C136.401 30.0403 136.188 30.0403 135.969 30.0403C135.969 28.8359 135.969 27.6315 135.969 26.3906Z" fill="#72B9EB"/>
<path id="Vector_20" d="M134.896 26.1797C135.321 26.1797 135.746 26.1797 136.184 26.1797C136.113 27.5258 136.042 28.8719 135.969 30.2588C135.615 30.2588 135.26 30.2588 134.896 30.2588C134.896 28.9127 134.896 27.5666 134.896 26.1797Z" fill="#5DCFEC"/>
<path id="Vector_21" d="M136.613 26.6094C137.472 27.4681 137.472 27.4681 137.579 28.2195C137.472 28.971 137.472 28.971 136.613 29.8297C136.613 28.767 136.613 27.7043 136.613 26.6094Z" fill="#82A7EB"/>
</g>
</svg>
