<svg width="165" height="36" viewBox="0 0 165 36" fill="none" xmlns="http://www.w3.org/2000/svg">
<path d="M8.52052 0.8979C8.65259 0.896325 8.78309 0.896325 8.91826 0.894751C9.34863 0.891602 9.78055 0.891602 10.2109 0.890027C10.5139 0.890027 10.8169 0.888452 11.1198 0.886878C11.7537 0.885303 12.3876 0.885303 13.02 0.885303C13.8263 0.885303 14.6327 0.880579 15.439 0.875856C16.0636 0.872706 16.6897 0.871132 17.3143 0.871132C17.6111 0.871132 17.9094 0.869557 18.2061 0.867983C21.3927 0.842789 24.1489 1.40807 26.5369 3.74163C26.6488 3.85815 26.7622 3.9731 26.8787 4.09277C27.0248 4.23291 27.0248 4.23291 27.1724 4.37462C29.0943 6.3665 29.7281 9.13308 29.7235 11.8256C29.7095 12.5389 29.6365 13.1798 29.4609 13.8758C29.3584 14.3497 29.3273 14.5592 29.5246 15.0063C29.6846 15.2457 29.854 15.4787 30.028 15.7086C31.5009 17.6391 31.8722 20.2954 31.5972 22.6636C31.1156 25.5436 29.7266 27.9779 27.4147 29.7478C25.4789 31.072 23.3488 31.6971 21.0291 31.694C20.8878 31.6956 20.7479 31.6956 20.6019 31.6971C20.1404 31.7003 19.6806 31.7003 19.2191 31.7019C18.8944 31.7019 18.5712 31.7034 18.2481 31.705C17.5707 31.7066 16.8933 31.7066 16.2159 31.7066C15.3536 31.7066 14.4897 31.7113 13.6274 31.716C12.9594 31.7208 12.2897 31.7208 11.6217 31.7208C11.3032 31.7208 10.9862 31.7223 10.6677 31.7239C8.41487 31.7397 6.37956 31.6641 4.50583 30.2312C4.36445 30.1304 4.36445 30.1304 4.22151 30.0265C2.89468 28.9888 2.13804 27.3134 1.86459 25.6648C1.6968 23.6068 2.12716 21.7708 3.41826 20.1537C3.49284 20.0577 3.56742 19.96 3.64355 19.8608C4.56643 18.7964 6.08126 18.006 7.45781 17.7918C7.84934 17.7761 8.23776 17.7666 8.62928 17.7651C8.74425 17.7635 8.85922 17.7619 8.97886 17.7619C9.22744 17.7588 9.47759 17.7572 9.72773 17.7556C10.1239 17.7525 10.5201 17.7493 10.9178 17.7462C12.0458 17.7351 13.1738 17.7257 14.3002 17.7162C14.9916 17.7115 15.683 17.7052 16.3743 17.6973C16.6354 17.6958 16.8964 17.6942 17.1589 17.6926C19.94 17.7099 19.94 17.7099 22.5284 16.7982C22.6916 16.7069 22.8547 16.6172 23.0241 16.5243C23.4793 16.2046 23.7465 15.8724 24.0821 15.4299C22.4181 14.9024 20.8178 14.8946 19.0902 14.9024C18.5945 14.904 18.1005 14.904 17.6048 14.9024C16.1972 14.8977 14.7896 14.8977 13.3835 14.9008C12.5181 14.9024 11.6543 14.9008 10.7889 14.8961C10.4626 14.8945 10.1348 14.8961 9.80852 14.8977C7.20456 14.915 5.20499 14.6505 3.24891 12.7531C1.69524 11.1108 1.3177 9.33935 1.35499 7.13333C1.43422 5.32254 2.4379 3.68967 3.71191 2.45991C5.13507 1.34509 6.754 0.896325 8.52052 0.8979ZM6.05951 5.82483C5.54058 6.49562 5.29665 7.17112 5.28267 8.02928C5.466 8.98034 5.77829 9.60546 6.52561 10.2337C6.67942 10.3707 6.67942 10.3707 6.83634 10.5093C7.58366 10.9817 8.49411 10.8872 9.34397 10.8856C9.48535 10.8872 9.62829 10.8872 9.77434 10.8872C10.082 10.8888 10.3896 10.8903 10.6972 10.8903C11.1866 10.8919 11.6745 10.8935 12.1639 10.8966C13.5529 10.9045 14.9434 10.9124 16.3339 10.9155C17.1854 10.9171 18.0352 10.9218 18.8866 10.9281C19.2098 10.9297 19.5314 10.9313 19.8546 10.9297C21.7376 10.9281 23.3752 11.0509 25.1697 11.6509C25.3763 11.706 25.583 11.7595 25.7911 11.8083C25.7166 9.63695 25.1868 7.96944 23.6005 6.4594C22.227 5.30207 20.7635 4.85645 18.9985 4.85803C18.8789 4.85645 18.7608 4.85645 18.6396 4.85645C18.2496 4.85488 17.8596 4.8533 17.4697 4.8533C17.1978 4.8533 16.9259 4.8533 16.654 4.85173C16.0854 4.85173 15.5152 4.85015 14.9465 4.85173C14.2178 4.85173 13.4892 4.84858 12.7605 4.84543C12.1996 4.84386 11.6387 4.84386 11.0779 4.84386C10.8091 4.84386 10.5403 4.84386 10.2715 4.84228C9.89552 4.84071 9.51954 4.84071 9.14355 4.84228C9.03324 4.84071 8.92448 4.84071 8.80951 4.83913C7.72504 4.84543 6.90626 5.13516 6.05951 5.82483ZM26.8787 18.4217C26.7435 18.5775 26.6099 18.7334 26.4701 18.894C24.7331 20.6481 22.1711 21.5929 19.7505 21.5961C19.6308 21.5961 19.5096 21.5976 19.3854 21.5976C19.1228 21.5992 18.8618 21.6008 18.5992 21.6024C18.1844 21.6039 17.7695 21.6071 17.3547 21.6102C16.177 21.6197 14.9978 21.6291 13.8185 21.6339C13.0961 21.637 12.3736 21.6433 11.6512 21.6496C11.3777 21.6527 11.1027 21.6543 10.8277 21.6543C10.444 21.6543 10.0587 21.659 9.67335 21.6622C9.50555 21.6622 9.50555 21.6622 9.33465 21.6606C8.33408 21.6779 7.49044 21.9157 6.7105 22.5644C6.04086 23.3974 5.81403 24.0556 5.84976 25.12C5.96629 25.9546 6.3749 26.4537 6.95287 27.0521C7.88663 27.6898 8.87632 27.7591 9.97631 27.7559C10.0975 27.7559 10.2187 27.7575 10.343 27.7575C10.7392 27.7591 11.1354 27.7591 11.5331 27.7591C11.8112 27.7606 12.0893 27.7606 12.369 27.7606C12.9516 27.7622 13.5342 27.7622 14.1184 27.7622C14.8595 27.7606 15.6022 27.7638 16.3433 27.7669C16.9181 27.7701 17.4945 27.7701 18.0694 27.7685C18.3428 27.7685 18.6163 27.7701 18.8897 27.7717C21.3041 27.7843 23.7791 27.6945 25.6793 25.9735C27.0061 24.5532 27.7348 22.8447 27.6959 20.8891C27.6136 20.0419 27.4878 19.0389 26.8787 18.4217Z" fill="#937DEC"/>
<path d="M157.193 10.7493C159.222 12.5207 160.251 14.6338 160.495 17.3233C160.561 19.893 159.754 22.1195 158.023 23.9964C156.124 25.9663 153.745 26.9425 151.047 26.9772C148.802 26.9646 146.874 26.308 145.113 24.8814C145.062 27.4275 145.011 29.9736 144.958 32.5969C142.006 34.0141 142.006 34.0141 141.695 34.0141C141.681 31.7766 141.67 29.5375 141.663 27.3C141.659 26.2607 141.655 25.2215 141.649 24.1822C141.641 23.1776 141.638 22.173 141.636 21.1684C141.635 20.7858 141.633 20.4048 141.63 20.0221C141.6 16.5958 141.872 13.9851 144.284 11.3902C147.773 7.88352 153.352 7.71976 157.193 10.7493ZM146.362 13.8702C145.241 15.2117 144.838 16.61 144.9 18.3594C145.095 20.1796 145.979 21.3039 147.301 22.4958C148.623 23.5697 150.122 23.8878 151.794 23.7791C153.663 23.5241 155.044 22.5714 156.244 21.1055C157.17 19.7324 157.401 18.1137 157.145 16.4966C156.725 14.8023 155.719 13.5238 154.28 12.5995C151.595 11.1193 148.458 11.6358 146.362 13.8702Z" fill="#030506"/>
<path d="M48.5939 10.4447C50.5375 12.035 51.8147 13.9954 52.2031 16.5352C52.2171 16.9352 52.2233 17.3351 52.2233 17.7367C52.2233 18.0453 52.2233 18.0453 52.2233 18.3618C52.2031 18.8972 52.2031 18.8972 52.0477 19.3695C47.0744 19.3695 42.1011 19.3695 36.9771 19.3695C38.0507 21.5472 38.8399 22.5975 41.0151 23.4241C42.5688 23.8981 44.2918 23.7312 45.7181 22.9581C46.1313 22.703 46.5197 22.4432 46.8818 22.1156C47.3292 21.8259 47.612 21.8354 48.1418 21.8432C48.3158 21.8448 48.4883 21.8464 48.6669 21.848C48.8471 21.8511 49.0274 21.8558 49.2123 21.859C49.3956 21.8621 49.5774 21.8637 49.7654 21.8653C50.2159 21.8716 50.6649 21.8795 51.1155 21.8889C50.3511 23.8871 48.813 25.2381 46.9206 26.1403C44.3197 27.1134 41.5697 27.3229 38.9565 26.2474C36.699 25.1546 34.9464 23.4556 33.9801 21.0796C33.1861 18.6736 33.2032 16.1652 34.2535 13.838C35.484 11.4965 37.4681 9.76288 39.9772 8.97243C42.9261 8.23709 46.1065 8.56618 48.5939 10.4447ZM37.6778 14.4284C37.3344 14.9433 37.3344 14.9433 36.9771 16.2203C40.8224 16.2203 44.6678 16.2203 48.6296 16.2203C48.3826 14.7134 47.5607 13.7183 46.352 12.8302C43.2368 10.8494 40.0518 11.8351 37.6778 14.4284Z" fill="#030506"/>
<path d="M95.3957 10.2336C97.417 11.761 98.8744 13.8096 99.2799 16.3746C99.2892 16.6533 99.2939 16.932 99.2892 17.2107C99.2877 17.3508 99.2861 17.4894 99.2861 17.6327C99.283 17.7366 99.2815 17.8421 99.2799 17.9492C99.123 17.8972 98.9661 17.8453 98.8045 17.7917C97.8086 17.5067 96.9805 17.6311 96.0172 17.9492C96.0032 17.8311 95.9908 17.713 95.9768 17.5918C95.7437 15.8754 95.1735 14.3418 93.7892 13.2553C92.1641 12.12 90.4954 11.7531 88.5596 12.0838C86.981 12.4428 85.6309 13.3419 84.7251 14.726C84.5262 15.1118 84.36 15.4944 84.2093 15.9022C84.1502 16.0549 84.1502 16.0549 84.0896 16.2093C83.6639 17.5414 83.8923 19.1506 84.4579 20.404C85.3574 21.9723 86.6019 22.8383 88.2488 23.4603C90.1723 23.813 91.9652 23.5784 93.6354 22.4982C94.1807 22.0495 94.5831 21.5141 94.9933 20.9378C95.0741 20.8339 95.1565 20.7315 95.2404 20.626C95.3429 20.626 95.4454 20.626 95.5511 20.626C95.5899 21.259 95.6179 21.892 95.6365 22.525C95.6443 22.7407 95.6552 22.9549 95.6676 23.1706C95.7111 23.8697 95.7189 24.5106 95.5511 25.1924C95.0974 25.6821 94.6127 25.9072 93.9974 26.1371C93.8219 26.2111 93.6463 26.2851 93.4645 26.3623C93.3169 26.408 93.1693 26.4536 93.017 26.5009C92.7918 26.5733 92.7918 26.5733 92.5618 26.6473C90.0961 27.337 87.3384 27.0016 85.0995 25.7655C82.8343 24.3877 81.4298 22.4179 80.7073 19.8592C80.221 17.6012 80.5954 15.1401 81.7141 13.1561C82.0916 12.5609 82.4847 12.0082 82.9663 11.4933C83.0689 11.4933 83.1714 11.4933 83.2771 11.4933C83.2771 11.3894 83.2771 11.2855 83.2771 11.1784C86.692 8.23861 91.569 7.66546 95.3957 10.2336Z" fill="#030506"/>
<path d="M125.071 8.66406C126.148 8.66406 127.224 8.66406 128.334 8.66406C128.335 9.02465 128.337 9.38523 128.338 9.75684C128.343 10.952 128.352 12.1471 128.362 13.3406C128.368 14.065 128.374 14.7893 128.376 15.5136C128.379 16.2127 128.383 16.9118 128.391 17.611C128.393 17.8771 128.394 18.1432 128.394 18.4093C128.39 20.5507 128.39 20.5507 129.393 22.3962C130.357 23.2354 131.363 23.7377 132.668 23.6779C133.831 23.4827 134.858 22.9426 135.636 22.0482C136.481 20.809 136.351 19.3131 136.352 17.8755C136.354 17.6094 136.357 17.3417 136.36 17.0756C136.366 16.3796 136.369 15.6836 136.372 14.9861C136.375 14.2744 136.382 13.5611 136.388 12.8494C136.399 11.4543 136.407 10.0592 136.413 8.66406C137.489 8.66406 138.566 8.66406 139.675 8.66406C139.689 10.2103 139.7 11.755 139.708 13.3013C139.711 14.0177 139.716 14.7357 139.722 15.4538C139.73 16.1482 139.733 16.8426 139.734 17.537C139.736 17.7999 139.738 18.0629 139.741 18.3274C139.773 20.9145 139.326 22.9599 137.548 24.9124C136.09 26.3217 134.258 26.9389 132.266 26.9783C129.99 26.9121 128.368 26.0634 126.78 24.4101C125.588 23.078 125.045 21.527 125.054 19.7477C125.054 19.6264 125.054 19.5068 125.054 19.384C125.054 18.9887 125.054 18.5935 125.055 18.1983C125.055 17.9227 125.057 17.6487 125.057 17.3748C125.057 16.652 125.058 15.9309 125.06 15.2097C125.062 14.4728 125.063 13.7359 125.063 12.9989C125.065 11.5535 125.068 10.1095 125.071 8.66406Z" fill="#030506"/>
<path d="M66.4119 9.36938C67.4342 10.1315 68.2328 10.9975 68.5171 12.2808C68.5171 12.6965 68.5171 13.1122 68.5171 13.5405C67.4917 13.5405 66.4663 13.5405 65.4098 13.5405C64.9437 12.5957 64.9437 12.5957 64.7883 12.1234C64.2445 11.8903 63.6588 11.9139 63.0793 11.9659C62.652 12.2478 62.3755 12.4462 62.1471 12.9107C62.0678 13.5043 62.1051 13.7861 62.4158 14.3026C63.1694 15.1749 64.3999 15.5072 65.4284 15.9386C66.9106 16.5905 68.3788 17.4707 69.0345 19.0453C69.5534 20.642 69.5674 22.0308 68.9832 23.618C68.2079 25.1595 67.0147 26.1987 65.4098 26.7672C64.0363 27.1986 62.3661 27.0238 61.0595 26.4523C59.526 25.5469 58.4307 24.4226 57.9521 22.6732C57.9521 22.2055 57.9521 21.7379 57.9521 21.2561C58.9776 21.2561 60.003 21.2561 61.0595 21.2561C61.2646 21.7237 61.4697 22.1914 61.681 22.6732C62.2807 23.3519 62.7872 23.5881 63.6634 23.6384C64.4496 23.5912 64.9654 23.2637 65.5465 22.7519C66.0763 22.1189 66.0872 21.5946 66.0312 20.7837C65.618 19.7098 64.4962 19.1052 63.5019 18.6595C63.0637 18.469 62.6225 18.2832 62.1812 18.1006C60.6416 17.4314 59.5229 16.5496 58.8844 14.9577C58.4726 13.7058 58.6544 12.3847 59.1687 11.1975C59.3598 10.8464 59.5571 10.5377 59.8166 10.2338C59.9191 10.2338 60.0216 10.2338 60.1273 10.2338C60.1273 10.1299 60.1273 10.026 60.1273 9.91892C61.9855 8.5254 64.3688 8.09238 66.4119 9.36938Z" fill="#030506"/>
<path d="M72.7119 3.625C73.7606 3.97929 73.7606 3.97929 74.2453 4.21233C74.337 4.25642 74.4302 4.3005 74.525 4.34459C74.6384 4.3997 74.7503 4.45482 74.8684 4.50993C75.2335 4.68628 75.5986 4.86106 75.9746 5.04214C75.9746 6.28923 75.9746 7.53631 75.9746 8.82119C76.7949 8.82119 77.6152 8.82119 78.4604 8.82119C78.4604 9.80847 78.4604 10.7957 78.4604 11.8129C77.6401 11.8129 76.8198 11.8129 75.9746 11.8129C75.9808 13.0443 75.9901 14.274 76.0025 15.5054C76.0087 16.077 76.015 16.647 76.0165 17.2185C76.0196 17.7712 76.0243 18.3239 76.0321 18.8766C76.0352 19.1884 76.0352 19.4986 76.0352 19.8103C76.0554 21.0275 76.1237 21.9943 76.9782 22.9249C77.7986 23.6902 78.9592 23.6681 80.0141 23.7799C80.0141 24.8192 80.0141 25.8584 80.0141 26.9291C77.8607 26.9795 76.0973 26.7244 74.4597 25.1876C73.2758 23.9185 72.6901 22.4636 72.6948 20.7331C72.6948 20.5347 72.6948 20.3363 72.6948 20.1316C72.6948 19.9158 72.6963 19.7017 72.6963 19.486C72.6963 19.2655 72.6979 19.0435 72.6979 18.8215C72.6979 18.242 72.6994 17.661 72.701 17.08C72.7025 16.4864 72.7041 15.8943 72.7041 15.3007C72.7056 14.1386 72.7087 12.975 72.7119 11.8129C71.9428 11.8129 71.1737 11.8129 70.3813 11.8129C70.3813 10.8257 70.3813 9.83838 70.3813 8.82119C71.1504 8.82119 71.9195 8.82119 72.7119 8.82119C72.7119 7.10645 72.7119 5.3917 72.7119 3.625Z" fill="#030506"/>
<path d="M115.748 3.625C116.797 3.97929 116.797 3.97929 117.282 4.21233C117.374 4.25642 117.467 4.3005 117.562 4.34459C117.675 4.3997 117.787 4.45482 117.905 4.50993C118.27 4.68628 118.635 4.86106 119.011 5.04214C119.011 6.28923 119.011 7.53631 119.011 8.82119C119.832 8.82119 120.652 8.82119 121.497 8.82119C121.497 9.80847 121.497 10.7957 121.497 11.8129C120.677 11.8129 119.856 11.8129 119.011 11.8129C119.017 13.0443 119.027 14.274 119.039 15.5054C119.045 16.077 119.052 16.647 119.053 17.2186C119.056 17.7712 119.061 18.3239 119.069 18.8766C119.072 19.1884 119.072 19.4986 119.072 19.8103C119.092 21.0275 119.16 21.9943 120.015 22.9249C120.835 23.6902 121.996 23.6681 123.051 23.7799C123.051 24.8192 123.051 25.8584 123.051 26.9291C120.886 26.9795 119.115 26.726 117.487 25.1577C115.891 23.4367 115.7 21.7235 115.717 19.4403C115.719 19.2199 115.719 18.9994 115.719 18.7774C115.721 18.2011 115.724 17.6248 115.727 17.0485C115.73 16.458 115.731 15.8675 115.733 15.2771C115.736 14.1229 115.742 12.9671 115.748 11.8129C114.979 11.8129 114.21 11.8129 113.418 11.8129C113.418 10.8257 113.418 9.83839 113.418 8.82119C114.187 8.82119 114.956 8.82119 115.748 8.82119C115.748 7.10645 115.748 5.39171 115.748 3.625Z" fill="#030506"/>
<path d="M111.553 8.66406C111.553 9.7033 111.553 10.7425 111.553 11.8133C111.025 11.9014 111.025 11.9014 110.485 11.9896C108.904 12.2904 107.579 13.0257 106.582 14.3326C105.578 15.986 105.446 17.5212 105.43 19.4249C105.427 19.6422 105.424 19.8595 105.421 20.0768C105.413 20.6436 105.407 21.2121 105.401 21.7789C105.395 22.36 105.387 22.9394 105.379 23.5204C105.364 24.6573 105.351 25.7926 105.339 26.9295C104.967 27.1373 104.595 27.3436 104.222 27.5499C104.118 27.6081 104.013 27.6664 103.905 27.7278C103.355 28.0301 102.867 28.2899 102.231 28.3466C101.952 28.0632 102.054 27.638 102.053 27.257C102.053 27.057 102.051 26.857 102.051 26.6508C102.05 26.4303 102.05 26.2099 102.05 25.9894C102.05 25.7627 102.05 25.5359 102.048 25.3092C102.048 24.8305 102.047 24.3534 102.047 23.8763C102.047 23.2701 102.045 22.6654 102.042 22.0608C102.04 21.59 102.04 21.1207 102.04 20.6499C102.04 20.4279 102.04 20.2059 102.039 19.9823C102.023 16.9654 102.245 14.3405 104.251 11.9707C104.343 11.8448 104.436 11.7172 104.531 11.5865C104.943 11.1015 105.388 10.7536 105.901 10.3867C105.999 10.3174 106.095 10.2481 106.195 10.1773C107.87 9.01048 109.534 8.66406 111.553 8.66406Z" fill="#030506"/>
<path d="M99.2798 22.0469C99.2798 23.9695 99.2798 25.8921 99.2798 27.8729C98.2311 27.5186 98.2311 27.5186 97.7463 27.2856C97.6547 27.2415 97.5614 27.1974 97.4667 27.1533C97.3532 27.0982 97.2414 27.0431 97.1233 26.988C96.7582 26.8116 96.3931 26.6368 96.0171 26.4558C96.0171 25.0528 96.0171 23.6498 96.0171 22.2043C96.94 22.3602 96.94 22.3602 97.8815 22.5193C98.2233 22.4169 98.9178 22.0469 99.2798 22.0469Z" fill="#030506"/>
<path d="M25.6357 9.92188C26.9688 9.92188 28.3018 9.92188 29.6753 9.92188C29.6753 10.5454 29.6753 11.169 29.6753 11.8114C28.4961 11.8114 27.3168 11.8114 26.1018 11.8114C26.0506 11.9153 25.9993 12.0192 25.9465 12.1263C25.6777 11.2934 25.6357 10.8603 25.6357 9.92188Z" fill="#629EF0"/>
<path d="M98.1922 18.5805C98.6195 18.8639 98.896 19.0608 99.1244 19.5253C99.1819 20.1472 99.1788 20.522 98.8914 21.081C98.3709 21.5282 97.9359 21.6211 97.26 21.5722C96.6976 21.325 96.5158 21.1487 96.1724 20.6275C96.0668 19.5064 96.0668 19.5064 96.4645 18.9836C97.058 18.5411 97.4527 18.5175 98.1922 18.5805Z" fill="#49E1ED"/>
<path d="M162.67 10.0801C163.099 10.4233 163.36 10.6894 163.602 11.1823C163.661 11.9696 163.616 12.4404 163.136 13.0718C162.512 13.4938 162.005 13.4969 161.272 13.3867C160.826 13.1049 160.574 12.9175 160.34 12.442C160.252 11.7129 160.24 11.1854 160.632 10.5524C161.239 9.97298 161.864 9.95094 162.67 10.0801ZM161.582 10.5524C161.582 10.6044 161.582 10.6564 161.582 10.7099C161.839 10.7099 162.095 10.7099 162.359 10.7099C162.359 10.6579 162.359 10.606 162.359 10.5524C162.103 10.5524 161.847 10.5524 161.582 10.5524ZM162.359 10.7099C162.389 10.8847 162.417 11.061 162.446 11.2421C162.515 11.8121 162.515 11.8121 162.359 12.127C162.513 12.2829 162.667 12.4388 162.825 12.5994C163.19 12.1444 163.19 12.1444 163.117 11.5665C163.04 11.0138 163.04 11.0138 162.661 10.7981C162.561 10.7697 162.462 10.7398 162.359 10.7099ZM161.116 10.8674C160.759 11.1634 160.759 11.1634 160.757 11.6452C160.761 12.1806 160.761 12.1806 161.272 12.5994C161.272 12.0278 161.272 11.4563 161.272 10.8674C161.22 10.8674 161.169 10.8674 161.116 10.8674ZM161.738 11.1823C161.738 11.3382 161.738 11.4941 161.738 11.6547C161.943 11.6027 162.148 11.5507 162.359 11.4972C162.359 11.3933 162.359 11.2894 162.359 11.1823C162.154 11.1823 161.949 11.1823 161.738 11.1823ZM161.738 11.9696C161.687 12.2814 161.635 12.5931 161.582 12.9143C161.839 12.9143 162.095 12.9143 162.359 12.9143C162.205 12.6026 162.052 12.2908 161.893 11.9696C161.842 11.9696 161.791 11.9696 161.738 11.9696Z" fill="#030506"/>
<path d="M25.1694 8.5C26.5538 8.5 27.9381 8.5 29.3643 8.5C29.4156 8.96766 29.4669 9.43531 29.5197 9.91714C28.1867 9.91714 26.8536 9.91714 25.4802 9.91714C25.3776 9.44949 25.2751 8.98183 25.1694 8.5Z" fill="#7D5CF3"/>
<path d="M24.0817 15.5859C25.045 15.6473 25.6152 16.337 26.2569 17.0031C26.5427 17.3605 26.7867 17.718 27.0337 18.1053C26.8177 18.6533 26.6251 18.8107 26.1015 19.0501C25.9865 18.7824 25.9865 18.7824 25.8685 18.5084C25.3682 17.4865 24.5649 16.696 23.771 15.9009C23.8735 15.7969 23.9761 15.693 24.0817 15.5859Z" fill="#BA2EE9"/>
<path d="M25.4805 9.28906C26.8135 9.28906 28.1466 9.28906 29.52 9.28906C29.52 9.49691 29.52 9.70476 29.52 9.9189C28.187 9.9189 26.8539 9.9189 25.4805 9.9189C25.4805 9.71106 25.4805 9.50321 25.4805 9.28906Z" fill="#6E7FF1"/>
<path d="M25.791 11.1797C27.0728 11.1797 28.3546 11.1797 29.6752 11.1797C29.6752 11.3875 29.6752 11.5954 29.6752 11.8095C28.496 11.8095 27.3167 11.8095 26.1018 11.8095C26.0505 11.9135 25.9992 12.0174 25.9464 12.1244C25.8951 12.0725 25.8438 12.0205 25.791 11.967C25.791 11.7072 25.791 11.4474 25.791 11.1797Z" fill="#48DCED"/>
<path d="M25.6357 10.5469C26.9688 10.5469 28.3018 10.5469 29.6753 10.5469C29.6753 10.7547 29.6753 10.9626 29.6753 11.1767C28.3935 11.1767 27.1117 11.1767 25.7911 11.1767C25.7398 10.9689 25.6886 10.761 25.6357 10.5469Z" fill="#55BDEF"/>
<path d="M98.0366 18.7344C98.6581 18.8918 98.6581 18.8918 98.93 19.1469C99.205 19.676 99.1957 20.035 99.1242 20.6239C98.843 21.0868 98.843 21.0868 98.5027 21.4112C98.3489 21.4112 98.1951 21.4112 98.0366 21.4112C98.0366 20.5278 98.0366 19.6445 98.0366 18.7344Z" fill="#72B9EB"/>
<path d="M97.2598 18.5781C97.5674 18.5781 97.875 18.5781 98.192 18.5781C98.1407 19.5654 98.0894 20.5527 98.0366 21.5699C97.7802 21.5699 97.5239 21.5699 97.2598 21.5699C97.2598 20.5826 97.2598 19.5953 97.2598 18.5781Z" fill="#5DCFEC"/>
<path d="M98.5029 18.8984C99.1244 19.5283 99.1244 19.5283 99.2021 20.0794C99.1244 20.6305 99.1244 20.6305 98.5029 21.2603C98.5029 20.4809 98.5029 19.7015 98.5029 18.8984Z" fill="#82A7EB"/>
</svg>
