<svg width="80" height="80" viewBox="0 0 80 80" fill="none" xmlns="http://www.w3.org/2000/svg">
<g clip-path="url(#clip0_3321_3480)">
<path d="M63.6348 67.5C65.0873 67.5 66.261 66.26 66.1335 64.8138C64.8523 50.1975 53.1373 43.75 43.7498 43.75C34.3523 43.75 22.6473 50.2075 21.3648 64.8138C21.2385 66.26 22.4123 67.5 23.8648 67.5H63.6348Z" fill="url(#paint0_linear_3321_3480)"/>
<path opacity="0.1" d="M43.7503 50C49.0416 50 53.6428 47.3025 56.3053 43.205C52.5728 41.1637 48.2953 40 43.7503 40C39.2053 40 34.9278 41.1637 31.1953 43.205C33.8578 47.3025 38.4591 50 43.7503 50Z" fill="#00C2FF"/>
<path opacity="0.2" d="M43.7496 50C48.7009 50 53.0459 47.6363 55.7659 43.9762C52.1896 42.04 48.0971 40.9375 43.7496 40.9375C39.4021 40.9375 35.3096 42.04 31.7334 43.9762C34.4534 47.6363 38.7984 50 43.7496 50Z" fill="#00C2FF"/>
<path opacity="0.3" d="M43.7505 50C48.3542 50 52.4392 47.9575 55.1767 44.7288C51.7667 42.9125 47.8805 41.875 43.7505 41.875C39.6205 41.875 35.7342 42.9125 32.3242 44.7288C35.063 47.9575 39.1467 50 43.7505 50Z" fill="#00C2FF"/>
<path opacity="0.4" d="M43.7496 50C48.0009 50 51.8096 48.26 54.5246 45.4525C51.2959 43.775 47.6371 42.8125 43.7496 42.8125C39.8621 42.8125 36.2034 43.775 32.9746 45.4525C35.6896 48.26 39.4984 50 43.7496 50Z" fill="#00C2FF"/>
<path d="M33.709 46.155C36.3615 48.5412 39.8702 50 43.7502 50C47.6302 50 51.139 48.5412 53.7915 46.155C50.5152 44.5412 46.9965 43.75 43.7502 43.75C40.5015 43.75 36.984 44.5425 33.709 46.155Z" fill="#11FEF0"/>
<path opacity="0.05" d="M43.7501 43.75C39.7363 43.75 35.3126 44.9425 31.4551 47.4362C34.6188 50.5637 38.9613 52.5 43.7501 52.5C48.5388 52.5 52.8826 50.5637 56.0451 47.435C52.1863 44.9412 47.7601 43.75 43.7501 43.75Z" fill="#0C98FE"/>
<path opacity="0.1" d="M43.7504 43.75C39.8866 43.75 35.6454 44.86 31.8916 47.1662C34.9554 50.1525 39.1354 52 43.7504 52C48.3654 52 52.5454 50.1525 55.6091 47.1662C51.8541 44.86 47.6116 43.75 43.7504 43.75Z" fill="#0C98FE"/>
<path opacity="0.2" d="M43.7496 43.75C40.0359 43.75 35.9696 44.77 32.3271 46.8975C35.2909 49.7425 39.3096 51.5 43.7496 51.5C48.1896 51.5 52.2084 49.7425 55.1721 46.8975C51.5271 44.77 47.4609 43.75 43.7496 43.75Z" fill="#0C98FE"/>
<path opacity="0.3" d="M43.7496 43.75C40.1883 43.75 36.3046 44.69 32.7783 46.6425C35.6408 49.34 39.4908 51 43.7496 51C48.0083 51 51.8583 49.3387 54.7208 46.6412C51.1933 44.69 47.3083 43.75 43.7496 43.75Z" fill="#0C98FE"/>
<path opacity="0.4" d="M43.7497 43.75C40.3434 43.75 36.6434 44.615 33.2422 46.3975C36.0009 48.94 39.6797 50.5 43.7497 50.5C47.8197 50.5 51.4984 48.94 54.2572 46.3975C50.8547 44.615 47.1534 43.75 43.7497 43.75Z" fill="#0C98FE"/>
<path d="M58.75 35C58.75 43.3337 52.0837 50 43.75 50C35.4163 50 28.75 43.3337 28.75 35C28.75 26.6663 35.4163 20 43.75 20C52.0837 20 58.75 26.6663 58.75 35Z" fill="url(#paint1_linear_3321_3480)"/>
<path d="M43.75 20.625C51.6763 20.625 58.125 27.0738 58.125 35C58.125 42.9263 51.6763 49.375 43.75 49.375C35.8238 49.375 29.375 42.9263 29.375 35C29.375 27.0738 35.8238 20.625 43.75 20.625ZM43.75 20C35.4663 20 28.75 26.7163 28.75 35C28.75 43.2838 35.4663 50 43.75 50C52.0338 50 58.75 43.2838 58.75 35C58.75 26.7163 52.0338 20 43.75 20Z" fill="url(#paint2_linear_3321_3480)"/>
</g>
<defs>
<linearGradient id="paint0_linear_3321_3480" x1="43.7498" y1="70.6713" x2="43.7498" y2="47.0875" gradientUnits="userSpaceOnUse">
<stop stop-color="#9E85B0"/>
<stop offset="0.689" stop-color="#24B2FD"/>
<stop offset="1" stop-color="#92F5FF"/>
</linearGradient>
<linearGradient id="paint1_linear_3321_3480" x1="43.75" y1="51.3637" x2="43.75" y2="21.3637" gradientUnits="userSpaceOnUse">
<stop stop-color="#BBFFF7" stop-opacity="0.4"/>
<stop offset="1" stop-color="#5DF4E2" stop-opacity="0.3"/>
</linearGradient>
<linearGradient id="paint2_linear_3321_3480" x1="43.75" y1="50.815" x2="43.75" y2="20.815" gradientUnits="userSpaceOnUse">
<stop stop-color="#FFFFF0" stop-opacity="0.2"/>
<stop offset="1" stop-color="#7A92C7"/>
</linearGradient>
<clipPath id="clip0_3321_3480">
<rect width="80" height="80" fill="white"/>
</clipPath>
</defs>
</svg>
