<svg width="27" height="28" viewBox="0 0 27 28" fill="none" xmlns="http://www.w3.org/2000/svg">
<path opacity="0.1" d="M16.3125 8.86719C11.6527 8.86719 7.875 12.2669 7.875 16.4609C7.875 17.5196 8.12756 18.5219 8.56294 19.4366C9.08494 19.5131 9.6075 19.5547 10.125 19.5547C15.7078 19.5547 20.25 15.3911 20.25 10.2734C20.25 10.0934 20.2314 9.91737 20.2208 9.74019C19.0519 9.18669 17.7249 8.86719 16.3125 8.86719Z" fill="#0040BC"/>
<path opacity="0.2" d="M16.3125 8.86719C11.6527 8.86719 7.875 12.2669 7.875 16.4609C7.875 17.3463 8.04544 18.1957 8.35538 18.9854C8.37225 18.9866 8.38856 18.9815 8.40544 18.9843C8.973 19.0833 9.549 19.1322 10.125 19.1322C15.4772 19.1322 19.8281 15.1593 19.8281 10.2729C19.8281 10.0276 19.8096 9.78631 19.7876 9.54556C18.7284 9.11187 17.5528 8.86719 16.3125 8.86719Z" fill="#00BC73"/>
<path opacity="0.3" d="M16.3125 8.86719C11.6527 8.86719 7.875 12.2669 7.875 16.4609C7.875 17.1849 7.99988 17.8807 8.21081 18.5439C8.25075 18.5416 8.29013 18.5349 8.33063 18.5422C8.91731 18.6536 9.5175 18.7109 10.125 18.7109C15.246 18.7109 19.4062 14.9293 19.4062 10.2734C19.4062 9.97306 19.3877 9.67662 19.3539 9.38412C18.4101 9.05281 17.3863 8.86719 16.3125 8.86719Z" fill="#0062BC"/>
<path opacity="0.4" d="M16.3125 8.86719C11.6527 8.86719 7.875 12.2669 7.875 16.4609C7.875 17.0246 7.94869 17.5724 8.07806 18.1006C8.13656 18.0928 8.19562 18.0871 8.25525 18.0995C8.8605 18.2227 9.486 18.2891 10.125 18.2891C15.0154 18.2891 18.9844 14.6981 18.9844 10.2734C18.9844 9.92244 18.9512 9.57931 18.9028 9.24069C18.0866 9.00162 17.2176 8.86719 16.3125 8.86719Z" fill="#0062BC"/>
<path d="M10.125 2.67969C5.46525 2.67969 1.6875 6.07944 1.6875 10.2734C1.6875 12.1775 2.47275 13.9128 3.75975 15.2459C3.88069 15.3714 3.93919 15.5407 3.91612 15.7134C3.85312 16.1786 3.59775 17.0971 2.54025 17.9038C2.16225 18.1918 2.27194 18.8004 2.73656 18.9005C2.99081 18.9551 3.29569 18.9922 3.65625 18.9922C5.97375 18.9922 7.26469 18.1501 7.70344 17.7693C7.83394 17.6557 8.01113 17.6208 8.18044 17.6568C8.80481 17.7912 9.4545 17.8672 10.125 17.8672C14.7847 17.8672 18.5625 14.4674 18.5625 10.2734C18.5625 6.07944 14.7847 2.67969 10.125 2.67969Z" fill="url(#paint0_linear_2565_7773)"/>
<path d="M16.8767 8.88575C16.6899 8.8745 16.5021 8.86719 16.3125 8.86719C11.6527 8.86719 7.875 12.2669 7.875 16.4609C7.875 16.6966 7.89638 16.9278 7.91944 17.1579C7.93688 17.3092 7.95713 17.4599 7.983 17.6096C7.98581 17.6253 7.98919 17.6411 7.992 17.6568C8.05444 17.6501 8.11687 17.6433 8.17987 17.6568C8.80481 17.7912 9.4545 17.8672 10.125 17.8672C14.7847 17.8672 18.5625 14.4674 18.5625 10.2734C18.5625 9.88137 18.5192 9.5 18.4556 9.12369C17.9454 9.00331 17.4184 8.92062 16.8767 8.88575Z" fill="#00BC73"/>
<path opacity="0.4" d="M8.18034 17.6552C8.80471 17.7897 9.4544 17.8656 10.1249 17.8656C14.7847 17.8656 18.5624 14.4659 18.5624 10.2719C18.5624 9.79712 18.5118 9.33362 18.419 8.88362C17.7434 8.73062 17.0403 8.64062 16.3124 8.64062C11.53 8.64062 7.6499 12.1427 7.6499 16.4594C7.6499 16.8936 7.6994 17.3166 7.77478 17.7317C7.89571 17.6569 8.03803 17.6249 8.18034 17.6552Z" fill="#00BC73"/>
<path opacity="0.3" d="M7.70349 17.7662C7.83399 17.6526 8.01117 17.6177 8.18049 17.6537C8.80486 17.7881 9.45455 17.8641 10.125 17.8641C14.7848 17.8641 18.5625 14.4643 18.5625 10.2703C18.5625 9.7095 18.4911 9.16387 18.3623 8.63794C17.703 8.49675 17.019 8.41406 16.3125 8.41406C11.4075 8.41406 7.42505 12.0186 7.42505 16.4578C7.42505 16.941 7.48074 17.4118 7.57074 17.8719C7.62024 17.8342 7.66692 17.7977 7.70349 17.7662Z" fill="#0C1A67"/>
<path opacity="0.2" d="M7.70339 17.7724C7.83389 17.6588 8.01108 17.6239 8.18039 17.6599C8.80476 17.7944 9.45445 17.8703 10.125 17.8703C14.7847 17.8703 18.5625 14.4706 18.5625 10.2766C18.5625 9.628 18.4702 8.99969 18.3003 8.39894C17.6596 8.26956 16.9959 8.19531 16.3125 8.19531C11.2848 8.19531 7.19995 11.9016 7.19995 16.4641C7.19995 16.9967 7.2607 17.5165 7.36701 18.0216C7.5082 17.9288 7.62295 17.8422 7.70339 17.7724Z" fill="#0C1A67"/>
<path opacity="0.1" d="M7.70354 17.7709C7.83404 17.6573 8.01122 17.6224 8.18054 17.6584C8.80491 17.7928 9.4546 17.8688 10.1251 17.8688C14.7848 17.8688 18.5626 14.469 18.5626 10.275C18.5626 9.53588 18.4411 8.82375 18.2217 8.14819C17.6052 8.03175 16.9668 7.96875 16.3126 7.96875C11.1623 7.96875 6.9751 11.7774 6.9751 16.4625C6.9751 17.0391 7.03979 17.6021 7.16072 18.1466C7.40204 18.0054 7.5871 17.8716 7.70354 17.7709Z" fill="#0C1A67"/>
<path opacity="0.05" d="M7.70344 17.7693C7.83394 17.6557 8.01113 17.6208 8.18044 17.6568C8.80481 17.7912 9.4545 17.8672 10.125 17.8672C14.7847 17.8672 18.5625 14.4674 18.5625 10.2734C18.5625 9.44656 18.4146 8.65119 18.1429 7.90644C17.55 7.80125 16.9386 7.74219 16.3125 7.74219C11.0396 7.74219 6.75 11.6532 6.75 16.4609C6.75 17.0769 6.82256 17.6776 6.95644 18.2576C7.30294 18.0759 7.55662 17.897 7.70344 17.7693Z" fill="#0C1A67"/>
<path d="M7.875 16.4609C7.875 20.6549 11.6528 24.0547 16.3125 24.0547C16.983 24.0547 17.6327 23.9788 18.2571 23.8443C18.4264 23.8077 18.603 23.8432 18.7341 23.9568C19.1728 24.3376 20.4637 25.1797 22.7812 25.1797C23.1418 25.1797 23.4467 25.1426 23.7009 25.088C24.1656 24.9879 24.2747 24.3792 23.8973 24.0912C22.8398 23.2846 22.5844 22.3666 22.5214 21.9009C22.4983 21.7282 22.5568 21.5589 22.6778 21.4334C23.9648 20.1003 24.75 18.365 24.75 16.4609C24.75 12.2669 20.9722 8.86719 16.3125 8.86719C11.6528 8.86719 7.875 12.2669 7.875 16.4609Z" fill="url(#paint1_linear_2565_7773)"/>
<path d="M16.3125 9.14844C20.8097 9.14844 24.4688 12.4289 24.4688 16.4609C24.4688 18.2103 23.7611 19.9068 22.4753 21.2377C22.293 21.4267 22.2081 21.6821 22.2424 21.938C22.3121 22.4561 22.5979 23.4534 23.7262 24.314C23.8382 24.3995 23.8567 24.5261 23.8365 24.6155C23.8258 24.6644 23.7847 24.7809 23.6413 24.8118C23.3786 24.8686 23.0889 24.8973 22.7807 24.8973C20.4548 24.8973 19.3179 24.0974 18.9366 23.7537C18.7886 23.6204 18.5946 23.5468 18.3898 23.5468C18.3274 23.5468 18.2649 23.5535 18.2031 23.567C17.5725 23.7042 16.9363 23.7734 16.3125 23.7734C11.8153 23.7734 8.15625 20.4929 8.15625 16.4609C8.15625 12.4289 11.8153 9.14844 16.3125 9.14844ZM16.3125 8.86719C11.6527 8.86719 7.875 12.2669 7.875 16.4609C7.875 20.6549 11.6527 24.0547 16.3125 24.0547C16.9852 24.0547 17.6361 23.9782 18.2627 23.8432C18.3054 23.8342 18.3482 23.8297 18.3904 23.8297C18.5214 23.8297 18.6491 23.8741 18.7487 23.9641C19.1807 24.3534 20.3833 25.1797 22.7812 25.1797C23.1418 25.1797 23.4467 25.1426 23.7009 25.088C24.1656 24.9879 24.2747 24.3792 23.8973 24.0912C22.8398 23.2846 22.5844 22.3666 22.5214 21.9009C22.4983 21.7282 22.5568 21.5589 22.6778 21.4334C23.9648 20.1003 24.75 18.365 24.75 16.4609C24.75 12.2669 20.9722 8.86719 16.3125 8.86719Z" fill="url(#paint2_linear_2565_7773)"/>
<path opacity="0.05" d="M13.4994 15.0541H20.2506C20.871 15.0541 21.375 14.5501 21.375 13.9297C21.375 13.3092 20.871 12.8047 20.2506 12.8047H13.4994C12.879 12.8047 12.375 13.3092 12.375 13.9297C12.375 14.5501 12.879 15.0541 13.4994 15.0541Z" fill="#00BC73"/>
<path opacity="0.05" d="M20.2506 15.6172H13.4994C12.879 15.6172 12.375 16.1217 12.375 16.7427C12.375 17.3632 12.879 17.8672 13.4994 17.8672H20.2506C20.871 17.8672 21.375 17.3626 21.375 16.7416C21.375 16.1212 20.871 15.6172 20.2506 15.6172Z" fill="#00BC73"/>
<path opacity="0.05" d="M18.0006 18.4297H13.4994C12.879 18.4297 12.375 18.9342 12.375 19.5552C12.375 20.1757 12.879 20.6797 13.4994 20.6797H18.0006C18.621 20.6797 19.125 20.1751 19.125 19.5541C19.125 18.9337 18.621 18.4297 18.0006 18.4297Z" fill="#00BC73"/>
<path opacity="0.1" d="M13.4994 12.9453H20.2506C20.7934 12.9453 21.2344 13.3869 21.2344 13.9297C21.2344 14.4725 20.7934 14.9135 20.2506 14.9135H13.4994C12.9566 14.9135 12.5156 14.4725 12.5156 13.9297C12.5156 13.3869 12.9566 12.9453 13.4994 12.9453ZM13.4994 15.7573H20.2506C20.7934 15.7573 21.2344 16.1983 21.2344 16.7411V16.7422C21.2338 17.285 20.7928 17.726 20.2506 17.726H13.4994C12.9566 17.726 12.5156 17.285 12.5156 16.7422V16.7411C12.5162 16.1983 12.9572 15.7573 13.4994 15.7573ZM13.4994 18.5698H18.0006C18.5434 18.5698 18.9844 19.0108 18.9844 19.5536V19.5547C18.9838 20.0975 18.5428 20.5385 18.0006 20.5385H13.4994C12.9566 20.5385 12.5156 20.0975 12.5156 19.5547V19.5536C12.5162 19.0108 12.9572 18.5698 13.4994 18.5698Z" fill="#00BC73"/>
<path opacity="0.15" d="M13.4994 13.0859H20.25C20.7152 13.0859 21.0932 13.4639 21.0932 13.9297C21.0932 14.3949 20.7152 14.7729 20.25 14.7729H13.4994C13.0343 14.7729 12.6562 14.3949 12.6562 13.9297C12.6562 13.4639 13.0343 13.0859 13.4994 13.0859ZM13.4994 15.8979H20.25C20.7152 15.8979 21.0932 16.2759 21.0932 16.7411V16.7422C21.0926 17.2074 20.7152 17.5854 20.25 17.5854H13.4994C13.0343 17.5854 12.6562 17.2074 12.6562 16.7422V16.7411C12.6568 16.2759 13.0343 15.8979 13.4994 15.8979ZM13.4994 18.7104H18C18.4652 18.7104 18.8432 19.0884 18.8432 19.5536V19.5547C18.8426 20.0199 18.4652 20.3979 18 20.3979H13.4994C13.0343 20.3979 12.6562 20.0199 12.6562 19.5547V19.5536C12.6568 19.0884 13.0343 18.7104 13.4994 18.7104Z" fill="#00BC73"/>
<path opacity="0.2" d="M13.4994 13.2266H20.25C20.6381 13.2266 20.9526 13.5416 20.9526 13.9297C20.9526 14.3178 20.6376 14.6323 20.25 14.6323H13.4994C13.1113 14.6323 12.7969 14.3173 12.7969 13.9297C12.7969 13.5416 13.1119 13.2266 13.4994 13.2266ZM13.4994 16.0385H20.25C20.6381 16.0385 20.9526 16.3535 20.9526 16.7411C20.9526 17.1292 20.6376 17.4442 20.25 17.4442H13.4994C13.1113 17.4442 12.7969 17.1292 12.7969 16.7416C12.7969 16.3541 13.1119 16.0385 13.4994 16.0385ZM13.4994 18.851H18C18.3881 18.851 18.7026 19.166 18.7026 19.5536C18.7026 19.9417 18.3876 20.2567 18 20.2567H13.4994C13.1113 20.2567 12.7969 19.9417 12.7969 19.5541C12.7969 19.1666 13.1119 18.851 13.4994 18.851Z" fill="#00BC73"/>
<path opacity="0.3" d="M13.4994 13.3672H20.25C20.5605 13.3672 20.8125 13.6186 20.8125 13.9291C20.8125 14.2402 20.5611 14.4916 20.25 14.4916H13.4994C13.1889 14.4916 12.9375 14.2402 12.9375 13.9297C12.9375 13.6186 13.1889 13.3672 13.4994 13.3672ZM13.4994 16.1791H20.25C20.5605 16.1791 20.8125 16.4306 20.8125 16.7411C20.8125 17.0521 20.5611 17.3041 20.25 17.3041H13.4994C13.1889 17.3041 12.9375 17.0527 12.9375 16.7422C12.9375 16.4311 13.1889 16.1791 13.4994 16.1791ZM13.4994 18.9916H18C18.3105 18.9916 18.5625 19.2431 18.5625 19.5541C18.5625 19.8646 18.3111 20.1166 18 20.1166H13.4994C13.1889 20.1166 12.9375 19.8652 12.9375 19.5541C12.9375 19.2431 13.1889 18.9916 13.4994 18.9916Z" fill="#00BC73"/>
<path d="M13.4994 13.3672H20.25C20.5605 13.3672 20.8125 13.6186 20.8125 13.9291C20.8125 14.2402 20.5611 14.4916 20.25 14.4916H13.4994C13.1889 14.4916 12.9375 14.2402 12.9375 13.9297C12.9375 13.6186 13.1889 13.3672 13.4994 13.3672ZM13.4994 16.1791H20.25C20.5605 16.1791 20.8125 16.4306 20.8125 16.7411C20.8125 17.0521 20.5611 17.3041 20.25 17.3041H13.4994C13.1889 17.3041 12.9375 17.0527 12.9375 16.7422C12.9375 16.4311 13.1889 16.1791 13.4994 16.1791ZM13.4994 18.9916H18C18.3105 18.9916 18.5625 19.2431 18.5625 19.5541C18.5625 19.8646 18.3111 20.1166 18 20.1166H13.4994C13.1889 20.1166 12.9375 19.8652 12.9375 19.5541C12.9375 19.2431 13.1889 18.9916 13.4994 18.9916Z" fill="white"/>
<defs>
<linearGradient id="paint0_linear_2565_7773" x1="10.125" y1="14.315" x2="10.125" y2="1.724" gradientUnits="userSpaceOnUse">
<stop stop-color="#18ABFC"/>
<stop offset="0.762" stop-color="#72E1FE"/>
<stop offset="1" stop-color="#97F8FF"/>
</linearGradient>
<linearGradient id="paint1_linear_2565_7773" x1="10.0637" y1="9.98544" x2="19.2133" y2="19.4675" gradientUnits="userSpaceOnUse">
<stop stop-color="#9F3FFF"/>
<stop offset="1" stop-color="#9E86AF" stop-opacity="0.5"/>
</linearGradient>
<linearGradient id="paint2_linear_2565_7773" x1="9.78188" y1="8.456" x2="18.1344" y2="18.6946" gradientUnits="userSpaceOnUse">
<stop stop-color="white" stop-opacity="0.3"/>
<stop offset="1" stop-color="#278EFF" stop-opacity="0.2"/>
</linearGradient>
</defs>
</svg>
