<svg width="27" height="27" viewBox="0 0 27 27" fill="none" xmlns="http://www.w3.org/2000/svg">
<g clip-path="url(#clip0_2565_7839)">
<path d="M13.5 2.56639L17.3054 9.63362L17.3413 9.70028L17.4163 9.71099L24.9943 10.7936L19.5814 16.2064L19.529 16.2589L19.5388 16.3323L20.625 24.4787L13.5711 20.6804L13.5 20.6421L13.4289 20.6804L6.375 24.4787L7.46118 16.3323L7.47098 16.2589L7.41857 16.2064L2.0057 10.7936L9.58371 9.71099L9.65867 9.70028L9.69457 9.63362L13.5 2.56639Z" fill="#FFC700"/>
<path d="M13.5 2.56639L17.3054 9.63362L17.3413 9.70028L17.4163 9.71099L24.9943 10.7936L19.5814 16.2064L19.529 16.2589L19.5388 16.3323L20.625 24.4787L13.5711 20.6804L13.5 20.6421L13.4289 20.6804L6.375 24.4787L7.46118 16.3323L7.47098 16.2589L7.41857 16.2064L2.0057 10.7936L9.58371 9.71099L9.65867 9.70028L9.69457 9.63362L13.5 2.56639Z" fill="url(#paint0_linear_2565_7839)" fill-opacity="0.5"/>
<path d="M13.5 2.56639L17.3054 9.63362L17.3413 9.70028L17.4163 9.71099L24.9943 10.7936L19.5814 16.2064L19.529 16.2589L19.5388 16.3323L20.625 24.4787L13.5711 20.6804L13.5 20.6421L13.4289 20.6804L6.375 24.4787L7.46118 16.3323L7.47098 16.2589L7.41857 16.2064L2.0057 10.7936L9.58371 9.71099L9.65867 9.70028L9.69457 9.63362L13.5 2.56639Z" fill="url(#paint1_linear_2565_7839)" fill-opacity="0.5"/>
<path d="M13.5 2.56639L17.3054 9.63362L17.3413 9.70028L17.4163 9.71099L24.9943 10.7936L19.5814 16.2064L19.529 16.2589L19.5388 16.3323L20.625 24.4787L13.5711 20.6804L13.5 20.6421L13.4289 20.6804L6.375 24.4787L7.46118 16.3323L7.47098 16.2589L7.41857 16.2064L2.0057 10.7936L9.58371 9.71099L9.65867 9.70028L9.69457 9.63362L13.5 2.56639Z" stroke="url(#paint2_linear_2565_7839)" stroke-width="0.3"/>
<path d="M13.5 14.0625L17.4375 9.5625L13.5 2.25V14.0625ZM25.3125 10.6875L13.5 14.0625L19.6875 16.3125L25.3125 10.6875ZM20.8125 24.75L13.5 14.0625V20.8125L20.8125 24.75ZM7.3125 16.3125L6.1875 24.75L13.5 14.0625L7.3125 16.3125ZM1.6875 10.6875L13.5 14.0625L9.5625 9.5625L1.6875 10.6875Z" fill="#F9A825"/>
</g>
<defs>
<linearGradient id="paint0_linear_2565_7839" x1="6.5" y1="12.5" x2="39.5" y2="-2.5" gradientUnits="userSpaceOnUse">
<stop stop-color="#F9A825"/>
<stop offset="0.203664" stop-color="#FFF3B1"/>
</linearGradient>
<linearGradient id="paint1_linear_2565_7839" x1="23" y1="15.5" x2="3" y2="1" gradientUnits="userSpaceOnUse">
<stop stop-color="#F9A825"/>
<stop offset="0.203664" stop-color="#FFF3B1"/>
</linearGradient>
<linearGradient id="paint2_linear_2565_7839" x1="3" y1="2.5" x2="24.5" y2="21.5" gradientUnits="userSpaceOnUse">
<stop stop-color="#F9A825" stop-opacity="0.2"/>
<stop offset="1" stop-color="#F9A825" stop-opacity="0.8"/>
</linearGradient>
<clipPath id="clip0_2565_7839">
<rect width="27" height="27" fill="white"/>
</clipPath>
</defs>
</svg>
