<svg width="80" height="80" viewBox="0 0 80 80" fill="none" xmlns="http://www.w3.org/2000/svg">
<path opacity="0.1" d="M57.5 18.75C57.5 18.75 55.9125 30.1125 55 33.75C53.75 38.75 50.2875 42.775 49.1375 43.5375C48.9375 43.675 48.6875 43.75 48.4375 43.75H18.5V38.0375C18.85 37.3 19.1875 36.4625 19.5 35.5125C19.675 34.9625 19.85 34.375 20 33.75C20.15 33.1375 20.325 32.3125 20.5 31.35C20.825 29.6125 21.1875 27.4625 21.5 25.4375C22.0625 21.9125 22.5 18.75 22.5 18.75H57.5Z" fill="#904AFF"/>
<path opacity="0.2" d="M57.5 18.75C57.5 18.75 55.9125 30.1125 55 33.75C53.75 38.75 50.2875 42.775 49.1375 43.5375C48.9375 43.675 48.6875 43.75 48.4375 43.75H19.5V35.5125C19.675 34.9625 19.85 34.375 20 33.75C20.15 33.1375 20.325 32.3125 20.5 31.35C20.825 29.6125 21.1875 27.4625 21.5 25.4375C22.0625 21.9125 22.5 18.75 22.5 18.75H57.5Z" fill="#904AFF"/>
<path opacity="0.3" d="M57.5 18.75C57.5 18.75 55.9125 30.1125 55 33.75C53.75 38.75 50.2875 42.775 49.1375 43.5375C48.9375 43.675 48.6875 43.75 48.4375 43.75H20.5V31.35C20.825 29.6125 21.1875 27.4625 21.5 25.4375C22.0625 21.9125 22.5 18.75 22.5 18.75H57.5Z" fill="#904AFF"/>
<path opacity="0.4" d="M57.5 18.75C57.5 18.75 55.9125 30.1125 55 33.75C53.75 38.75 50.2875 42.775 49.1375 43.5375C48.9375 43.675 48.6875 43.75 48.4375 43.75H21.5V25.4375C22.0625 21.9125 22.5 18.75 22.5 18.75H57.5Z" fill="#904AFF"/>
<path d="M60 16.875C60 15.84 59.16 15 58.125 15H21.875C20.84 15 20 15.84 20 16.875C20 17.91 20.84 18.75 21.875 18.75H22.5V50H21.875C20.84 50 20 50.84 20 51.875C20 52.91 20.84 53.75 21.875 53.75H58.125C59.16 53.75 60 52.91 60 51.875C60 50.84 59.16 50 58.125 50H57.5V18.75H58.125C59.16 18.75 60 17.91 60 16.875Z" fill="url(#paint0_linear_3321_3804)"/>
<path opacity="0.05" d="M57.5 18.75V34.025C57.475 34.1375 57.45 34.25 57.425 34.35C56 40.0375 51.975 44.65 50.5375 45.6125C49.9125 46.025 49.1875 46.25 48.4375 46.25H22.5V18.75H57.5Z" fill="#904AFF"/>
<path opacity="0.1" d="M57.5 18.75V31.575C57.3 32.6375 57.1125 33.5625 56.9375 34.2375C55.55 39.7875 51.65 44.2625 50.2625 45.2C49.7125 45.5625 49.0875 45.75 48.4375 45.75H22.5V18.75H57.5Z" fill="#904AFF"/>
<path opacity="0.2" d="M57.5 18.75V28.6875C57.125 30.875 56.7625 32.9 56.45 34.1125C55.1 39.525 51.325 43.875 49.975 44.775C49.525 45.0875 48.9875 45.25 48.4375 45.25H22.5V18.75H57.5Z" fill="#904AFF"/>
<path opacity="0.3" d="M57.5 18.75V25.5C57 28.7125 56.4125 32.2125 55.975 33.9875C54.65 39.275 51 43.5 49.7 44.3625C49.325 44.6125 48.8875 44.75 48.4375 44.75H22.5V18.75H57.5Z" fill="#904AFF"/>
<path opacity="0.4" d="M57.5 18.75V22.2125C56.9625 25.8625 56.0875 31.475 55.4875 33.875C54.2 39.0125 50.675 43.1125 49.425 43.95C49.125 44.15 48.7875 44.25 48.4375 44.25H22.5V18.75H57.5Z" fill="#904AFF"/>
<path d="M57.4996 18.75C57.4996 18.75 55.9096 30.1125 54.9996 33.75C53.7496 38.75 50.2846 42.77 49.1434 43.535C48.9334 43.675 48.6921 43.75 48.4396 43.75H15.6184C15.0521 43.75 14.7896 43.065 15.1959 42.67C16.6759 41.2337 18.7496 38.75 19.9996 33.75C20.9096 30.1125 22.4996 18.75 22.4996 18.75H57.4996Z" fill="url(#paint1_linear_3321_3804)"/>
<path d="M56.8734 18.75L56.7797 19.375C56.4159 21.9175 55.1534 30.5575 54.3934 33.5987C53.1984 38.38 49.9047 42.2725 48.7947 43.0163C48.6872 43.0875 48.5672 43.125 48.4397 43.125L15.6322 43.1188C17.1459 41.6488 19.3072 39.095 20.6059 33.9013C21.4097 30.685 22.7122 21.6975 23.0422 19.375L23.1497 18.75H22.4997C22.4997 18.75 20.9097 30.1125 19.9997 33.75C18.7497 38.75 16.6759 41.2337 15.1972 42.67C14.7909 43.065 15.0522 43.75 15.6184 43.75H48.4397C48.6922 43.75 48.9334 43.675 49.1434 43.535C50.2847 42.77 53.7497 38.75 54.9997 33.75C55.9097 30.1125 57.4997 18.75 57.4997 18.75H56.8734Z" fill="url(#paint2_linear_3321_3804)"/>
<path d="M21.5214 65C22.0939 65 22.5889 64.6025 22.7127 64.045L25.0002 53.75H22.5002L20.3302 63.515C20.1614 64.2775 20.7402 65 21.5214 65Z" fill="url(#paint3_linear_3321_3804)"/>
<path d="M58.4788 65C59.26 65 59.8387 64.2775 59.67 63.515L57.5 53.75H55L57.2875 64.045C57.4113 64.6025 57.9075 65 58.4788 65Z" fill="url(#paint4_linear_3321_3804)"/>
<path d="M39.97 62.5H40.03C40.7038 62.5 41.25 61.9537 41.25 61.28V53.75H38.75V61.28C38.75 61.9537 39.2962 62.5 39.97 62.5Z" fill="url(#paint5_linear_3321_3804)"/>
<path opacity="0.05" d="M57.5002 18.75V21.25H22.1377C22.1627 21.075 22.1877 20.9125 22.2127 20.75C22.2377 20.575 22.2627 20.4125 22.2877 20.25C22.3127 20.075 22.3377 19.9 22.3627 19.75C22.3877 19.55 22.4127 19.3875 22.4252 19.25C22.4752 18.925 22.5002 18.75 22.5002 18.75H57.5002Z" fill="#904AFF"/>
<path opacity="0.1" d="M57.5004 18.75V20.75H22.2129C22.2379 20.575 22.2629 20.4125 22.2879 20.25C22.3129 20.075 22.3379 19.9 22.3629 19.75C22.3879 19.55 22.4129 19.3875 22.4254 19.25C22.4754 18.925 22.5004 18.75 22.5004 18.75H57.5004Z" fill="#904AFF"/>
<path opacity="0.2" d="M57.4996 18.75V20.25H22.2871C22.3121 20.075 22.3371 19.9 22.3621 19.75C22.3871 19.55 22.4121 19.3875 22.4246 19.25C22.4746 18.925 22.4996 18.75 22.4996 18.75H57.4996Z" fill="#904AFF"/>
<path opacity="0.3" d="M57.4998 18.75V19.75H22.3623C22.3873 19.55 22.4123 19.3875 22.4248 19.25C22.4748 18.925 22.4998 18.75 22.4998 18.75H57.4998Z" fill="#904AFF"/>
<path opacity="0.4" d="M57.4998 18.75V19.25H22.4248C22.4748 18.925 22.4998 18.75 22.4998 18.75H57.4998Z" fill="#904AFF"/>
<path d="M60 16.875C60 15.84 59.16 15 58.125 15H21.875C20.84 15 20 15.84 20 16.875C20 17.91 20.84 18.75 21.875 18.75H58.125C59.16 18.75 60 17.91 60 16.875Z" fill="url(#paint6_linear_3321_3804)"/>
<path d="M20 51.875C20 52.91 20.84 53.75 21.875 53.75H58.125C59.16 53.75 60 52.91 60 51.875C60 50.84 59.16 50 58.125 50H21.875C20.84 50 20 50.84 20 51.875Z" fill="url(#paint7_linear_3321_3804)"/>
<defs>
<linearGradient id="paint0_linear_3321_3804" x1="40" y1="65.5063" x2="40" y2="7.93125" gradientUnits="userSpaceOnUse">
<stop stop-color="#2AD9FF"/>
<stop offset="0.032" stop-color="#31CEFF"/>
<stop offset="0.238" stop-color="#58E1FF"/>
<stop offset="0.442" stop-color="#77A5FF"/>
<stop offset="0.64" stop-color="#8DF1FF"/>
<stop offset="0.829" stop-color="#C79AFF"/>
<stop offset="1" stop-color="#C99FFF"/>
</linearGradient>
<linearGradient id="paint1_linear_3321_3804" x1="36.2496" y1="45.7287" x2="36.2496" y2="21.3987" gradientUnits="userSpaceOnUse">
<stop stop-color="#4EAEFE" stop-opacity="0.2"/>
<stop offset="1" stop-color="#41A2FE" stop-opacity="0.4"/>
</linearGradient>
<linearGradient id="paint2_linear_3321_3804" x1="36.2497" y1="43.4475" x2="36.2497" y2="19.1188" gradientUnits="userSpaceOnUse">
<stop stop-color="white" stop-opacity="0.2"/>
<stop offset="1" stop-color="#71B5FF" stop-opacity="0.4"/>
</linearGradient>
<linearGradient id="paint3_linear_3321_3804" x1="22.6502" y1="71.8113" x2="22.6502" y2="51.9662" gradientUnits="userSpaceOnUse">
<stop stop-color="#C99FFF"/>
<stop offset="0.219" stop-color="#BE85FF"/>
<stop offset="1" stop-color="#962AFF"/>
</linearGradient>
<linearGradient id="paint4_linear_3321_3804" x1="57.35" y1="71.8113" x2="57.35" y2="51.9662" gradientUnits="userSpaceOnUse">
<stop stop-color="#C99FFF"/>
<stop offset="0.219" stop-color="#BE85FF"/>
<stop offset="1" stop-color="#962AFF"/>
</linearGradient>
<linearGradient id="paint5_linear_3321_3804" x1="40" y1="67.7975" x2="40" y2="52.3625" gradientUnits="userSpaceOnUse">
<stop stop-color="#C99FFF"/>
<stop offset="0.219" stop-color="#BE85FF"/>
<stop offset="1" stop-color="#962AFF"/>
</linearGradient>
<linearGradient id="paint6_linear_3321_3804" x1="40" y1="19.8875" x2="40" y2="14.3163" gradientUnits="userSpaceOnUse">
<stop stop-color="#962AFF"/>
<stop offset="0.781" stop-color="#BE85FF"/>
<stop offset="1" stop-color="#C99FFF"/>
</linearGradient>
<linearGradient id="paint7_linear_3321_3804" x1="40" y1="54.8875" x2="40" y2="47.6225" gradientUnits="userSpaceOnUse">
<stop stop-color="#962AFF"/>
<stop offset="0.781" stop-color="#BE85FF"/>
<stop offset="1" stop-color="#C99FFF"/>
</linearGradient>
</defs>
</svg>
