<svg width="51" height="51" viewBox="0 0 51 51" fill="none" xmlns="http://www.w3.org/2000/svg">
<path opacity="0.4" d="M35.3781 21.5156H23.3411L21.4817 23.375H33.5188L35.3781 21.5156Z" fill="#9043FF"/>
<path opacity="0.3" d="M36.175 20.7188H24.1379L21.4817 23.375H33.5188L36.175 20.7188Z" fill="#9043FF"/>
<path opacity="0.2" d="M36.9719 19.9219H24.9348L21.4817 23.375H33.5188L36.9719 19.9219Z" fill="#9043FF"/>
<path opacity="0.1" d="M37.7688 19.125H25.7317L21.4817 23.375H33.5188L37.7688 19.125Z" fill="#9043FF"/>
<path d="M5.3125 23.375V45.6875C5.3125 46.274 5.7885 46.75 6.375 46.75H43.5625C44.149 46.75 44.625 46.274 44.625 45.6875V23.375C44.625 22.7885 44.149 22.3125 43.5625 22.3125H6.375C5.7885 22.3125 5.3125 22.7885 5.3125 23.375ZM10.625 44.625H7.4375V41.4375H10.625V44.625ZM10.625 27.625H7.4375V24.4375H10.625V27.625ZM17 44.625H13.8125V41.4375H17V44.625ZM17 27.625H13.8125V24.4375H17V27.625ZM23.375 44.625H20.1875V41.4375H23.375V44.625ZM23.375 27.625H20.1875V24.4375H23.375V27.625ZM29.75 44.625H26.5625V41.4375H29.75V44.625ZM29.75 27.625H26.5625V24.4375H29.75V27.625ZM36.125 44.625H32.9375V41.4375H36.125V44.625ZM36.125 27.625H32.9375V24.4375H36.125V27.625ZM42.5 44.625H39.3125V41.4375H42.5V44.625ZM42.5 27.625H39.3125V24.4375H42.5V27.625Z" fill="url(#paint0_linear_2400_42581)"/>
<path opacity="0.4" d="M21.9427 22.3146L19.8507 24.4067C19.6637 24.5937 19.5298 24.8274 19.4628 25.0824L17.8691 31.1918C17.5822 32.2894 18.582 33.2934 19.6838 33.0066L25.7943 31.4128C26.0503 31.3459 26.2841 31.212 26.47 31.025C28.1562 29.3388 31.5817 25.9101 35.1761 22.3125H21.9427V22.3146Z" fill="#904AFF"/>
<path opacity="0.3" d="M21.3425 22.3125L19.5501 24.1049C19.3099 24.3451 19.1378 24.6458 19.0517 24.9751L17.458 31.0845C17.0893 32.4955 18.3739 33.7864 19.7912 33.4177L25.9017 31.824C26.2311 31.7379 26.5317 31.5658 26.7708 31.3257C29.6183 28.4782 32.7856 25.3066 35.7744 22.3125H21.3425Z" fill="#904AFF"/>
<path opacity="0.2" d="M20.741 22.3125L19.2493 23.8042C18.956 24.0975 18.7456 24.4651 18.6405 24.8667L17.0467 30.9761C16.5962 32.6995 18.1645 34.2784 19.8985 33.8289L26.0089 32.2352C26.4116 32.13 26.7792 31.9186 27.0714 31.6264C30.5936 28.1042 33.6961 24.9964 36.3746 22.3136L20.741 22.3125Z" fill="#904AFF"/>
<path opacity="0.1" d="M20.1398 22.3125L18.9487 23.5036C18.6023 23.8499 18.3526 24.2845 18.2294 24.7594L16.6356 30.8688C16.1033 32.9046 17.9553 34.7714 20.0059 34.2401L26.1163 32.6453C26.5923 32.521 27.0269 32.2713 27.3711 31.926C31.228 28.0691 34.3879 24.9039 36.9751 22.3125H20.1398Z" fill="#904AFF"/>
<path opacity="0.05" d="M19.5393 22.3125L18.6489 23.2029C18.2494 23.6024 17.9615 24.1039 17.8181 24.6521L16.2243 30.7615C15.6102 33.1096 17.7469 35.2644 20.1131 34.6513L26.2235 33.0565C26.7728 32.9131 27.2743 32.6251 27.6717 32.2267C31.7081 28.1902 34.9541 24.9401 37.5774 22.3125H19.5393Z" fill="#904AFF"/>
<path d="M47.0072 9.88255L26.1694 30.7214C26.0356 30.8552 25.8688 30.9509 25.686 30.9987L19.5766 32.5924C18.7914 32.7975 18.0753 32.0814 18.2804 31.2962L19.8741 25.1868C19.9219 25.004 20.0176 24.8372 20.1504 24.7034L40.9881 3.86455C41.8179 3.03473 43.1631 3.03473 43.9929 3.86455L47.0061 6.8778C47.837 7.70761 47.837 9.05273 47.0072 9.88255Z" fill="url(#paint1_linear_2400_42581)"/>
<path d="M42.4914 3.77344C42.9175 3.77344 43.317 3.93919 43.6187 4.23988L46.632 7.25313C46.9327 7.55381 47.0984 7.95437 47.0984 8.38044C47.0984 8.8065 46.9327 9.206 46.632 9.50775L25.7942 30.3455C25.7273 30.4124 25.6444 30.4603 25.553 30.4836L19.4437 32.0774C19.3969 32.0891 19.3502 32.0954 19.3045 32.0954C19.1419 32.0954 18.99 32.0189 18.8869 31.8861C18.8285 31.8096 18.7371 31.6492 18.7945 31.4292L20.3882 25.3199C20.4116 25.2285 20.4594 25.1446 20.5264 25.0787L41.3641 4.24094C41.6648 3.93919 42.0654 3.77344 42.4914 3.77344ZM42.4904 3.24219C41.9464 3.24219 41.4024 3.44938 40.988 3.86481L20.1513 24.7026C20.0174 24.8364 19.9218 25.0033 19.875 25.186L18.2813 31.2954C18.1007 31.9881 18.6362 32.6267 19.3045 32.6267C19.3937 32.6267 19.4851 32.615 19.5775 32.5916L25.6869 30.9979C25.8697 30.9501 26.0365 30.8544 26.1704 30.7206L47.007 9.88388C47.8369 9.05406 47.8369 7.70894 47.007 6.87913L43.9938 3.86481C43.5784 3.44938 43.0344 3.24219 42.4904 3.24219Z" fill="url(#paint2_linear_2400_42581)"/>
<defs>
<linearGradient id="paint0_linear_2400_42581" x1="20.2959" y1="25.9091" x2="32.9269" y2="49.2129" gradientUnits="userSpaceOnUse">
<stop stop-color="#C99FFF"/>
<stop offset="0.219" stop-color="#BE85FF"/>
<stop offset="1" stop-color="#962AFF"/>
</linearGradient>
<linearGradient id="paint1_linear_2400_42581" x1="43.3309" y1="7.54186" x2="22.5527" y2="28.3201" gradientUnits="userSpaceOnUse">
<stop stop-color="#4EAEFE" stop-opacity="0.2"/>
<stop offset="1" stop-color="#41A2FE" stop-opacity="0.4"/>
</linearGradient>
<linearGradient id="paint2_linear_2400_42581" x1="18.5575" y1="32.3154" x2="45.5004" y2="5.37144" gradientUnits="userSpaceOnUse">
<stop stop-color="white" stop-opacity="0.1"/>
<stop offset="1" stop-color="#71B5FF" stop-opacity="0.4"/>
</linearGradient>
</defs>
</svg>
