<svg width="80" height="80" viewBox="0 0 80 80" fill="none" xmlns="http://www.w3.org/2000/svg">
<path opacity="0.1" d="M68.75 28.7125V34.125C68.75 34.6875 68.5625 35.2 68.25 35.625C67.9875 35.9625 67.65 36.2375 67.25 36.4125C66.9375 36.55 66.6 36.625 66.25 36.625H23.75C23.4 36.625 23.0625 36.55 22.75 36.4125C22.35 36.2375 22.0125 35.9625 21.75 35.625C21.4375 35.2 21.25 34.6875 21.25 34.125V28.7125C22.45 27.2875 24.25 26.375 26.25 26.375H63.75C65.75 26.375 67.55 27.2875 68.75 28.7125Z" fill="#B10DFE"/>
<path opacity="0.2" d="M68.75 30.575V34.125C68.75 34.6875 68.5625 35.2 68.25 35.625C67.9875 35.9625 67.65 36.2375 67.25 36.4125C66.9375 36.55 66.6 36.625 66.25 36.625H23.75C23.4 36.625 23.0625 36.55 22.75 36.4125C22.35 36.2375 22.0125 35.9625 21.75 35.625C21.4375 35.2 21.25 34.6875 21.25 34.125V30.575C22.125 28.6875 24.0375 27.375 26.25 27.375H63.75C65.9625 27.375 67.875 28.6875 68.75 30.575Z" fill="#B10DFE"/>
<path opacity="0.3" d="M68.25 32.875V35.625C67.9875 35.9625 67.65 36.2375 67.25 36.4125C66.9375 36.55 66.6 36.625 66.25 36.625H23.75C23.4 36.625 23.0625 36.55 22.75 36.4125C22.35 36.2375 22.0125 35.9625 21.75 35.625V32.875C21.75 30.4 23.7625 28.375 26.25 28.375H63.75C66.2375 28.375 68.25 30.4 68.25 32.875Z" fill="#B10DFE"/>
<path opacity="0.4" d="M67.25 32.875V36.4125C66.9375 36.55 66.6 36.625 66.25 36.625H23.75C23.4 36.625 23.0625 36.55 22.75 36.4125V32.875C22.75 30.95 24.325 29.375 26.25 29.375H63.75C65.675 29.375 67.25 30.95 67.25 32.875Z" fill="#B10DFE"/>
<path d="M66.25 32.875V66.625C66.25 68 65.125 69.125 63.75 69.125H26.25C24.875 69.125 23.75 68 23.75 66.625V32.875C23.75 31.5 24.875 30.375 26.25 30.375H63.75C65.125 30.375 66.25 31.5 66.25 32.875Z" fill="url(#paint0_linear_3321_3867)"/>
<path d="M63.75 30.375H26.25C24.875 30.375 23.75 31.5 23.75 32.875V36.625H66.25V32.875C66.25 31.5 65.125 30.375 63.75 30.375Z" fill="url(#paint1_linear_3321_3867)"/>
<path d="M41.25 40.375H48.75C50.8212 40.375 52.5 38.6962 52.5 36.625H37.5C37.5 38.6962 39.1788 40.375 41.25 40.375Z" fill="#5709FE"/>
<path opacity="0.05" d="M66.25 32.875V39.125H23.75V32.875C23.75 31.5 24.875 30.375 26.25 30.375H63.75C65.125 30.375 66.25 31.5 66.25 32.875Z" fill="#B10DFE"/>
<path opacity="0.1" d="M66.25 32.875V38.625H23.75V32.875C23.75 31.5 24.875 30.375 26.25 30.375H63.75C65.125 30.375 66.25 31.5 66.25 32.875Z" fill="#B10DFE"/>
<path opacity="0.2" d="M66.25 32.875V38.125H23.75V32.875C23.75 31.5 24.875 30.375 26.25 30.375H63.75C65.125 30.375 66.25 31.5 66.25 32.875Z" fill="#B10DFE"/>
<path opacity="0.3" d="M66.25 32.875V37.625H23.75V32.875C23.75 31.5 24.875 30.375 26.25 30.375H63.75C65.125 30.375 66.25 31.5 66.25 32.875Z" fill="#B10DFE"/>
<path opacity="0.4" d="M66.25 32.875V37.125H23.75V32.875C23.75 31.5 24.875 30.375 26.25 30.375H63.75C65.125 30.375 66.25 31.5 66.25 32.875Z" fill="#B10DFE"/>
<path d="M23.75 36.625H66.25C67.6312 36.625 68.75 35.5063 68.75 34.125V25.375C68.75 23.9937 67.6312 22.875 66.25 22.875H23.75C22.3687 22.875 21.25 23.9937 21.25 25.375V34.125C21.25 35.5063 22.3687 36.625 23.75 36.625Z" fill="url(#paint2_linear_3321_3867)"/>
<path d="M66.25 23.5C67.2837 23.5 68.125 24.3412 68.125 25.375V34.125C68.125 35.1587 67.2837 36 66.25 36H23.75C22.7162 36 21.875 35.1587 21.875 34.125V25.375C21.875 24.3412 22.7162 23.5 23.75 23.5H66.25ZM66.25 22.875H23.75C22.3687 22.875 21.25 23.9937 21.25 25.375V34.125C21.25 35.5063 22.3687 36.625 23.75 36.625H66.25C67.6312 36.625 68.75 35.5063 68.75 34.125V25.375C68.75 23.9937 67.6312 22.875 66.25 22.875Z" fill="url(#paint3_linear_3321_3867)"/>
<defs>
<linearGradient id="paint0_linear_3321_3867" x1="45" y1="76.4225" x2="45" y2="41.6913" gradientUnits="userSpaceOnUse">
<stop stop-color="#084DFE"/>
<stop offset="0.239" stop-color="#1C7AFC"/>
<stop offset="0.464" stop-color="#2286FC"/>
<stop offset="1" stop-color="#24AEFC"/>
</linearGradient>
<linearGradient id="paint1_linear_3321_3867" x1="45" y1="58.9737" x2="45" y2="21.8862" gradientUnits="userSpaceOnUse">
<stop stop-color="#2447FC"/>
<stop offset="0.162" stop-color="#2043FC"/>
<stop offset="0.472" stop-color="#163BFD"/>
<stop offset="0.897" stop-color="#0587FF"/>
<stop offset="1" stop-color="#0185FF"/>
</linearGradient>
<linearGradient id="paint2_linear_3321_3867" x1="45" y1="40.4238" x2="45" y2="20.9013" gradientUnits="userSpaceOnUse">
<stop stop-color="#FFD8BB" stop-opacity="0.4"/>
<stop offset="1" stop-color="#F4805D" stop-opacity="0.3"/>
</linearGradient>
<linearGradient id="paint3_linear_3321_3867" x1="45" y1="36.6438" x2="45" y2="23.81" gradientUnits="userSpaceOnUse">
<stop stop-color="#FFFFF0" stop-opacity="0.3"/>
<stop offset="1" stop-color="#D083FF" stop-opacity="0.4"/>
</linearGradient>
</defs>
</svg>
