<svg width="25" height="26" viewBox="0 0 25 26" fill="none" xmlns="http://www.w3.org/2000/svg">
<g id="Vector">
<path d="M25 13C25 19.9035 19.4035 25.5 12.5 25.5C5.59644 25.5 0 19.9035 0 13C0 6.09644 5.59644 0.5 12.5 0.5C19.4035 0.5 25 6.09644 25 13Z" fill="white" fill-opacity="0.8"/>
<path d="M18.5087 21.764C16.7997 22.938 14.7301 23.625 12.5 23.625C10.2699 23.625 8.20028 22.9379 6.49125 21.7639C5.73643 21.2454 5.41386 20.2578 5.85274 19.454C6.76251 17.7878 8.63716 16.75 12.5 16.75C16.3629 16.75 18.2375 17.7879 19.1472 19.454C19.5861 20.2578 19.2635 21.2455 18.5087 21.764Z" fill="#1C274C"/>
<path d="M12.5 13C14.5711 13 16.25 11.3211 16.25 9.25C16.25 7.17894 14.5711 5.5 12.5 5.5C10.429 5.5 8.75 7.17894 8.75 9.25C8.75 11.3211 10.429 13 12.5 13Z" fill="#1C274C"/>
</g>
</svg>
