<svg width="60" height="60" viewBox="0 0 60 60" fill="none" xmlns="http://www.w3.org/2000/svg">
<g filter="url(#filter0_d_2400_42685)">
<path d="M51.6667 55H8.33333C6.49167 55 5 53.7569 5 52.2222V7.77778C5 6.24306 6.49167 5 8.33333 5H51.6667C53.5083 5 55 6.24306 55 7.77778V52.2222C55 53.7569 53.5083 55 51.6667 55Z" fill="url(#paint0_linear_2400_42685)"/>
</g>
<path d="M30 15V45V15Z" fill="#24B1FD"/>
<path d="M30 15V45" stroke="#20AFFD" stroke-width="3" stroke-linecap="round" stroke-linejoin="round"/>
<path d="M23 27.5V37.5V27.5Z" fill="#24B1FD"/>
<path d="M23 27.5V37.5" stroke="#20AFFD" stroke-width="3" stroke-linecap="round" stroke-linejoin="round"/>
<path d="M44 30V35V30Z" fill="#24B1FD"/>
<path d="M44 30V35" stroke="#20AFFD" stroke-width="3" stroke-linecap="round" stroke-linejoin="round"/>
<path d="M16 30V35V30Z" fill="#24B1FD"/>
<path d="M16 30V35" stroke="#20AFFD" stroke-width="3" stroke-linecap="round" stroke-linejoin="round"/>
<path d="M37 22.5V37.5V22.5Z" fill="#24B1FD"/>
<path d="M37 22.5V37.5" stroke="#20AFFD" stroke-width="3" stroke-linecap="round" stroke-linejoin="round"/>
<defs>
<filter id="filter0_d_2400_42685" x="1" y="1" width="58" height="58" filterUnits="userSpaceOnUse" color-interpolation-filters="sRGB">
<feFlood flood-opacity="0" result="BackgroundImageFix"/>
<feColorMatrix in="SourceAlpha" type="matrix" values="0 0 0 0 0 0 0 0 0 0 0 0 0 0 0 0 0 0 127 0" result="hardAlpha"/>
<feOffset/>
<feGaussianBlur stdDeviation="2"/>
<feComposite in2="hardAlpha" operator="out"/>
<feColorMatrix type="matrix" values="0 0 0 0 0 0 0 0 0 0 0 0 0 0 0 0 0 0 0.25 0"/>
<feBlend mode="normal" in2="BackgroundImageFix" result="effect1_dropShadow_2400_42685"/>
<feBlend mode="normal" in="SourceGraphic" in2="effect1_dropShadow_2400_42685" result="shape"/>
</filter>
<linearGradient id="paint0_linear_2400_42685" x1="30" y1="74" x2="30" y2="8.15695" gradientUnits="userSpaceOnUse">
<stop stop-color="#009CFC"/>
<stop offset="0.12" stop-color="#18ABFC"/>
<stop offset="0.416" stop-color="#4ECCFE"/>
<stop offset="0.672" stop-color="#76E4FE"/>
<stop offset="0.875" stop-color="#8EF3FF"/>
<stop offset="1" stop-color="#97F8FF"/>
</linearGradient>
</defs>
</svg>
