<svg width="50" height="50" viewBox="0 0 50 50" fill="none" xmlns="http://www.w3.org/2000/svg">
<path opacity="0.1" d="M30.1177 21.1975C29.198 20.3777 27.748 21.0433 27.7605 22.2797L27.9292 37.91C32.7896 36.7027 36.975 33.7943 39.8188 29.8433L30.1177 21.1975Z" fill="url(#paint0_linear_2400_42654)"/>
<path opacity="0.2" d="M30.1177 21.1975C29.198 20.3777 27.748 21.0433 27.7605 22.2797L27.9209 37.1068C32.5521 35.912 36.5344 33.1131 39.2365 29.3245L30.1177 21.1975Z" fill="url(#paint1_linear_2400_42654)"/>
<path opacity="0.3" d="M30.1177 21.1975C29.198 20.3777 27.748 21.0433 27.7605 22.2797L27.9125 36.3037C32.3146 35.1214 36.0927 32.4308 38.6542 28.8047L30.1177 21.1975Z" fill="url(#paint2_linear_2400_42654)"/>
<path opacity="0.4" d="M30.1177 21.1975C29.198 20.3777 27.748 21.0433 27.7605 22.2797L27.9032 35.5016C32.0761 34.3339 35.6511 31.7485 38.0719 28.286L30.1177 21.1975Z" fill="url(#paint3_linear_2400_42654)"/>
<path opacity="0.5" d="M30.1177 21.1975C29.198 20.3777 27.748 21.0433 27.7605 22.2797L27.8948 34.6985C31.8386 33.5464 35.2084 31.0662 37.4896 27.7662L30.1177 21.1975Z" fill="url(#paint4_linear_2400_42654)"/>
<path d="M40.625 17.7083C40.625 27.4948 32.7032 35.4167 22.9167 35.4167C13.1302 35.4167 5.20837 27.4948 5.20837 17.7083C5.20837 7.92188 13.1302 0 22.9167 0C32.7032 0 40.625 7.92188 40.625 17.7083Z" fill="url(#paint5_linear_2400_42654)"/>
<path d="M5.26046 18.75H11.5969C11.698 24.2708 13.273 30.6521 17.1178 34.4271C18.9375 35.0573 20.8823 35.4167 22.9167 35.4167C24.9907 35.4167 26.9719 35.0427 28.8198 34.3885C32.6771 30.6094 34.2605 24.2542 34.3625 18.75H40.5719C40.5917 18.4031 40.624 18.0604 40.624 17.7083C40.624 17.3563 40.5917 17.0135 40.5719 16.6667H34.3375C34.0625 10.7677 32.1594 4.52292 28.4063 0.877083C26.6771 0.313542 24.8355 0 22.9167 0C21.0365 0 19.2271 0.297917 17.5271 0.840625C13.7886 4.48125 11.8948 10.7479 11.623 16.6667H5.26046C5.24067 17.0135 5.20837 17.3563 5.20837 17.7083C5.20837 18.0604 5.24067 18.4031 5.26046 18.75ZM23.9584 0.363542C29.298 2.46354 31.9198 9.79688 32.2511 16.6667H23.9584V0.363542ZM23.9584 18.75H32.2792C32.1532 25.2188 29.8928 32.9729 23.9584 35.0896V18.75ZM21.875 0.386458V16.6667H13.7105C14.0573 9.65521 16.8282 2.46563 21.875 0.386458ZM21.875 18.75V35.0792C16.0323 32.9479 13.8053 25.2073 13.6803 18.75H21.875Z" fill="url(#paint6_linear_2400_42654)"/>
<path opacity="0.05" d="M38.5771 25.9428L31.5031 19.6386C29.2427 17.625 25.6427 19.2563 25.6781 22.299L25.8167 35.174C31.374 34.2584 36.0469 30.7573 38.5771 25.9428Z" fill="#009CFC"/>
<path opacity="0.1" d="M38.3667 26.3108L31.225 19.9473C29.2323 18.1723 26.0625 19.6108 26.0937 22.2921L26.2323 35.0952C31.4614 34.1025 35.8614 30.8129 38.3667 26.3108Z" fill="#009CFC"/>
<path opacity="0.2" d="M38.1521 26.6833L30.948 20.2635C29.224 18.7281 26.4834 19.9719 26.5105 22.2927L26.648 35.0094C31.5511 33.9552 35.6855 30.876 38.1521 26.6833Z" fill="#009CFC"/>
<path opacity="0.3" d="M37.9375 27.0472L30.6708 20.5722C29.2145 19.2754 26.9041 20.3264 26.927 22.2858L27.0635 34.916C31.6437 33.8139 35.5208 30.9379 37.9375 27.0472Z" fill="#009CFC"/>
<path opacity="0.4" d="M37.7125 27.4028L30.3938 20.8809C29.2063 19.8226 27.326 20.6809 27.3438 22.2789L27.4792 34.8195C31.7406 33.6851 35.3594 30.9976 37.7125 27.4028Z" fill="#009CFC"/>
<path opacity="0.5" d="M37.4719 27.7516L30.1166 21.1975C29.1969 20.3777 27.7469 21.0433 27.7594 22.2797L27.8937 34.6964C31.8354 33.5412 35.1969 31.0547 37.4719 27.7516Z" fill="#009CFC"/>
<path d="M46.2657 35.587L30.1177 21.1975C29.198 20.3777 27.748 21.0433 27.7605 22.2797L27.9948 43.9693C28.0084 45.1954 29.4532 45.8329 30.3594 45.0131L34.6157 41.1652L37.7771 48.1287C38.1021 48.8443 38.9427 49.16 39.6542 48.8329L42.2323 47.6495C42.9438 47.3225 43.2584 46.4777 42.9334 45.762L39.7698 38.7954L45.5032 38.0683C46.7125 37.9141 47.1782 36.3995 46.2657 35.587Z" fill="url(#paint7_linear_2400_42654)"/>
<path d="M29.1855 21.3568C29.4001 21.3568 29.6021 21.4359 29.7698 21.5859L45.9188 35.9755C46.1917 36.2182 46.2896 36.5724 46.1803 36.9234C46.073 37.2703 45.7948 37.5047 45.4365 37.5505L39.7032 38.2776L39.0021 38.3661L39.2938 39.0089L42.4563 45.9755C42.6626 46.4297 42.4636 46.9682 42.0126 47.1745L39.4344 48.3578C39.3167 48.412 39.1917 48.4391 39.0636 48.4391C38.7136 48.4391 38.3938 48.2318 38.248 47.9109L35.0865 40.9474L34.7917 40.2984L34.2626 40.7766L30.0063 44.6245C29.8376 44.7776 29.6334 44.8578 29.4167 44.8578C28.9771 44.8578 28.5178 44.5224 28.5126 43.9609L28.2813 22.2734C28.2782 21.9568 28.4178 21.7484 28.5344 21.6297C28.7063 21.4568 28.9438 21.3568 29.1855 21.3568ZM29.1855 20.8359C28.4501 20.8359 27.7511 21.4193 27.7605 22.2786L27.9948 43.9682C28.0042 44.8141 28.6948 45.3807 29.4198 45.3807C29.7459 45.3807 30.0782 45.2672 30.3594 45.013L34.6157 41.1651L37.7771 48.1286C38.0146 48.6526 38.5292 48.962 39.0667 48.962C39.2636 48.962 39.4636 48.9203 39.6542 48.8328L42.2323 47.6495C42.9438 47.3224 43.2584 46.4776 42.9334 45.762L39.7698 38.7953L45.5032 38.0682C46.7126 37.9151 47.1782 36.4005 46.2657 35.588L30.1178 21.1974C29.8376 20.9474 29.5084 20.8359 29.1855 20.8359Z" fill="url(#paint8_linear_2400_42654)"/>
<defs>
<linearGradient id="paint0_linear_2400_42654" x1="27.7605" y1="29.3725" x2="39.8198" y2="29.3725" gradientUnits="userSpaceOnUse">
<stop stop-color="#009CFC"/>
<stop offset="0.518" stop-color="#0FA5FC"/>
<stop offset="1" stop-color="#18ABFC"/>
</linearGradient>
<linearGradient id="paint1_linear_2400_42654" x1="25.1542" y1="30.4266" x2="37.5646" y2="25.286" gradientUnits="userSpaceOnUse">
<stop stop-color="#009CFC"/>
<stop offset="0.518" stop-color="#0FA5FC"/>
<stop offset="1" stop-color="#18ABFC"/>
</linearGradient>
<linearGradient id="paint2_linear_2400_42654" x1="25.125" y1="33.5162" x2="34.2459" y2="24.3954" gradientUnits="userSpaceOnUse">
<stop stop-color="#009CFC"/>
<stop offset="0.518" stop-color="#0FA5FC"/>
<stop offset="1" stop-color="#18ABFC"/>
</linearGradient>
<linearGradient id="paint3_linear_2400_42654" x1="28.5146" y1="35.7537" x2="33.9271" y2="22.687" gradientUnits="userSpaceOnUse">
<stop stop-color="#009CFC"/>
<stop offset="0.518" stop-color="#0FA5FC"/>
<stop offset="1" stop-color="#18ABFC"/>
</linearGradient>
<linearGradient id="paint4_linear_2400_42654" x1="32.625" y1="34.6985" x2="32.625" y2="20.836" gradientUnits="userSpaceOnUse">
<stop stop-color="#009CFC"/>
<stop offset="0.518" stop-color="#0FA5FC"/>
<stop offset="1" stop-color="#18ABFC"/>
</linearGradient>
<linearGradient id="paint5_linear_2400_42654" x1="22.9167" y1="36.6729" x2="22.9167" y2="1.25625" gradientUnits="userSpaceOnUse">
<stop stop-color="#009CFC"/>
<stop offset="0.12" stop-color="#18ABFC"/>
<stop offset="0.416" stop-color="#4ECCFE"/>
<stop offset="0.672" stop-color="#76E4FE"/>
<stop offset="0.875" stop-color="#8EF3FF"/>
<stop offset="1" stop-color="#97F8FF"/>
</linearGradient>
<linearGradient id="paint6_linear_2400_42654" x1="22.9167" y1="33.1979" x2="22.9167" y2="-6.425" gradientUnits="userSpaceOnUse">
<stop stop-color="#009CFC"/>
<stop offset="0.12" stop-color="#18ABFC"/>
<stop offset="0.416" stop-color="#4ECCFE"/>
<stop offset="0.672" stop-color="#76E4FE"/>
<stop offset="0.875" stop-color="#8EF3FF"/>
<stop offset="1" stop-color="#97F8FF"/>
</linearGradient>
<linearGradient id="paint7_linear_2400_42654" x1="37.8551" y1="40.2533" x2="21.5268" y2="26.6458" gradientUnits="userSpaceOnUse">
<stop stop-color="#DAA6FF" stop-opacity="0.6"/>
<stop offset="1" stop-color="#F4E9FF" stop-opacity="0.5"/>
</linearGradient>
<linearGradient id="paint8_linear_2400_42654" x1="32.1657" y1="26.6036" x2="38.9063" y2="44.3516" gradientUnits="userSpaceOnUse">
<stop stop-color="#F7EEFF" stop-opacity="0.2"/>
<stop offset="1" stop-color="#DAA6FF" stop-opacity="0.6"/>
</linearGradient>
</defs>
</svg>
