<svg width="40" height="40" viewBox="0 0 40 40" fill="none" xmlns="http://www.w3.org/2000/svg">
<rect width="40" height="40" rx="20" fill="#EDE3FD"/>
<path d="M14.7269 10.0199C14.814 10.0189 14.9001 10.0189 14.9892 10.0179C15.273 10.0158 15.5578 10.0158 15.8416 10.0148C16.0414 10.0148 16.2412 10.0138 16.441 10.0128C16.859 10.0117 17.277 10.0117 17.694 10.0117C18.2258 10.0117 18.7575 10.0087 19.2893 10.0056C19.7012 10.0036 20.1141 10.0026 20.5259 10.0026C20.7216 10.0026 20.9183 10.0015 21.114 10.0005C23.2154 9.98419 25.033 10.3506 26.6077 11.863C26.6815 11.9385 26.7563 12.013 26.8331 12.0906C26.9294 12.1814 26.9294 12.1814 27.0268 12.2733C28.2942 13.5642 28.7122 15.3573 28.7091 17.1024C28.6999 17.5647 28.6517 17.9801 28.536 18.4312C28.4683 18.7384 28.4479 18.8741 28.578 19.1639C28.6835 19.319 28.7952 19.4701 28.9099 19.6191C29.8812 20.8703 30.1261 22.5919 29.9447 24.1268C29.6271 25.9934 28.7112 27.5711 27.1866 28.7182C25.91 29.5765 24.5053 29.9816 22.9757 29.9796C22.8824 29.9806 22.7902 29.9806 22.6939 29.9816C22.3896 29.9837 22.0863 29.9837 21.782 29.9847C21.5679 29.9847 21.3548 29.9857 21.1417 29.9867C20.695 29.9878 20.2483 29.9878 19.8016 29.9878C19.2329 29.9878 18.6633 29.9908 18.0946 29.9939C17.6541 29.9969 17.2125 29.9969 16.7719 29.9969C16.5619 29.9969 16.3529 29.998 16.1428 29.999C14.6572 30.0092 13.3151 29.9602 12.0794 29.0315C11.9862 28.9662 11.9862 28.9662 11.8919 28.8988C11.017 28.2263 10.518 27.1405 10.3377 26.0719C10.227 24.7381 10.5108 23.5482 11.3622 22.5001C11.4114 22.4378 11.4606 22.3745 11.5108 22.3102C12.1194 21.6204 13.1183 21.1081 14.0261 20.9693C14.2843 20.9591 14.5404 20.9529 14.7986 20.9519C14.8744 20.9509 14.9503 20.9499 15.0291 20.9499C15.1931 20.9478 15.358 20.9468 15.523 20.9458C15.7842 20.9437 16.0455 20.9417 16.3078 20.9397C17.0516 20.9325 17.7955 20.9264 18.5383 20.9203C18.9942 20.9172 19.4501 20.9131 19.9061 20.908C20.0782 20.907 20.2503 20.906 20.4235 20.905C22.2574 20.9162 22.2574 20.9162 23.9644 20.3253C24.0719 20.2661 24.1795 20.2079 24.2912 20.1477C24.5914 19.9406 24.7676 19.7252 24.9889 19.4385C23.8916 19.0966 22.8363 19.0915 21.697 19.0966C21.3702 19.0976 21.0444 19.0976 20.7175 19.0966C19.7893 19.0935 18.861 19.0935 17.9338 19.0956C17.3631 19.0966 16.7934 19.0956 16.2228 19.0925C16.0076 19.0915 15.7914 19.0925 15.5763 19.0935C13.8591 19.1047 12.5405 18.9333 11.2506 17.7035C10.226 16.6391 9.97703 15.491 10.0016 14.0612C10.0539 12.8876 10.7157 11.8293 11.5559 11.0323C12.4944 10.3097 13.562 10.0189 14.7269 10.0199ZM13.104 13.2132C12.7618 13.6479 12.6009 14.0857 12.5917 14.6419C12.7126 15.2583 12.9185 15.6635 13.4114 16.0707C13.5128 16.1595 13.5128 16.1595 13.6163 16.2493C14.1091 16.5554 14.7095 16.4942 15.2699 16.4932C15.3632 16.4942 15.4574 16.4942 15.5537 16.4942C15.7566 16.4952 15.9594 16.4962 16.1623 16.4962C16.4851 16.4973 16.8068 16.4983 17.1295 16.5003C18.0455 16.5054 18.9624 16.5105 19.8794 16.5126C20.4409 16.5136 21.0013 16.5167 21.5628 16.5207C21.7759 16.5218 21.988 16.5228 22.2011 16.5218C23.4429 16.5207 24.5227 16.6003 25.7061 16.9892C25.8424 17.0249 25.9787 17.0596 26.1159 17.0912C26.0668 15.6839 25.7174 14.6031 24.6713 13.6244C23.7656 12.8744 22.8005 12.5855 21.6366 12.5866C21.5577 12.5855 21.4798 12.5855 21.3999 12.5855C21.1427 12.5845 20.8855 12.5835 20.6284 12.5835C20.4491 12.5835 20.2698 12.5835 20.0905 12.5825C19.7155 12.5825 19.3395 12.5815 18.9645 12.5825C18.484 12.5825 18.0035 12.5804 17.5229 12.5784C17.1531 12.5774 16.7832 12.5774 16.4133 12.5774C16.2361 12.5774 16.0588 12.5774 15.8816 12.5764C15.6336 12.5753 15.3857 12.5753 15.1378 12.5764C15.065 12.5753 14.9933 12.5753 14.9175 12.5743C14.2023 12.5784 13.6624 12.7662 13.104 13.2132ZM26.8331 21.3775C26.744 21.4785 26.6559 21.5795 26.5637 21.6836C25.4182 22.8205 23.7287 23.4328 22.1324 23.4349C22.0536 23.4349 21.9736 23.4359 21.8917 23.4359C21.7185 23.4369 21.5464 23.4379 21.3732 23.439C21.0997 23.44 20.8261 23.442 20.5526 23.4441C19.7759 23.4502 18.9983 23.4563 18.2207 23.4594C17.7442 23.4614 17.2678 23.4655 16.7914 23.4696C16.6111 23.4716 16.4297 23.4726 16.2484 23.4726C15.9953 23.4726 15.7412 23.4757 15.4871 23.4777C15.3765 23.4777 15.3765 23.4777 15.2638 23.4767C14.604 23.4879 14.0476 23.642 13.5333 24.0625C13.0917 24.6024 12.9421 25.029 12.9657 25.7188C13.0425 26.2597 13.312 26.5832 13.6931 26.971C14.3089 27.3844 14.9615 27.4293 15.6869 27.4272C15.7668 27.4272 15.8467 27.4282 15.9287 27.4282C16.19 27.4293 16.4512 27.4293 16.7135 27.4293C16.8969 27.4303 17.0803 27.4303 17.2647 27.4303C17.649 27.4313 18.0332 27.4313 18.4184 27.4313C18.9071 27.4303 19.3969 27.4323 19.8856 27.4344C20.2647 27.4364 20.6448 27.4364 21.0239 27.4354C21.2042 27.4354 21.3845 27.4364 21.5648 27.4374C23.157 27.4456 24.7891 27.3874 26.0422 26.272C26.9172 25.3514 27.3977 24.2442 27.3721 22.9767C27.3178 22.4276 27.2348 21.7775 26.8331 21.3775Z" fill="#937DEC"/>
</svg>
